G04 Layer_Physical_Order=1*
G04 Layer_Color=255*
%FSLAX24Y24*%
%MOIN*%
G70*
G01*
G75*
%ADD10R,0.0118X0.0472*%
%ADD11R,0.0472X0.0118*%
%ADD12R,0.0354X0.0315*%
%ADD13C,0.0600*%
%ADD14R,0.0315X0.0354*%
%ADD15O,0.0496X0.0142*%
%ADD16R,0.0496X0.0142*%
%ADD17R,0.1791X0.0906*%
%ADD18R,0.0433X0.0256*%
%ADD19R,0.0512X0.1339*%
%ADD20R,0.0561X0.0984*%
%ADD21R,0.0157X0.0689*%
%ADD22R,0.0394X0.0787*%
%ADD23R,0.0394X0.0394*%
%ADD24R,0.0787X0.0394*%
%ADD25R,0.0394X0.0394*%
%ADD26R,0.0394X0.0945*%
%ADD27R,0.1299X0.0945*%
%ADD28O,0.0787X0.0236*%
%ADD29O,0.0236X0.0787*%
%ADD30C,0.0100*%
%ADD31C,0.0200*%
%ADD32C,0.0400*%
%ADD33C,0.0150*%
%ADD34C,0.0220*%
%ADD35R,0.0591X0.0591*%
%ADD36C,0.0591*%
%ADD37C,0.0630*%
%ADD38C,0.2362*%
%ADD39R,0.0591X0.0591*%
%ADD40C,0.0984*%
%ADD41C,0.0787*%
%ADD42R,0.0787X0.0575*%
%ADD43C,0.0472*%
G36*
X37636Y18317D02*
X37806Y18284D01*
X37800Y18234D01*
X37795Y18234D01*
X37591Y18218D01*
X37392Y18170D01*
X37203Y18092D01*
X37028Y17985D01*
X36872Y17852D01*
X36739Y17696D01*
X36632Y17522D01*
X36554Y17332D01*
X36506Y17133D01*
X36490Y16929D01*
X36506Y16725D01*
X36554Y16526D01*
X36632Y16337D01*
X36739Y16162D01*
X36872Y16006D01*
X37028Y15873D01*
X37203Y15766D01*
X37392Y15688D01*
X37591Y15640D01*
X37795Y15624D01*
X37999Y15640D01*
X38199Y15688D01*
X38388Y15766D01*
X38562Y15873D01*
X38718Y16006D01*
X38851Y16162D01*
X38958Y16337D01*
X39037Y16526D01*
X39084Y16725D01*
X39100Y16929D01*
X39100Y16933D01*
X39150Y16940D01*
X39184Y16770D01*
X39196Y16585D01*
X39197Y16535D01*
X39197Y16535D01*
X39197Y16486D01*
Y11582D01*
X39153Y11558D01*
X39140Y11567D01*
X39063Y11582D01*
X39014Y11632D01*
X38957Y11669D01*
X38891Y11682D01*
X38680D01*
X38661Y11701D01*
X38638Y11746D01*
X38687Y11818D01*
X38694Y11853D01*
X38206D01*
Y11953D01*
X38694D01*
X38687Y11988D01*
X38638Y12060D01*
X38616Y12075D01*
Y12125D01*
X38638Y12139D01*
X38687Y12211D01*
X38694Y12246D01*
X38206D01*
Y12346D01*
X38694D01*
X38687Y12382D01*
X38638Y12454D01*
X38661Y12498D01*
X38680Y12517D01*
X38790D01*
X38802Y12519D01*
X38845Y12511D01*
X38935Y12528D01*
X39011Y12579D01*
X39062Y12655D01*
X39080Y12745D01*
X39062Y12835D01*
X39011Y12911D01*
X38935Y12962D01*
X38845Y12980D01*
X38755Y12962D01*
X38679Y12911D01*
X38648Y12865D01*
X38605Y12894D01*
X38574Y12914D01*
X38572Y12966D01*
X38576Y12985D01*
Y15052D01*
X38563Y15119D01*
X38525Y15175D01*
X38469Y15213D01*
X38402Y15226D01*
X36335D01*
X36316Y15222D01*
X36264Y15224D01*
X36226Y15281D01*
X36372Y15427D01*
X36395D01*
X36460Y15383D01*
X36550Y15365D01*
X36640Y15383D01*
X36716Y15434D01*
X36767Y15510D01*
X36785Y15600D01*
X36767Y15690D01*
X36716Y15766D01*
X36640Y15817D01*
X36550Y15835D01*
X36460Y15817D01*
X36395Y15773D01*
X36300D01*
X36234Y15760D01*
X36191Y15731D01*
X36147Y15760D01*
Y16298D01*
Y16853D01*
X35641D01*
X35620Y16903D01*
X35622Y16905D01*
X35666Y16934D01*
X35717Y17010D01*
X35735Y17100D01*
X35717Y17190D01*
X35666Y17266D01*
X35590Y17317D01*
X35500Y17335D01*
X35410Y17317D01*
X35345Y17273D01*
X34250D01*
X34184Y17260D01*
X34127Y17223D01*
X33927Y17023D01*
X33890Y16966D01*
X33887Y16953D01*
X33753D01*
Y16947D01*
X33461D01*
X33434Y16997D01*
X33448Y17018D01*
X33454Y17050D01*
X33046D01*
X33052Y17018D01*
X33066Y16997D01*
X33039Y16947D01*
X32647D01*
Y16353D01*
X32716D01*
X32726Y16303D01*
X32683Y16240D01*
X32665Y16150D01*
X32683Y16060D01*
X32717Y16010D01*
Y15320D01*
X32675Y15305D01*
X32673Y15305D01*
X32662Y15307D01*
X32590Y15355D01*
X32497Y15374D01*
X32404Y15355D01*
X32332Y15307D01*
X32319Y15304D01*
X32292Y15321D01*
X32273Y15341D01*
Y15995D01*
X32317Y16060D01*
X32335Y16150D01*
X32317Y16240D01*
X32273Y16305D01*
Y16403D01*
X32353D01*
Y16997D01*
X31247D01*
Y16954D01*
X31197Y16953D01*
Y16953D01*
X30603D01*
Y16298D01*
X30124D01*
X30058Y16285D01*
X30002Y16247D01*
X29904Y16149D01*
X29857Y16168D01*
Y17014D01*
X29224D01*
Y16226D01*
X28676D01*
Y17014D01*
X28043D01*
Y15986D01*
X28135D01*
Y15601D01*
X28125Y15550D01*
X28135Y15499D01*
Y15391D01*
X28152Y15305D01*
X28172Y15276D01*
X28145Y15226D01*
X26198D01*
X26131Y15213D01*
X26075Y15175D01*
X26037Y15119D01*
X26024Y15052D01*
Y12985D01*
X26028Y12966D01*
X26028Y12963D01*
X25987Y12914D01*
X25465D01*
X25407Y12903D01*
X24903D01*
Y12850D01*
X24647D01*
Y12903D01*
X24053D01*
Y12850D01*
X23676D01*
X23624Y12860D01*
X23535Y12842D01*
X23459Y12791D01*
X23408Y12715D01*
X23390Y12626D01*
X23408Y12536D01*
X23459Y12460D01*
X23535Y12409D01*
X23624Y12391D01*
X23676Y12401D01*
X24017D01*
X24053Y12366D01*
Y12348D01*
X24073Y12306D01*
Y12124D01*
X24350D01*
X24627D01*
Y12306D01*
X24647Y12348D01*
Y12366D01*
X24683Y12401D01*
X24867D01*
X24903Y12366D01*
Y12348D01*
X24923Y12306D01*
Y12124D01*
X25200D01*
X25477D01*
Y12306D01*
X25497Y12348D01*
X25497Y12374D01*
Y12426D01*
X25557Y12466D01*
X25910D01*
X25936Y12416D01*
X25913Y12382D01*
X25906Y12346D01*
X26394D01*
Y12246D01*
X25906D01*
X25913Y12211D01*
X25962Y12139D01*
X25984Y12125D01*
Y12075D01*
X25962Y12060D01*
X25913Y11988D01*
X25906Y11953D01*
X26394D01*
Y11853D01*
X25906D01*
X25913Y11818D01*
X25936Y11783D01*
X25910Y11733D01*
X25809D01*
X25723Y11716D01*
X25650Y11668D01*
X25378Y11395D01*
X25334Y11366D01*
X25283Y11290D01*
X25265Y11200D01*
X25283Y11110D01*
X25334Y11034D01*
X25378Y11005D01*
X25426Y10957D01*
X25499Y10908D01*
X25585Y10891D01*
X25893D01*
X25916Y10847D01*
X25895Y10815D01*
X25876Y10722D01*
X25895Y10629D01*
X25943Y10557D01*
X25947Y10535D01*
Y10515D01*
X25943Y10493D01*
X25895Y10421D01*
X25876Y10328D01*
X25895Y10235D01*
X25946Y10158D01*
X25945Y10149D01*
X25930Y10108D01*
X22784D01*
X22718Y10094D01*
X22662Y10057D01*
X21778Y9173D01*
X21650D01*
Y18331D01*
X37402D01*
X37410Y18332D01*
X37636Y18317D01*
D02*
G37*
G36*
X34517Y16877D02*
X34517Y16877D01*
Y16650D01*
X34774D01*
Y16550D01*
X34517D01*
Y16327D01*
X34517Y16323D01*
Y16277D01*
X34517Y16273D01*
Y16050D01*
X34774D01*
Y16000D01*
X34824D01*
Y15723D01*
X35006D01*
X35048Y15703D01*
X35065D01*
X35079Y15682D01*
X35088Y15653D01*
X35046Y15589D01*
X35028Y15503D01*
Y15357D01*
X34984Y15334D01*
X34952Y15355D01*
X34859Y15374D01*
X34766Y15355D01*
X34694Y15307D01*
X34672Y15302D01*
X34652D01*
X34630Y15307D01*
X34558Y15355D01*
X34465Y15374D01*
X34372Y15355D01*
X34300Y15307D01*
X34279Y15302D01*
X34258D01*
X34237Y15307D01*
X34165Y15355D01*
X34072Y15374D01*
X33979Y15355D01*
X33907Y15307D01*
X33885Y15302D01*
X33865D01*
X33843Y15307D01*
X33771Y15355D01*
X33678Y15374D01*
X33585Y15355D01*
X33513Y15307D01*
X33491Y15302D01*
X33471D01*
X33449Y15307D01*
X33377Y15355D01*
X33284Y15374D01*
X33191Y15355D01*
X33119Y15307D01*
X33108Y15305D01*
X33106Y15305D01*
X33064Y15320D01*
Y15667D01*
X33114Y15688D01*
X33168Y15652D01*
X33200Y15646D01*
Y15850D01*
Y16054D01*
X33168Y16048D01*
X33161Y16043D01*
X33120Y16076D01*
X33135Y16150D01*
X33117Y16240D01*
X33075Y16303D01*
X33084Y16353D01*
X33377D01*
Y16250D01*
X33390Y16184D01*
X33427Y16127D01*
X33553Y16002D01*
X33609Y15964D01*
X33676Y15951D01*
X33753D01*
Y15847D01*
X34347D01*
Y16398D01*
Y16927D01*
X34516D01*
X34517Y16877D01*
D02*
G37*
G36*
X21528Y9173D02*
X20455D01*
X20390Y9217D01*
X20300Y9235D01*
X20210Y9217D01*
X20134Y9166D01*
X20083Y9090D01*
X20065Y9000D01*
X20083Y8910D01*
X20134Y8834D01*
X20210Y8783D01*
X20300Y8765D01*
X20390Y8783D01*
X20455Y8827D01*
X21528D01*
Y6784D01*
X21511Y6764D01*
X21200D01*
Y6192D01*
Y5619D01*
X21511D01*
X21528Y5599D01*
Y1885D01*
X21530Y1873D01*
Y1861D01*
X21535Y1850D01*
X21484Y1816D01*
X21481Y1812D01*
X21106D01*
X21075Y1850D01*
X21085Y1900D01*
X21067Y1990D01*
X21016Y2066D01*
X20940Y2117D01*
X20850Y2135D01*
X20760Y2117D01*
X20687Y2067D01*
X20367D01*
X20342Y2100D01*
X19642D01*
X19645Y2083D01*
X19671Y2045D01*
X19669Y2032D01*
X19627Y1969D01*
X19612Y1894D01*
X19627Y1820D01*
X19662Y1766D01*
X19627Y1713D01*
X19612Y1638D01*
X19618Y1606D01*
X19577Y1556D01*
X19306D01*
X19266Y1616D01*
X19190Y1667D01*
X19100Y1685D01*
X19010Y1667D01*
X18934Y1616D01*
X18883Y1540D01*
X18865Y1450D01*
X18883Y1360D01*
X18934Y1284D01*
X19010Y1233D01*
X19100Y1215D01*
X19117Y1219D01*
X19168Y1209D01*
X19577D01*
X19618Y1159D01*
X19612Y1126D01*
X19627Y1052D01*
X19662Y998D01*
X19627Y945D01*
X19612Y870D01*
X19627Y796D01*
X19662Y743D01*
X19627Y689D01*
X19612Y615D01*
X19627Y540D01*
X19669Y477D01*
X19674Y473D01*
X19659Y423D01*
X18182D01*
X18166Y473D01*
X18194Y492D01*
X18423Y720D01*
X18460Y776D01*
X18473Y843D01*
Y1200D01*
X18460Y1266D01*
X18423Y1323D01*
X18240Y1505D01*
X18184Y1542D01*
X18118Y1556D01*
X18106D01*
X18065Y1606D01*
X18072Y1638D01*
X18065Y1671D01*
X18106Y1721D01*
X18194D01*
X18260Y1734D01*
X18317Y1772D01*
X18863Y2318D01*
X18940Y2333D01*
X19016Y2384D01*
X19067Y2460D01*
X19085Y2550D01*
X19067Y2640D01*
X19016Y2716D01*
X18940Y2767D01*
X18850Y2785D01*
X18760Y2767D01*
X18684Y2716D01*
X18633Y2640D01*
X18618Y2563D01*
X18122Y2067D01*
X18068D01*
Y2341D01*
X17454D01*
X17382Y2413D01*
X17367Y2490D01*
X17316Y2566D01*
X17240Y2617D01*
X17150Y2635D01*
X17060Y2617D01*
X16984Y2566D01*
X16933Y2490D01*
X16915Y2400D01*
X16933Y2310D01*
X16984Y2234D01*
X17060Y2183D01*
X17137Y2168D01*
X17277Y2027D01*
X17315Y2002D01*
X17332Y1959D01*
X17332Y1911D01*
X17328Y1894D01*
X17335Y1862D01*
X17303Y1823D01*
X16600D01*
X16534Y1810D01*
X16477Y1773D01*
X16421Y1716D01*
X16053D01*
Y2147D01*
X15829D01*
X15806Y2175D01*
X15827Y2223D01*
X16033D01*
Y2450D01*
X15776D01*
Y2550D01*
X16033D01*
Y2777D01*
X15846D01*
Y2837D01*
X15885Y2869D01*
X15900Y2865D01*
X15990Y2883D01*
X15995Y2887D01*
X18510D01*
X18576Y2900D01*
X18633Y2937D01*
X18773Y3077D01*
X18810Y3134D01*
X18823Y3200D01*
Y4500D01*
X18810Y4566D01*
X18773Y4623D01*
X18602Y4793D01*
X18546Y4831D01*
X18480Y4844D01*
X16820D01*
Y5082D01*
Y5476D01*
Y5875D01*
X18367D01*
X18403Y5840D01*
X18403Y5748D01*
X18423Y5706D01*
Y5524D01*
X18977D01*
Y5706D01*
X18997Y5748D01*
X18997Y5774D01*
Y6152D01*
X19263Y6418D01*
X19340Y6433D01*
X19416Y6484D01*
X19467Y6560D01*
X19485Y6650D01*
X19467Y6740D01*
X19416Y6816D01*
X19340Y6867D01*
X19250Y6885D01*
X19160Y6867D01*
X19084Y6816D01*
X19033Y6740D01*
X19018Y6663D01*
X18658Y6303D01*
X18566D01*
X18525Y6353D01*
X18535Y6400D01*
X18517Y6490D01*
X18473Y6555D01*
Y6747D01*
X18597D01*
X18597Y7302D01*
X18577Y7344D01*
Y7526D01*
X18300D01*
X18023D01*
Y7344D01*
X18003Y7302D01*
X18003Y7276D01*
Y7198D01*
X17947D01*
Y7302D01*
X17947D01*
X17927Y7318D01*
Y7526D01*
X17650D01*
X17373D01*
Y7403D01*
X16820D01*
Y7409D01*
X16800D01*
Y7585D01*
X16514D01*
Y7426D01*
X16464D01*
Y7409D01*
X16128D01*
Y7409D01*
X16108D01*
Y7050D01*
Y6657D01*
Y6263D01*
Y5828D01*
X16017D01*
X15823Y6022D01*
Y7000D01*
X15810Y7066D01*
X15773Y7123D01*
X15373Y7523D01*
X15316Y7560D01*
X15250Y7573D01*
X12772D01*
X12023Y8322D01*
Y14300D01*
X12010Y14366D01*
X11973Y14423D01*
X10990Y15405D01*
X11005Y15442D01*
X11019Y15550D01*
X11005Y15658D01*
X10963Y15759D01*
X10896Y15846D01*
X10809Y15913D01*
X10708Y15955D01*
X10600Y15969D01*
X10492Y15955D01*
X10391Y15913D01*
X10304Y15846D01*
X10237Y15759D01*
X10195Y15658D01*
X10181Y15550D01*
X10195Y15442D01*
X10237Y15341D01*
X10304Y15254D01*
X10391Y15187D01*
X10492Y15145D01*
X10600Y15131D01*
X10708Y15145D01*
X10745Y15160D01*
X11677Y14228D01*
Y8250D01*
X11690Y8184D01*
X11727Y8127D01*
X12203Y7652D01*
X12184Y7605D01*
X11580D01*
Y7247D01*
Y6812D01*
X11366D01*
X11301Y6856D01*
X11211Y6873D01*
X11121Y6856D01*
X11045Y6805D01*
X10994Y6729D01*
X10977Y6639D01*
X10994Y6549D01*
X11045Y6473D01*
X11112Y6428D01*
X11129Y6374D01*
X10827Y6073D01*
X10790Y6016D01*
X10777Y5950D01*
Y5822D01*
X10477Y5523D01*
X10440Y5466D01*
X10427Y5400D01*
Y5122D01*
X10383Y5078D01*
X10333Y5099D01*
X10333Y5112D01*
Y5300D01*
X10126D01*
Y5073D01*
X10294D01*
X10307Y5073D01*
X10316Y5052D01*
X10328Y5023D01*
X9661Y4356D01*
X9600Y4365D01*
X9566Y4416D01*
X9490Y4467D01*
X9400Y4485D01*
X9310Y4467D01*
X9245Y4423D01*
X8672D01*
X8073Y5022D01*
Y5478D01*
X8474Y5879D01*
X8491Y5865D01*
X8594Y5823D01*
X8703Y5808D01*
X8813Y5823D01*
X8915Y5865D01*
X9003Y5932D01*
X9070Y6020D01*
X9112Y6122D01*
X9119Y6177D01*
X9247D01*
Y6053D01*
X9802Y6053D01*
X9844Y6073D01*
X10026D01*
Y6350D01*
Y6627D01*
X9844D01*
X9802Y6647D01*
X9776Y6647D01*
X9247D01*
Y6523D01*
X9009D01*
X9003Y6531D01*
X8915Y6599D01*
X8813Y6641D01*
X8703Y6656D01*
X8647Y6648D01*
X8479Y6816D01*
X8508Y6858D01*
X8594Y6823D01*
X8703Y6808D01*
X8813Y6823D01*
X8915Y6865D01*
X9003Y6932D01*
X9070Y7020D01*
X9112Y7122D01*
X9127Y7232D01*
X9112Y7342D01*
X9070Y7444D01*
X9003Y7531D01*
X8915Y7599D01*
X8813Y7641D01*
X8703Y7656D01*
X8594Y7641D01*
X8491Y7599D01*
X8404Y7531D01*
X8336Y7444D01*
X8294Y7342D01*
X8280Y7232D01*
X8294Y7122D01*
X8330Y7036D01*
X8287Y7008D01*
X7873Y7422D01*
Y11478D01*
X8407Y12011D01*
X8467Y11965D01*
X8569Y11923D01*
X8679Y11908D01*
X8788Y11923D01*
X8891Y11965D01*
X8978Y12032D01*
X9046Y12120D01*
X9088Y12222D01*
X9102Y12332D01*
X9088Y12442D01*
X9046Y12544D01*
X8978Y12631D01*
X8891Y12699D01*
X8788Y12741D01*
X8679Y12756D01*
X8569Y12741D01*
X8467Y12699D01*
X8379Y12631D01*
X8312Y12544D01*
X8270Y12442D01*
X8258Y12353D01*
X7577Y11673D01*
X7540Y11616D01*
X7527Y11550D01*
Y7350D01*
X7540Y7284D01*
X7577Y7227D01*
X8347Y6458D01*
X8336Y6444D01*
X8294Y6342D01*
X8280Y6232D01*
X8286Y6181D01*
X7777Y5673D01*
X7740Y5616D01*
X7727Y5550D01*
Y4950D01*
X7740Y4884D01*
X7777Y4827D01*
X8477Y4127D01*
X8477Y4127D01*
X8534Y4090D01*
X8600Y4077D01*
X9245D01*
X9285Y4050D01*
X9294Y3989D01*
X8604Y3299D01*
X8547D01*
Y3403D01*
X7953D01*
Y2848D01*
Y2297D01*
X8547D01*
Y2350D01*
X8783D01*
X9005Y2128D01*
X9034Y2084D01*
X9110Y2033D01*
X9200Y2015D01*
X9290Y2033D01*
X9366Y2084D01*
X9417Y2160D01*
X9435Y2250D01*
X9417Y2340D01*
X9366Y2416D01*
X9322Y2445D01*
X9034Y2733D01*
X8961Y2782D01*
X8876Y2799D01*
X8547D01*
Y2952D01*
X8676D01*
X8742Y2965D01*
X8798Y3003D01*
X10394Y4599D01*
X10448Y4582D01*
X10458Y4535D01*
X10501Y4470D01*
Y4197D01*
X10397D01*
Y3603D01*
X10397D01*
Y3597D01*
X10397D01*
Y3003D01*
X10952Y3003D01*
X10994Y3023D01*
X11176D01*
Y3300D01*
X11226D01*
Y3350D01*
X11483D01*
Y3573D01*
X11483Y3577D01*
Y3623D01*
X11483Y3627D01*
Y3850D01*
X11226D01*
Y3950D01*
X11483D01*
Y4106D01*
X11529Y4126D01*
X11627Y4027D01*
X11678Y3994D01*
X11684Y3984D01*
X11760Y3933D01*
X11850Y3915D01*
X11940Y3933D01*
X12016Y3984D01*
X12067Y4060D01*
X12085Y4150D01*
X12067Y4240D01*
X12059Y4250D01*
X12083Y4295D01*
X12292D01*
Y4688D01*
Y5046D01*
X12292D01*
Y5082D01*
X12292D01*
Y5481D01*
X12800D01*
X12865Y5438D01*
X12955Y5420D01*
X13044Y5438D01*
X13121Y5489D01*
X13171Y5565D01*
X13189Y5655D01*
X13171Y5744D01*
X13121Y5821D01*
X13044Y5871D01*
X12955Y5889D01*
X12865Y5871D01*
X12800Y5828D01*
X12292D01*
Y6072D01*
X14145D01*
X14212Y6085D01*
X14268Y6123D01*
X14663Y6518D01*
X14740Y6533D01*
X14816Y6584D01*
X14867Y6660D01*
X14885Y6750D01*
X14867Y6840D01*
X14816Y6916D01*
X14740Y6967D01*
X14650Y6985D01*
X14560Y6967D01*
X14484Y6916D01*
X14433Y6840D01*
X14418Y6763D01*
X14073Y6419D01*
X12292D01*
Y6657D01*
Y7050D01*
Y7497D01*
X12339Y7516D01*
X12577Y7277D01*
X12577Y7277D01*
X12634Y7240D01*
X12700Y7227D01*
X12700Y7227D01*
X15178D01*
X15477Y6928D01*
Y5950D01*
X15490Y5884D01*
X15527Y5827D01*
X15823Y5532D01*
X15879Y5495D01*
X15945Y5481D01*
X16108D01*
Y5238D01*
X14558D01*
X14382Y5413D01*
X14367Y5490D01*
X14316Y5566D01*
X14240Y5617D01*
X14150Y5635D01*
X14060Y5617D01*
X13984Y5566D01*
X13933Y5490D01*
X13915Y5400D01*
X13933Y5310D01*
X13984Y5234D01*
X14060Y5183D01*
X14137Y5168D01*
X14218Y5087D01*
X14199Y5041D01*
X13783D01*
X13766Y5066D01*
X13690Y5117D01*
X13600Y5135D01*
X13510Y5117D01*
X13434Y5066D01*
X13383Y4990D01*
X13365Y4900D01*
X13383Y4810D01*
X13434Y4734D01*
X13510Y4683D01*
X13600Y4665D01*
X13690Y4683D01*
X13706Y4694D01*
X16108D01*
Y4295D01*
X16820D01*
Y4300D01*
X16979D01*
X17147Y4132D01*
Y4068D01*
X16773Y3694D01*
X16740Y3717D01*
X16650Y3735D01*
X16560Y3717D01*
X16484Y3666D01*
X16433Y3590D01*
X16415Y3500D01*
X16433Y3410D01*
X16484Y3334D01*
X16560Y3283D01*
X16560Y3283D01*
X16555Y3233D01*
X16088D01*
X16066Y3266D01*
X15990Y3317D01*
X15900Y3335D01*
X15888Y3332D01*
X15850Y3364D01*
Y3686D01*
X15837Y3753D01*
X15835Y3754D01*
Y4022D01*
X15726D01*
Y3686D01*
X15659D01*
Y4022D01*
X15659D01*
Y4042D01*
X13135D01*
Y4042D01*
X13100D01*
Y4042D01*
X12545D01*
Y3752D01*
X12321Y3529D01*
X12294Y3535D01*
X12204Y3517D01*
X12128Y3466D01*
X12077Y3390D01*
X12059Y3300D01*
X12077Y3210D01*
X12128Y3134D01*
X12204Y3083D01*
X12294Y3065D01*
X12360Y3079D01*
X12397Y3037D01*
Y2453D01*
X12501D01*
Y1633D01*
X12463Y1617D01*
X12375Y1550D01*
X12308Y1462D01*
X12265Y1360D01*
X12251Y1250D01*
X12265Y1140D01*
X12308Y1038D01*
X12375Y950D01*
X12463Y883D01*
X12565Y841D01*
X12674Y826D01*
X12784Y841D01*
X12886Y883D01*
X12974Y950D01*
X13041Y1038D01*
X13084Y1140D01*
X13098Y1250D01*
X13084Y1360D01*
X13041Y1462D01*
X12974Y1550D01*
X12886Y1617D01*
X12848Y1633D01*
Y2453D01*
X12952D01*
X12952Y2453D01*
X12952Y2453D01*
X12994Y2473D01*
X13176D01*
Y2750D01*
X13226D01*
Y2800D01*
X13483D01*
Y3027D01*
X13291D01*
Y3330D01*
X13928D01*
Y3223D01*
X13827Y3123D01*
X13790Y3066D01*
X13777Y3003D01*
X13653D01*
Y2448D01*
Y1897D01*
X13653D01*
Y1348D01*
Y797D01*
X13982D01*
X14002Y777D01*
X14058Y740D01*
X14124Y727D01*
X14124Y727D01*
X14445D01*
X14510Y683D01*
X14600Y665D01*
X14690Y683D01*
X14766Y734D01*
X14817Y810D01*
X14835Y900D01*
X14821Y967D01*
X14857Y1009D01*
X14860Y1010D01*
X14864Y1010D01*
X14864Y1010D01*
X15645D01*
X16435Y220D01*
X16416Y173D01*
X1969D01*
X1960Y172D01*
X1734Y187D01*
X1564Y220D01*
X1570Y270D01*
X1575Y270D01*
X1779Y286D01*
X1978Y334D01*
X2167Y412D01*
X2342Y519D01*
X2498Y652D01*
X2631Y808D01*
X2738Y982D01*
X2816Y1172D01*
X2864Y1371D01*
X2880Y1575D01*
X2864Y1779D01*
X2816Y1978D01*
X2738Y2167D01*
X2631Y2342D01*
X2498Y2498D01*
X2342Y2631D01*
X2167Y2738D01*
X1978Y2816D01*
X1779Y2864D01*
X1575Y2880D01*
X1371Y2864D01*
X1172Y2816D01*
X982Y2738D01*
X808Y2631D01*
X652Y2498D01*
X519Y2342D01*
X412Y2167D01*
X334Y1978D01*
X286Y1779D01*
X270Y1575D01*
X270Y1570D01*
X220Y1564D01*
X187Y1734D01*
X174Y1919D01*
X173Y1969D01*
X173Y1969D01*
X173Y2018D01*
Y16535D01*
X172Y16544D01*
X187Y16770D01*
X220Y16940D01*
X270Y16933D01*
X270Y16929D01*
X286Y16725D01*
X334Y16526D01*
X412Y16337D01*
X519Y16162D01*
X652Y16006D01*
X808Y15873D01*
X982Y15766D01*
X1172Y15688D01*
X1371Y15640D01*
X1575Y15624D01*
X1779Y15640D01*
X1978Y15688D01*
X2167Y15766D01*
X2342Y15873D01*
X2498Y16006D01*
X2631Y16162D01*
X2738Y16337D01*
X2816Y16526D01*
X2864Y16725D01*
X2880Y16929D01*
X2864Y17133D01*
X2816Y17332D01*
X2738Y17522D01*
X2631Y17696D01*
X2498Y17852D01*
X2342Y17985D01*
X2167Y18092D01*
X1978Y18170D01*
X1779Y18218D01*
X1575Y18234D01*
X1570Y18234D01*
X1564Y18284D01*
X1734Y18317D01*
X1919Y18330D01*
X1969Y18331D01*
Y18331D01*
X1969Y18331D01*
X21528D01*
Y9173D01*
D02*
G37*
G36*
X25945Y9719D02*
X25946Y9711D01*
X25895Y9633D01*
X25876Y9541D01*
X25895Y9448D01*
X25943Y9376D01*
X25947Y9354D01*
Y9334D01*
X25943Y9312D01*
X25895Y9240D01*
X25876Y9147D01*
X25895Y9054D01*
X25946Y8976D01*
X25945Y8968D01*
X25930Y8926D01*
X25753D01*
X25687Y8913D01*
X25631Y8876D01*
X25227Y8473D01*
X25190Y8416D01*
X25177Y8350D01*
Y8155D01*
X25133Y8090D01*
X25115Y8000D01*
X25133Y7910D01*
X25184Y7834D01*
X25260Y7783D01*
X25350Y7765D01*
X25440Y7783D01*
X25516Y7834D01*
X25567Y7910D01*
X25585Y8000D01*
X25567Y8090D01*
X25523Y8155D01*
Y8278D01*
X25825Y8580D01*
X25930D01*
X25945Y8538D01*
X25946Y8530D01*
X25895Y8452D01*
X25876Y8359D01*
X25895Y8267D01*
X25943Y8195D01*
X25947Y8173D01*
Y8153D01*
X25943Y8131D01*
X25895Y8059D01*
X25876Y7966D01*
X25895Y7873D01*
X25943Y7801D01*
X25947Y7779D01*
Y7759D01*
X25943Y7737D01*
X25895Y7665D01*
X25876Y7572D01*
X25895Y7479D01*
X25943Y7407D01*
X25947Y7385D01*
Y7365D01*
X25943Y7343D01*
X25895Y7271D01*
X25876Y7178D01*
X25895Y7085D01*
X25943Y7013D01*
X25947Y6992D01*
Y6971D01*
X25943Y6950D01*
X25895Y6878D01*
X25876Y6785D01*
X25895Y6692D01*
X25916Y6659D01*
X25893Y6615D01*
X25841D01*
X25755Y6598D01*
X25682Y6550D01*
X25528Y6395D01*
X25484Y6366D01*
X25433Y6290D01*
X25415Y6200D01*
X25433Y6110D01*
X25484Y6034D01*
X25528Y6005D01*
X25589Y5943D01*
X25570Y5897D01*
X24747D01*
Y5824D01*
X24557D01*
Y5917D01*
X24557D01*
X24558Y5932D01*
X24609Y5962D01*
X24641Y5956D01*
X24730Y5974D01*
X24806Y6025D01*
X24857Y6101D01*
X24875Y6191D01*
X24857Y6280D01*
X24806Y6356D01*
X24730Y6407D01*
X24641Y6425D01*
X24589Y6415D01*
X24164D01*
Y6507D01*
X23136D01*
Y5874D01*
X23924D01*
Y5326D01*
X23136D01*
Y4693D01*
X24164D01*
Y4785D01*
X24426D01*
Y4547D01*
X24397D01*
Y3953D01*
X24952Y3953D01*
X24994Y3973D01*
X25176D01*
Y4250D01*
Y4527D01*
X24994D01*
X24952Y4547D01*
X24926Y4547D01*
X24874D01*
Y4949D01*
X24885Y5000D01*
X24867Y5090D01*
X24816Y5166D01*
X24740Y5217D01*
X24650Y5235D01*
X24643Y5233D01*
X24641Y5234D01*
X24559D01*
X24557Y5283D01*
X24557D01*
Y5376D01*
X24747D01*
Y5303D01*
X25670D01*
X25689Y5257D01*
X25591Y5159D01*
X25543Y5086D01*
X25526Y5000D01*
Y4545D01*
X25483Y4527D01*
X25476Y4527D01*
X25276D01*
Y4250D01*
Y3973D01*
X25476D01*
X25483Y3973D01*
X25526Y3955D01*
Y3701D01*
X25515Y3650D01*
X25533Y3560D01*
X25584Y3484D01*
X25660Y3433D01*
X25750Y3415D01*
X25840Y3433D01*
X25916Y3484D01*
X25967Y3560D01*
X25974Y3599D01*
X26024Y3594D01*
Y2848D01*
X26037Y2781D01*
X26075Y2725D01*
X26131Y2688D01*
X26198Y2674D01*
X26747D01*
Y2103D01*
X26800D01*
Y1972D01*
X26686D01*
Y1598D01*
X26664Y1594D01*
X26642Y1590D01*
X26641Y1589D01*
X26639Y1589D01*
X26621Y1577D01*
X26602Y1565D01*
X26566Y1531D01*
X26565Y1529D01*
X26563Y1529D01*
X26551Y1510D01*
X26538Y1492D01*
X26538Y1490D01*
X26537Y1489D01*
X26533Y1467D01*
X26528Y1445D01*
X26528Y1444D01*
X26528Y1442D01*
Y647D01*
X25947D01*
Y574D01*
X24967D01*
X24597Y944D01*
Y1251D01*
X24673D01*
X24724Y1241D01*
X24814Y1259D01*
X24890Y1310D01*
X24941Y1386D01*
X24959Y1476D01*
X24941Y1565D01*
X24890Y1641D01*
X24814Y1692D01*
X24724Y1710D01*
X24673Y1700D01*
X24597D01*
Y1753D01*
X24003D01*
Y1198D01*
Y647D01*
X24260D01*
X24684Y223D01*
X24663Y173D01*
X21650D01*
Y697D01*
X22070D01*
X22137Y710D01*
X22193Y748D01*
X22213Y768D01*
X22290Y783D01*
X22366Y834D01*
X22417Y910D01*
X22435Y1000D01*
X22417Y1090D01*
X22366Y1166D01*
X22290Y1217D01*
X22200Y1235D01*
X22110Y1217D01*
X22034Y1166D01*
X21983Y1090D01*
X21974Y1044D01*
X21650D01*
Y1415D01*
X21740Y1433D01*
X21816Y1484D01*
X21867Y1560D01*
X21885Y1650D01*
X21867Y1740D01*
X21816Y1816D01*
X21740Y1867D01*
X21650Y1885D01*
Y5599D01*
X21920D01*
Y6784D01*
X21650D01*
Y8827D01*
X21850D01*
X21916Y8840D01*
X21973Y8877D01*
X22856Y9761D01*
X25930D01*
X25945Y9719D01*
D02*
G37*
G36*
X18477Y4428D02*
Y3272D01*
X18438Y3233D01*
X16745D01*
X16740Y3283D01*
X16740Y3283D01*
X16805Y3327D01*
X16824D01*
X16891Y3340D01*
X16947Y3377D01*
X17372Y3803D01*
X17702Y3803D01*
X17744Y3823D01*
X17767D01*
X17802Y3787D01*
Y3624D01*
X17815Y3558D01*
X17853Y3502D01*
X17877Y3477D01*
X17877Y3477D01*
X17934Y3440D01*
X18000Y3427D01*
X18000Y3427D01*
X18081D01*
X18118Y3402D01*
X18150Y3396D01*
Y3600D01*
X18200D01*
Y3650D01*
X18404D01*
X18398Y3682D01*
X18351Y3751D01*
X18282Y3798D01*
X18273Y3800D01*
X18233Y3823D01*
X18233Y3848D01*
Y4050D01*
X17976D01*
Y4100D01*
X17926D01*
Y4377D01*
X17744D01*
X17702Y4397D01*
X17676Y4397D01*
X17372D01*
X17319Y4451D01*
X17338Y4497D01*
X18408D01*
X18477Y4428D01*
D02*
G37*
G36*
X32547Y2532D02*
X32563Y2509D01*
X32560Y2505D01*
X32545Y2429D01*
Y2207D01*
X32538D01*
Y1762D01*
X32438D01*
Y2207D01*
X32401D01*
Y2250D01*
X31374D01*
Y1436D01*
X31551D01*
Y828D01*
X31523Y758D01*
X31508Y650D01*
X31523Y542D01*
X31551Y472D01*
Y173D01*
X27033D01*
Y300D01*
X26776D01*
Y350D01*
X26726D01*
Y627D01*
X26650D01*
Y1442D01*
X26686Y1476D01*
X27359D01*
Y1972D01*
X27249D01*
Y2103D01*
X27853D01*
Y2276D01*
X28049D01*
X28100Y2265D01*
X28151Y2276D01*
X28315D01*
X28364Y2243D01*
X28450Y2226D01*
X28850D01*
X28936Y2243D01*
X29009Y2291D01*
X29045Y2328D01*
X29109Y2321D01*
X29134Y2284D01*
X29210Y2233D01*
X29300Y2215D01*
X29390Y2233D01*
X29455Y2277D01*
X29484Y2234D01*
X29560Y2183D01*
X29650Y2165D01*
X29740Y2183D01*
X29816Y2234D01*
X29845Y2278D01*
X29900Y2332D01*
X29922Y2366D01*
X29950Y2371D01*
X29984Y2368D01*
X30161Y2191D01*
X30233Y2143D01*
X30319Y2126D01*
X30699D01*
X30750Y2115D01*
X30840Y2133D01*
X30916Y2184D01*
X30967Y2260D01*
X30985Y2350D01*
X30967Y2440D01*
X30941Y2479D01*
X30964Y2534D01*
X31015Y2545D01*
X31094Y2597D01*
X31094Y2598D01*
X31144D01*
X31144Y2597D01*
X31223Y2545D01*
X31316Y2526D01*
X31409Y2545D01*
X31487Y2597D01*
X31488Y2598D01*
X31538D01*
X31538Y2597D01*
X31617Y2545D01*
X31709Y2526D01*
X31802Y2545D01*
X31881Y2597D01*
X31881Y2598D01*
X31931D01*
X31931Y2597D01*
X32010Y2545D01*
X32103Y2526D01*
X32196Y2545D01*
X32275Y2597D01*
X32282Y2608D01*
X32340Y2612D01*
X32412Y2563D01*
X32447Y2556D01*
Y3044D01*
X32547D01*
Y2532D01*
D02*
G37*
%LPC*%
G36*
X33300Y17304D02*
Y17150D01*
X33454D01*
X33448Y17182D01*
X33401Y17251D01*
X33332Y17298D01*
X33300Y17304D01*
D02*
G37*
G36*
X33200D02*
X33168Y17298D01*
X33099Y17251D01*
X33052Y17182D01*
X33046Y17150D01*
X33200D01*
Y17304D01*
D02*
G37*
G36*
X24545Y17195D02*
X24200D01*
Y16850D01*
X24545D01*
Y17195D01*
D02*
G37*
G36*
X24100D02*
X23755D01*
Y16850D01*
X24100D01*
Y17195D01*
D02*
G37*
G36*
X24545Y16750D02*
X24200D01*
Y16405D01*
X24545D01*
Y16750D01*
D02*
G37*
G36*
X24100D02*
X23755D01*
Y16405D01*
X24100D01*
Y16750D01*
D02*
G37*
G36*
X25150Y17219D02*
X25042Y17205D01*
X24941Y17163D01*
X24854Y17096D01*
X24787Y17009D01*
X24745Y16908D01*
X24731Y16800D01*
X24745Y16692D01*
X24787Y16591D01*
X24854Y16504D01*
X24941Y16437D01*
X25042Y16395D01*
X25150Y16381D01*
X25258Y16395D01*
X25359Y16437D01*
X25446Y16504D01*
X25513Y16591D01*
X25555Y16692D01*
X25569Y16800D01*
X25555Y16908D01*
X25513Y17009D01*
X25446Y17096D01*
X25359Y17163D01*
X25258Y17205D01*
X25150Y17219D01*
D02*
G37*
G36*
X23822Y15403D02*
X22876D01*
Y14900D01*
X23822D01*
Y15403D01*
D02*
G37*
G36*
X22776D02*
X21831D01*
Y14900D01*
X22776D01*
Y15403D01*
D02*
G37*
G36*
X23822Y14800D02*
X22876D01*
Y14297D01*
X23822D01*
Y14800D01*
D02*
G37*
G36*
X22776D02*
X21831D01*
Y14297D01*
X22776D01*
Y14800D01*
D02*
G37*
G36*
X25477Y12024D02*
X25250D01*
Y11817D01*
X25477D01*
Y12024D01*
D02*
G37*
G36*
X25150D02*
X24923D01*
Y11817D01*
X25150D01*
Y12024D01*
D02*
G37*
G36*
X24627D02*
X24400D01*
Y11817D01*
X24627D01*
Y12024D01*
D02*
G37*
G36*
X24300D02*
X24073D01*
Y11817D01*
X24300D01*
Y12024D01*
D02*
G37*
G36*
X23650Y11347D02*
Y11000D01*
X23997D01*
X23990Y11054D01*
X23949Y11152D01*
X23885Y11235D01*
X23802Y11299D01*
X23704Y11340D01*
X23650Y11347D01*
D02*
G37*
G36*
X23550D02*
X23496Y11340D01*
X23398Y11299D01*
X23315Y11235D01*
X23251Y11152D01*
X23210Y11054D01*
X23203Y11000D01*
X23550D01*
Y11347D01*
D02*
G37*
G36*
X23997Y10900D02*
X23650D01*
Y10553D01*
X23704Y10560D01*
X23802Y10601D01*
X23885Y10665D01*
X23949Y10748D01*
X23990Y10846D01*
X23997Y10900D01*
D02*
G37*
G36*
X23550D02*
X23203D01*
X23210Y10846D01*
X23251Y10748D01*
X23315Y10665D01*
X23398Y10601D01*
X23496Y10560D01*
X23550Y10553D01*
Y10900D01*
D02*
G37*
G36*
X33300Y16054D02*
Y15900D01*
X33454D01*
X33448Y15932D01*
X33401Y16001D01*
X33332Y16048D01*
X33300Y16054D01*
D02*
G37*
G36*
X34724Y15950D02*
X34517D01*
Y15723D01*
X34724D01*
Y15950D01*
D02*
G37*
G36*
X33454Y15800D02*
X33300D01*
Y15646D01*
X33332Y15652D01*
X33401Y15699D01*
X33448Y15768D01*
X33454Y15800D01*
D02*
G37*
G36*
X10600Y16969D02*
X10492Y16955D01*
X10391Y16913D01*
X10304Y16846D01*
X10237Y16759D01*
X10195Y16658D01*
X10181Y16550D01*
X10195Y16442D01*
X10237Y16341D01*
X10304Y16254D01*
X10391Y16187D01*
X10492Y16145D01*
X10600Y16131D01*
X10708Y16145D01*
X10809Y16187D01*
X10896Y16254D01*
X10963Y16341D01*
X11005Y16442D01*
X11019Y16550D01*
X11005Y16658D01*
X10963Y16759D01*
X10896Y16846D01*
X10809Y16913D01*
X10708Y16955D01*
X10600Y16969D01*
D02*
G37*
G36*
X20889Y15423D02*
X18858D01*
Y15173D01*
X18644D01*
X18587Y15217D01*
X18485Y15259D01*
X18375Y15274D01*
X18265Y15259D01*
X18163Y15217D01*
X18106Y15173D01*
X17892D01*
Y15423D01*
X15861D01*
Y14277D01*
X17892D01*
Y14527D01*
X18106D01*
X18163Y14483D01*
X18265Y14441D01*
X18375Y14426D01*
X18485Y14441D01*
X18587Y14483D01*
X18644Y14527D01*
X18858D01*
Y14277D01*
X20889D01*
Y15423D01*
D02*
G37*
G36*
X14919Y15403D02*
X13974D01*
Y14900D01*
X14919D01*
Y15403D01*
D02*
G37*
G36*
X13874D02*
X12928D01*
Y14900D01*
X13874D01*
Y15403D01*
D02*
G37*
G36*
X14919Y14800D02*
X13974D01*
Y14297D01*
X14919D01*
Y14800D01*
D02*
G37*
G36*
X13874D02*
X12928D01*
Y14297D01*
X13874D01*
Y14800D01*
D02*
G37*
G36*
X6380Y14595D02*
X6260Y14584D01*
X6145Y14549D01*
X6039Y14492D01*
X5945Y14415D01*
X5869Y14322D01*
X5812Y14216D01*
X5809Y14205D01*
X4491D01*
X4488Y14216D01*
X4431Y14322D01*
X4355Y14415D01*
X4261Y14492D01*
X4155Y14549D01*
X4040Y14584D01*
X3920Y14595D01*
X3800Y14584D01*
X3684Y14549D01*
X3578Y14492D01*
X3485Y14415D01*
X3408Y14322D01*
X3351Y14216D01*
X3316Y14100D01*
X3305Y13980D01*
X3316Y13860D01*
X3351Y13745D01*
X3408Y13639D01*
X3485Y13545D01*
X3578Y13469D01*
X3684Y13412D01*
X3800Y13377D01*
X3920Y13365D01*
X4040Y13377D01*
X4155Y13412D01*
X4261Y13469D01*
X4355Y13545D01*
X4431Y13639D01*
X4488Y13745D01*
X4491Y13756D01*
X5809D01*
X5812Y13745D01*
X5869Y13639D01*
X5945Y13545D01*
X6039Y13469D01*
X6145Y13412D01*
X6156Y13409D01*
Y12091D01*
X6145Y12088D01*
X6039Y12031D01*
X5945Y11955D01*
X5869Y11861D01*
X5812Y11755D01*
X5809Y11744D01*
X4491D01*
X4488Y11755D01*
X4431Y11861D01*
X4355Y11955D01*
X4261Y12031D01*
X4155Y12088D01*
X4040Y12123D01*
X3920Y12135D01*
X3800Y12123D01*
X3684Y12088D01*
X3578Y12031D01*
X3485Y11955D01*
X3408Y11861D01*
X3351Y11755D01*
X3327Y11674D01*
X1922D01*
X1891Y11699D01*
X1788Y11741D01*
X1679Y11756D01*
X1569Y11741D01*
X1467Y11699D01*
X1379Y11631D01*
X1312Y11544D01*
X1270Y11442D01*
X1255Y11332D01*
X1270Y11222D01*
X1312Y11120D01*
X1379Y11032D01*
X1467Y10965D01*
X1569Y10923D01*
X1679Y10908D01*
X1788Y10923D01*
X1891Y10965D01*
X1978Y11032D01*
X2046Y11120D01*
X2088Y11222D01*
X2088Y11226D01*
X3383D01*
X3408Y11178D01*
X3485Y11085D01*
X3578Y11008D01*
X3684Y10951D01*
X3800Y10916D01*
X3920Y10905D01*
X4040Y10916D01*
X4155Y10951D01*
X4261Y11008D01*
X4355Y11085D01*
X4431Y11178D01*
X4488Y11284D01*
X4491Y11295D01*
X5809D01*
X5812Y11284D01*
X5869Y11178D01*
X5945Y11085D01*
X6039Y11008D01*
X6145Y10951D01*
X6260Y10916D01*
X6380Y10905D01*
X6500Y10916D01*
X6616Y10951D01*
X6722Y11008D01*
X6815Y11085D01*
X6892Y11178D01*
X6949Y11284D01*
X6984Y11400D01*
X6995Y11520D01*
X6984Y11640D01*
X6949Y11755D01*
X6892Y11861D01*
X6815Y11955D01*
X6722Y12031D01*
X6616Y12088D01*
X6605Y12091D01*
Y13409D01*
X6616Y13412D01*
X6722Y13469D01*
X6815Y13545D01*
X6892Y13639D01*
X6949Y13745D01*
X6984Y13860D01*
X6995Y13980D01*
X6984Y14100D01*
X6949Y14216D01*
X6892Y14322D01*
X6815Y14415D01*
X6722Y14492D01*
X6616Y14549D01*
X6500Y14584D01*
X6380Y14595D01*
D02*
G37*
G36*
X10600Y14969D02*
X10492Y14955D01*
X10391Y14913D01*
X10304Y14846D01*
X10237Y14759D01*
X10195Y14658D01*
X10181Y14550D01*
X10195Y14442D01*
X10237Y14341D01*
X10304Y14254D01*
X10391Y14187D01*
X10492Y14145D01*
X10600Y14131D01*
X10708Y14145D01*
X10809Y14187D01*
X10896Y14254D01*
X10963Y14341D01*
X11005Y14442D01*
X11019Y14550D01*
X11005Y14658D01*
X10963Y14759D01*
X10896Y14846D01*
X10809Y14913D01*
X10708Y14955D01*
X10600Y14969D01*
D02*
G37*
G36*
X1729Y13729D02*
Y13382D01*
X2076D01*
X2068Y13436D01*
X2028Y13534D01*
X1964Y13617D01*
X1880Y13681D01*
X1783Y13722D01*
X1729Y13729D01*
D02*
G37*
G36*
X1629D02*
X1574Y13722D01*
X1477Y13681D01*
X1393Y13617D01*
X1329Y13534D01*
X1289Y13436D01*
X1282Y13382D01*
X1629D01*
Y13729D01*
D02*
G37*
G36*
X10600Y13969D02*
X10492Y13955D01*
X10391Y13913D01*
X10304Y13846D01*
X10237Y13759D01*
X10195Y13658D01*
X10181Y13550D01*
X10195Y13442D01*
X10237Y13341D01*
X10304Y13254D01*
X10391Y13187D01*
X10492Y13145D01*
X10600Y13131D01*
X10708Y13145D01*
X10809Y13187D01*
X10896Y13254D01*
X10963Y13341D01*
X11005Y13442D01*
X11019Y13550D01*
X11005Y13658D01*
X10963Y13759D01*
X10896Y13846D01*
X10809Y13913D01*
X10708Y13955D01*
X10600Y13969D01*
D02*
G37*
G36*
X2076Y13282D02*
X1729D01*
Y12935D01*
X1783Y12942D01*
X1880Y12982D01*
X1964Y13047D01*
X2028Y13130D01*
X2068Y13227D01*
X2076Y13282D01*
D02*
G37*
G36*
X1629D02*
X1282D01*
X1289Y13227D01*
X1329Y13130D01*
X1393Y13047D01*
X1477Y12982D01*
X1574Y12942D01*
X1629Y12935D01*
Y13282D01*
D02*
G37*
G36*
X8679Y13756D02*
X8569Y13741D01*
X8467Y13699D01*
X8379Y13631D01*
X8312Y13544D01*
X8270Y13442D01*
X8255Y13332D01*
X8270Y13222D01*
X8312Y13120D01*
X8379Y13032D01*
X8467Y12965D01*
X8569Y12923D01*
X8679Y12908D01*
X8788Y12923D01*
X8891Y12965D01*
X8978Y13032D01*
X9046Y13120D01*
X9088Y13222D01*
X9102Y13332D01*
X9088Y13442D01*
X9046Y13544D01*
X8978Y13631D01*
X8891Y13699D01*
X8788Y13741D01*
X8679Y13756D01*
D02*
G37*
G36*
X5150Y13268D02*
X5016Y13250D01*
X4891Y13199D01*
X4784Y13116D01*
X4701Y13009D01*
X4687Y12974D01*
X4300D01*
X4214Y12957D01*
X4141Y12909D01*
X3907Y12674D01*
X1922D01*
X1891Y12699D01*
X1788Y12741D01*
X1679Y12756D01*
X1569Y12741D01*
X1467Y12699D01*
X1379Y12631D01*
X1312Y12544D01*
X1270Y12442D01*
X1255Y12332D01*
X1270Y12222D01*
X1312Y12120D01*
X1379Y12032D01*
X1467Y11965D01*
X1569Y11923D01*
X1679Y11908D01*
X1788Y11923D01*
X1891Y11965D01*
X1978Y12032D01*
X2046Y12120D01*
X2088Y12222D01*
X2088Y12226D01*
X4000D01*
X4086Y12243D01*
X4159Y12291D01*
X4393Y12526D01*
X4687D01*
X4701Y12491D01*
X4784Y12384D01*
X4891Y12301D01*
X5016Y12250D01*
X5150Y12232D01*
X5284Y12250D01*
X5409Y12301D01*
X5516Y12384D01*
X5599Y12491D01*
X5650Y12616D01*
X5668Y12750D01*
X5650Y12884D01*
X5599Y13009D01*
X5516Y13116D01*
X5409Y13199D01*
X5284Y13250D01*
X5150Y13268D01*
D02*
G37*
G36*
X14374Y12077D02*
X14167D01*
Y11850D01*
X14374D01*
Y12077D01*
D02*
G37*
G36*
Y11750D02*
X14167D01*
Y11523D01*
X14374D01*
Y11750D01*
D02*
G37*
G36*
X10600Y11969D02*
X10492Y11955D01*
X10391Y11913D01*
X10304Y11846D01*
X10237Y11759D01*
X10195Y11658D01*
X10181Y11550D01*
X10195Y11442D01*
X10237Y11341D01*
X10304Y11254D01*
X10391Y11187D01*
X10492Y11145D01*
X10600Y11131D01*
X10708Y11145D01*
X10809Y11187D01*
X10896Y11254D01*
X10963Y11341D01*
X11005Y11442D01*
X11019Y11550D01*
X11005Y11658D01*
X10963Y11759D01*
X10896Y11846D01*
X10809Y11913D01*
X10708Y11955D01*
X10600Y11969D01*
D02*
G37*
G36*
X8679Y11756D02*
X8569Y11741D01*
X8467Y11699D01*
X8379Y11631D01*
X8312Y11544D01*
X8270Y11442D01*
X8255Y11332D01*
X8270Y11222D01*
X8312Y11120D01*
X8379Y11032D01*
X8467Y10965D01*
X8569Y10923D01*
X8679Y10908D01*
X8788Y10923D01*
X8891Y10965D01*
X8978Y11032D01*
X9046Y11120D01*
X9088Y11222D01*
X9102Y11332D01*
X9088Y11442D01*
X9046Y11544D01*
X8978Y11631D01*
X8891Y11699D01*
X8788Y11741D01*
X8679Y11756D01*
D02*
G37*
G36*
X20895Y10895D02*
X20550D01*
Y10550D01*
X20895D01*
Y10895D01*
D02*
G37*
G36*
X13395D02*
X13050D01*
Y10550D01*
X13395D01*
Y10895D01*
D02*
G37*
G36*
X12950D02*
X12605D01*
Y10550D01*
X12950D01*
Y10895D01*
D02*
G37*
G36*
X20450D02*
X20105D01*
Y10550D01*
X20450D01*
Y10895D01*
D02*
G37*
G36*
X11015Y10965D02*
X10185D01*
Y10135D01*
X11015D01*
Y10965D01*
D02*
G37*
G36*
X20895Y10450D02*
X20550D01*
Y10105D01*
X20895D01*
Y10450D01*
D02*
G37*
G36*
X20450D02*
X20105D01*
Y10105D01*
X20450D01*
Y10450D01*
D02*
G37*
G36*
X13395D02*
X13050D01*
Y10105D01*
X13395D01*
Y10450D01*
D02*
G37*
G36*
X12950D02*
X12605D01*
Y10105D01*
X12950D01*
Y10450D01*
D02*
G37*
G36*
X19500Y10919D02*
X19392Y10905D01*
X19291Y10863D01*
X19204Y10796D01*
X19137Y10709D01*
X19095Y10608D01*
X19081Y10500D01*
X19095Y10392D01*
X19137Y10291D01*
X19204Y10204D01*
X19291Y10137D01*
X19392Y10095D01*
X19500Y10081D01*
X19608Y10095D01*
X19709Y10137D01*
X19796Y10204D01*
X19863Y10291D01*
X19905Y10392D01*
X19919Y10500D01*
X19905Y10608D01*
X19863Y10709D01*
X19796Y10796D01*
X19709Y10863D01*
X19608Y10905D01*
X19500Y10919D01*
D02*
G37*
G36*
X18500D02*
X18392Y10905D01*
X18291Y10863D01*
X18204Y10796D01*
X18137Y10709D01*
X18095Y10608D01*
X18081Y10500D01*
X18095Y10392D01*
X18137Y10291D01*
X18204Y10204D01*
X18291Y10137D01*
X18392Y10095D01*
X18500Y10081D01*
X18608Y10095D01*
X18709Y10137D01*
X18796Y10204D01*
X18863Y10291D01*
X18905Y10392D01*
X18919Y10500D01*
X18905Y10608D01*
X18863Y10709D01*
X18796Y10796D01*
X18709Y10863D01*
X18608Y10905D01*
X18500Y10919D01*
D02*
G37*
G36*
X17000D02*
X16892Y10905D01*
X16791Y10863D01*
X16704Y10796D01*
X16637Y10709D01*
X16595Y10608D01*
X16581Y10500D01*
X16595Y10392D01*
X16637Y10291D01*
X16704Y10204D01*
X16791Y10137D01*
X16892Y10095D01*
X17000Y10081D01*
X17108Y10095D01*
X17209Y10137D01*
X17296Y10204D01*
X17363Y10291D01*
X17405Y10392D01*
X17419Y10500D01*
X17405Y10608D01*
X17363Y10709D01*
X17296Y10796D01*
X17209Y10863D01*
X17108Y10905D01*
X17000Y10919D01*
D02*
G37*
G36*
X14698Y12097D02*
X14656Y12077D01*
X14474D01*
Y11800D01*
Y11523D01*
X14656D01*
X14698Y11503D01*
X14724Y11503D01*
X14802D01*
Y10868D01*
X14791Y10863D01*
X14704Y10796D01*
X14637Y10709D01*
X14595Y10608D01*
X14581Y10500D01*
X14595Y10392D01*
X14637Y10291D01*
X14704Y10204D01*
X14791Y10137D01*
X14892Y10095D01*
X15000Y10081D01*
X15108Y10095D01*
X15209Y10137D01*
X15296Y10204D01*
X15363Y10291D01*
X15405Y10392D01*
X15419Y10500D01*
X15405Y10608D01*
X15363Y10709D01*
X15296Y10796D01*
X15209Y10863D01*
X15149Y10888D01*
Y11503D01*
X15253D01*
Y12097D01*
X14706Y12097D01*
X14698D01*
D02*
G37*
G36*
X14000Y10919D02*
X13892Y10905D01*
X13791Y10863D01*
X13704Y10796D01*
X13637Y10709D01*
X13595Y10608D01*
X13581Y10500D01*
X13595Y10392D01*
X13637Y10291D01*
X13704Y10204D01*
X13791Y10137D01*
X13892Y10095D01*
X14000Y10081D01*
X14108Y10095D01*
X14209Y10137D01*
X14296Y10204D01*
X14363Y10291D01*
X14405Y10392D01*
X14419Y10500D01*
X14405Y10608D01*
X14363Y10709D01*
X14296Y10796D01*
X14209Y10863D01*
X14108Y10905D01*
X14000Y10919D01*
D02*
G37*
G36*
X16000D02*
X15892Y10905D01*
X15791Y10863D01*
X15704Y10796D01*
X15637Y10709D01*
X15595Y10608D01*
X15581Y10500D01*
X15595Y10392D01*
X15637Y10291D01*
X15704Y10204D01*
X15791Y10137D01*
X15827Y10122D01*
Y9722D01*
X15554Y9449D01*
X15516Y9393D01*
X15503Y9326D01*
Y9263D01*
X15453Y9224D01*
X15400Y9235D01*
X15310Y9217D01*
X15245Y9173D01*
X14400D01*
X14334Y9160D01*
X14277Y9123D01*
X13965Y8810D01*
X13908Y8824D01*
X13903Y8840D01*
X13917Y8860D01*
X13935Y8950D01*
X13917Y9040D01*
X13866Y9116D01*
X13790Y9167D01*
X13700Y9185D01*
X13610Y9167D01*
X13534Y9116D01*
X13483Y9040D01*
X13465Y8950D01*
X13483Y8860D01*
X13533Y8786D01*
X13535Y8739D01*
Y8570D01*
X13230D01*
X13211Y8616D01*
X13248Y8653D01*
X13286Y8709D01*
X13294Y8753D01*
X13403D01*
Y9082D01*
X13423Y9102D01*
X13460Y9158D01*
X13473Y9224D01*
Y9445D01*
X13517Y9510D01*
X13535Y9600D01*
X13517Y9690D01*
X13466Y9766D01*
X13390Y9817D01*
X13300Y9835D01*
X13210Y9817D01*
X13134Y9766D01*
X13083Y9690D01*
X13065Y9600D01*
X13083Y9510D01*
X13127Y9445D01*
Y9347D01*
X12848Y9347D01*
X12806Y9327D01*
X12624D01*
Y9050D01*
Y8773D01*
X12806D01*
X12807Y8772D01*
X12828Y8723D01*
X12798Y8693D01*
X12760Y8637D01*
X12747Y8570D01*
Y8570D01*
X12741D01*
Y8550D01*
X12565D01*
Y8264D01*
X12724D01*
Y8214D01*
X12741D01*
Y7878D01*
X12741D01*
Y7858D01*
X15855D01*
Y8570D01*
X15850D01*
Y9255D01*
X16123Y9527D01*
X16160Y9584D01*
X16173Y9650D01*
Y10122D01*
X16209Y10137D01*
X16296Y10204D01*
X16363Y10291D01*
X16405Y10392D01*
X16419Y10500D01*
X16405Y10608D01*
X16363Y10709D01*
X16296Y10796D01*
X16209Y10863D01*
X16108Y10905D01*
X16000Y10919D01*
D02*
G37*
G36*
X17700Y9235D02*
X17610Y9217D01*
X17545Y9173D01*
X16605D01*
X16540Y9217D01*
X16450Y9235D01*
X16360Y9217D01*
X16284Y9166D01*
X16233Y9090D01*
X16215Y9000D01*
X16233Y8910D01*
X16284Y8834D01*
X16360Y8783D01*
X16450Y8765D01*
X16540Y8783D01*
X16605Y8827D01*
X17545D01*
X17610Y8783D01*
X17700Y8765D01*
X17790Y8783D01*
X17866Y8834D01*
X17917Y8910D01*
X17935Y9000D01*
X17917Y9090D01*
X17866Y9166D01*
X17790Y9217D01*
X17700Y9235D01*
D02*
G37*
G36*
X12524Y9327D02*
X12317D01*
Y9100D01*
X12524D01*
Y9327D01*
D02*
G37*
G36*
Y9000D02*
X12317D01*
Y8773D01*
X12524D01*
Y9000D01*
D02*
G37*
G36*
X12674Y8164D02*
X12565D01*
Y7878D01*
X12674D01*
Y8164D01*
D02*
G37*
G36*
X18577Y7833D02*
X18350D01*
Y7626D01*
X18577D01*
Y7833D01*
D02*
G37*
G36*
X17927D02*
X17700D01*
Y7626D01*
X17927D01*
Y7833D01*
D02*
G37*
G36*
X17600D02*
X17373D01*
Y7626D01*
X17600D01*
Y7833D01*
D02*
G37*
G36*
X18250D02*
X18023D01*
Y7626D01*
X18250D01*
Y7833D01*
D02*
G37*
G36*
X6330Y7895D02*
X6210Y7884D01*
X6095Y7849D01*
X5989Y7792D01*
X5895Y7715D01*
X5819Y7622D01*
X5762Y7516D01*
X5759Y7505D01*
X4441D01*
X4438Y7516D01*
X4381Y7622D01*
X4305Y7715D01*
X4211Y7792D01*
X4105Y7849D01*
X3990Y7884D01*
X3870Y7895D01*
X3750Y7884D01*
X3634Y7849D01*
X3528Y7792D01*
X3435Y7715D01*
X3358Y7622D01*
X3301Y7516D01*
X3266Y7400D01*
X3255Y7280D01*
X3266Y7160D01*
X3301Y7045D01*
X3358Y6939D01*
X3435Y6845D01*
X3528Y6769D01*
X3634Y6712D01*
X3750Y6677D01*
X3870Y6665D01*
X3990Y6677D01*
X4105Y6712D01*
X4211Y6769D01*
X4305Y6845D01*
X4381Y6939D01*
X4438Y7045D01*
X4441Y7056D01*
X5759D01*
X5762Y7045D01*
X5819Y6939D01*
X5895Y6845D01*
X5989Y6769D01*
X6095Y6712D01*
X6156Y6694D01*
Y5406D01*
X6095Y5388D01*
X5989Y5331D01*
X5895Y5255D01*
X5819Y5161D01*
X5762Y5055D01*
X5759Y5044D01*
X4441D01*
X4438Y5055D01*
X4381Y5161D01*
X4305Y5255D01*
X4211Y5331D01*
X4105Y5388D01*
X3990Y5423D01*
X3870Y5435D01*
X3750Y5423D01*
X3661Y5396D01*
X3548Y5509D01*
X3475Y5557D01*
X3389Y5574D01*
X1947D01*
X1915Y5599D01*
X1813Y5641D01*
X1703Y5656D01*
X1594Y5641D01*
X1491Y5599D01*
X1404Y5531D01*
X1336Y5444D01*
X1294Y5342D01*
X1280Y5232D01*
X1294Y5122D01*
X1336Y5020D01*
X1404Y4932D01*
X1491Y4865D01*
X1594Y4823D01*
X1703Y4808D01*
X1813Y4823D01*
X1915Y4865D01*
X2003Y4932D01*
X2070Y5020D01*
X2112Y5122D01*
X2113Y5126D01*
X3285D01*
X3317Y5084D01*
X3301Y5055D01*
X3266Y4940D01*
X3255Y4820D01*
X3266Y4700D01*
X3301Y4584D01*
X3358Y4478D01*
X3435Y4385D01*
X3528Y4308D01*
X3634Y4251D01*
X3750Y4216D01*
X3870Y4205D01*
X3990Y4216D01*
X4105Y4251D01*
X4211Y4308D01*
X4305Y4385D01*
X4381Y4478D01*
X4438Y4584D01*
X4441Y4595D01*
X5759D01*
X5762Y4584D01*
X5819Y4478D01*
X5895Y4385D01*
X5989Y4308D01*
X6095Y4251D01*
X6210Y4216D01*
X6330Y4205D01*
X6450Y4216D01*
X6566Y4251D01*
X6672Y4308D01*
X6765Y4385D01*
X6842Y4478D01*
X6899Y4584D01*
X6934Y4700D01*
X6945Y4820D01*
X6934Y4940D01*
X6899Y5055D01*
X6842Y5161D01*
X6765Y5255D01*
X6672Y5331D01*
X6605Y5367D01*
Y6733D01*
X6672Y6769D01*
X6765Y6845D01*
X6842Y6939D01*
X6899Y7045D01*
X6934Y7160D01*
X6945Y7280D01*
X6934Y7400D01*
X6899Y7516D01*
X6842Y7622D01*
X6765Y7715D01*
X6672Y7792D01*
X6566Y7849D01*
X6450Y7884D01*
X6330Y7895D01*
D02*
G37*
G36*
X16414Y7585D02*
X16128D01*
Y7476D01*
X16414D01*
Y7585D01*
D02*
G37*
G36*
X1753Y7629D02*
Y7282D01*
X2100D01*
X2093Y7336D01*
X2053Y7434D01*
X1988Y7517D01*
X1905Y7581D01*
X1808Y7622D01*
X1753Y7629D01*
D02*
G37*
G36*
X1653D02*
X1599Y7622D01*
X1501Y7581D01*
X1418Y7517D01*
X1354Y7434D01*
X1313Y7336D01*
X1306Y7282D01*
X1653D01*
Y7629D01*
D02*
G37*
G36*
X10600Y12969D02*
X10492Y12955D01*
X10391Y12913D01*
X10304Y12846D01*
X10237Y12759D01*
X10195Y12658D01*
X10181Y12550D01*
X10195Y12442D01*
X10237Y12341D01*
X10304Y12254D01*
X10391Y12187D01*
X10492Y12145D01*
X10600Y12131D01*
X10708Y12145D01*
X10745Y12160D01*
X11127Y11778D01*
Y7535D01*
X11056Y7464D01*
X10979Y7449D01*
X10903Y7398D01*
X10852Y7322D01*
X10835Y7232D01*
X10852Y7142D01*
X10903Y7066D01*
X10979Y7015D01*
X11069Y6997D01*
X11159Y7015D01*
X11235Y7066D01*
X11286Y7142D01*
X11301Y7219D01*
X11423Y7340D01*
X11460Y7396D01*
X11473Y7463D01*
Y11850D01*
X11460Y11916D01*
X11423Y11973D01*
X11423Y11973D01*
X10990Y12405D01*
X11005Y12442D01*
X11019Y12550D01*
X11005Y12658D01*
X10963Y12759D01*
X10896Y12846D01*
X10809Y12913D01*
X10708Y12955D01*
X10600Y12969D01*
D02*
G37*
G36*
X2100Y7182D02*
X1753D01*
Y6835D01*
X1808Y6842D01*
X1905Y6882D01*
X1988Y6947D01*
X2053Y7030D01*
X2093Y7127D01*
X2100Y7182D01*
D02*
G37*
G36*
X1653D02*
X1306D01*
X1313Y7127D01*
X1354Y7030D01*
X1418Y6947D01*
X1501Y6882D01*
X1599Y6842D01*
X1653Y6835D01*
Y7182D01*
D02*
G37*
G36*
X10126Y6627D02*
Y6400D01*
X10333D01*
Y6627D01*
X10126D01*
D02*
G37*
G36*
X21100Y6764D02*
X20400D01*
Y6242D01*
X21100D01*
Y6764D01*
D02*
G37*
G36*
X10333Y6300D02*
X10126D01*
Y6073D01*
X10333D01*
Y6300D01*
D02*
G37*
G36*
X21100Y6142D02*
X20400D01*
Y5619D01*
X21100D01*
Y6142D01*
D02*
G37*
G36*
X1703Y6656D02*
X1594Y6641D01*
X1491Y6599D01*
X1404Y6531D01*
X1336Y6444D01*
X1294Y6342D01*
X1280Y6232D01*
X1294Y6122D01*
X1336Y6020D01*
X1404Y5932D01*
X1491Y5865D01*
X1594Y5823D01*
X1703Y5808D01*
X1813Y5823D01*
X1915Y5865D01*
X2003Y5932D01*
X2070Y6020D01*
X2112Y6122D01*
X2113Y6126D01*
X4554D01*
X4587Y6088D01*
X4582Y6050D01*
X4600Y5916D01*
X4651Y5791D01*
X4734Y5684D01*
X4841Y5601D01*
X4966Y5550D01*
X5100Y5532D01*
X5234Y5550D01*
X5359Y5601D01*
X5466Y5684D01*
X5549Y5791D01*
X5600Y5916D01*
X5618Y6050D01*
X5600Y6184D01*
X5549Y6309D01*
X5466Y6416D01*
X5359Y6499D01*
X5234Y6550D01*
X5100Y6568D01*
X4966Y6550D01*
X4954Y6545D01*
X4936Y6557D01*
X4850Y6574D01*
X1947D01*
X1915Y6599D01*
X1813Y6641D01*
X1703Y6656D01*
D02*
G37*
G36*
X10126Y5627D02*
Y5400D01*
X10333D01*
Y5627D01*
X10126D01*
D02*
G37*
G36*
X18977Y5424D02*
X18750D01*
Y5217D01*
X18977D01*
Y5424D01*
D02*
G37*
G36*
X18650D02*
X18423D01*
Y5217D01*
X18650D01*
Y5424D01*
D02*
G37*
G36*
X8703Y5656D02*
X8594Y5641D01*
X8491Y5599D01*
X8404Y5531D01*
X8336Y5444D01*
X8294Y5342D01*
X8280Y5232D01*
X8294Y5122D01*
X8336Y5020D01*
X8404Y4932D01*
X8491Y4865D01*
X8594Y4823D01*
X8703Y4808D01*
X8813Y4823D01*
X8915Y4865D01*
X9003Y4932D01*
X9070Y5020D01*
X9112Y5122D01*
X9119Y5177D01*
X9247D01*
Y5053D01*
X9802Y5053D01*
X9844Y5073D01*
X10026D01*
Y5350D01*
Y5627D01*
X9844D01*
X9802Y5647D01*
X9776Y5647D01*
X9247D01*
Y5523D01*
X9009D01*
X9003Y5531D01*
X8915Y5599D01*
X8813Y5641D01*
X8703Y5656D01*
D02*
G37*
G36*
X19300Y4204D02*
Y4050D01*
X19454D01*
X19448Y4082D01*
X19401Y4151D01*
X19332Y4198D01*
X19300Y4204D01*
D02*
G37*
G36*
X19200D02*
X19168Y4198D01*
X19099Y4151D01*
X19052Y4082D01*
X19046Y4050D01*
X19200D01*
Y4204D01*
D02*
G37*
G36*
X21447Y4481D02*
X21200D01*
Y3958D01*
X21447D01*
Y4481D01*
D02*
G37*
G36*
X21100D02*
X20853D01*
Y3958D01*
X21100D01*
Y4481D01*
D02*
G37*
G36*
X19454Y3950D02*
X19300D01*
Y3796D01*
X19332Y3802D01*
X19401Y3849D01*
X19448Y3918D01*
X19454Y3950D01*
D02*
G37*
G36*
X19200D02*
X19046D01*
X19052Y3918D01*
X19099Y3849D01*
X19168Y3802D01*
X19200Y3796D01*
Y3950D01*
D02*
G37*
G36*
X21447Y3858D02*
X21200D01*
Y3336D01*
X21447D01*
Y3858D01*
D02*
G37*
G36*
X21100D02*
X20853D01*
Y3336D01*
X21100D01*
Y3858D01*
D02*
G37*
G36*
X11483Y3250D02*
X11276D01*
Y3023D01*
X11483D01*
Y3250D01*
D02*
G37*
G36*
X20976Y3177D02*
Y2950D01*
X21183D01*
Y3177D01*
X20976D01*
D02*
G37*
G36*
X21183Y2850D02*
X20976D01*
Y2623D01*
X21183D01*
Y2850D01*
D02*
G37*
G36*
X20561Y4501D02*
X19928D01*
Y3420D01*
X19864Y3407D01*
X19791Y3359D01*
X19678Y3245D01*
X19634Y3216D01*
X19583Y3140D01*
X19565Y3050D01*
X19583Y2960D01*
X19634Y2884D01*
X19710Y2833D01*
X19800Y2815D01*
X19890Y2833D01*
X19966Y2884D01*
X19994Y2926D01*
X19999Y2927D01*
X20055Y2917D01*
X20086Y2871D01*
X20097Y2860D01*
Y2603D01*
X20652Y2603D01*
X20694Y2623D01*
X20876D01*
Y2900D01*
Y3177D01*
X20694D01*
X20652Y3197D01*
X20626Y3197D01*
X20469D01*
Y3316D01*
X20561D01*
Y4501D01*
D02*
G37*
G36*
X13483Y2700D02*
X13276D01*
Y2473D01*
X13483D01*
Y2700D01*
D02*
G37*
G36*
X20161Y2324D02*
X20033D01*
Y2200D01*
X20325D01*
X20322Y2217D01*
X20284Y2273D01*
X20227Y2311D01*
X20161Y2324D01*
D02*
G37*
G36*
X19933D02*
X19806D01*
X19740Y2311D01*
X19683Y2273D01*
X19645Y2217D01*
X19642Y2200D01*
X19933D01*
Y2324D01*
D02*
G37*
G36*
X10315Y2765D02*
X9485D01*
Y1935D01*
X10315D01*
Y2765D01*
D02*
G37*
G36*
X11900Y2769D02*
X11792Y2755D01*
X11691Y2713D01*
X11604Y2646D01*
X11537Y2559D01*
X11495Y2458D01*
X11481Y2350D01*
X11495Y2242D01*
X11537Y2141D01*
X11604Y2054D01*
X11691Y1987D01*
X11792Y1945D01*
X11900Y1931D01*
X12008Y1945D01*
X12109Y1987D01*
X12196Y2054D01*
X12263Y2141D01*
X12305Y2242D01*
X12319Y2350D01*
X12305Y2458D01*
X12263Y2559D01*
X12196Y2646D01*
X12109Y2713D01*
X12008Y2755D01*
X11900Y2769D01*
D02*
G37*
G36*
X10900D02*
X10792Y2755D01*
X10691Y2713D01*
X10604Y2646D01*
X10537Y2559D01*
X10495Y2458D01*
X10481Y2350D01*
X10495Y2242D01*
X10537Y2141D01*
X10604Y2054D01*
X10691Y1987D01*
X10792Y1945D01*
X10900Y1931D01*
X11008Y1945D01*
X11109Y1987D01*
X11196Y2054D01*
X11263Y2141D01*
X11305Y2242D01*
X11319Y2350D01*
X11305Y2458D01*
X11263Y2559D01*
X11196Y2646D01*
X11109Y2713D01*
X11008Y2755D01*
X10900Y2769D01*
D02*
G37*
G36*
X11650Y1647D02*
Y1300D01*
X11997D01*
X11990Y1354D01*
X11949Y1452D01*
X11885Y1535D01*
X11802Y1599D01*
X11704Y1640D01*
X11650Y1647D01*
D02*
G37*
G36*
X11550D02*
X11496Y1640D01*
X11398Y1599D01*
X11315Y1535D01*
X11251Y1452D01*
X11210Y1354D01*
X11203Y1300D01*
X11550D01*
Y1647D01*
D02*
G37*
G36*
X11997Y1200D02*
X11650D01*
Y853D01*
X11704Y860D01*
X11802Y901D01*
X11885Y965D01*
X11949Y1048D01*
X11990Y1146D01*
X11997Y1200D01*
D02*
G37*
G36*
X11550D02*
X11203D01*
X11210Y1146D01*
X11251Y1048D01*
X11315Y965D01*
X11398Y901D01*
X11496Y860D01*
X11550Y853D01*
Y1200D01*
D02*
G37*
G36*
X23650Y9647D02*
Y9300D01*
X23997D01*
X23990Y9354D01*
X23949Y9452D01*
X23885Y9535D01*
X23802Y9599D01*
X23704Y9640D01*
X23650Y9647D01*
D02*
G37*
G36*
X23550D02*
X23496Y9640D01*
X23398Y9599D01*
X23315Y9535D01*
X23251Y9452D01*
X23210Y9354D01*
X23203Y9300D01*
X23550D01*
Y9647D01*
D02*
G37*
G36*
X23997Y9200D02*
X23650D01*
Y8853D01*
X23704Y8860D01*
X23802Y8901D01*
X23885Y8965D01*
X23949Y9048D01*
X23990Y9146D01*
X23997Y9200D01*
D02*
G37*
G36*
X23550D02*
X23203D01*
X23210Y9146D01*
X23251Y9048D01*
X23315Y8965D01*
X23398Y8901D01*
X23496Y8860D01*
X23550Y8853D01*
Y9200D01*
D02*
G37*
G36*
X22352Y4481D02*
X22106D01*
Y3958D01*
X22352D01*
Y4481D01*
D02*
G37*
G36*
X22006D02*
X21759D01*
Y3958D01*
X22006D01*
Y4481D01*
D02*
G37*
G36*
X22352Y3858D02*
X22106D01*
Y3336D01*
X22352D01*
Y3858D01*
D02*
G37*
G36*
X22006D02*
X21759D01*
Y3336D01*
X22006D01*
Y3858D01*
D02*
G37*
G36*
X23400Y3547D02*
Y3200D01*
X23747D01*
X23740Y3254D01*
X23699Y3352D01*
X23635Y3435D01*
X23552Y3499D01*
X23454Y3540D01*
X23400Y3547D01*
D02*
G37*
G36*
X23300D02*
X23246Y3540D01*
X23148Y3499D01*
X23065Y3435D01*
X23001Y3352D01*
X22960Y3254D01*
X22953Y3200D01*
X23300D01*
Y3547D01*
D02*
G37*
G36*
X23747Y3100D02*
X23400D01*
Y2753D01*
X23454Y2760D01*
X23552Y2801D01*
X23635Y2865D01*
X23699Y2948D01*
X23740Y3046D01*
X23747Y3100D01*
D02*
G37*
G36*
X23300D02*
X22953D01*
X22960Y3046D01*
X23001Y2948D01*
X23065Y2865D01*
X23148Y2801D01*
X23246Y2760D01*
X23300Y2753D01*
Y3100D01*
D02*
G37*
G36*
X26414Y1972D02*
X25741D01*
Y1948D01*
X25675D01*
X25624Y1959D01*
X25534Y1941D01*
X25458Y1890D01*
X25407Y1814D01*
X25390Y1724D01*
X25407Y1634D01*
X25458Y1558D01*
Y1520D01*
X25441Y1509D01*
X25278Y1345D01*
X25234Y1316D01*
X25183Y1240D01*
X25165Y1150D01*
X25183Y1060D01*
X25234Y984D01*
X25310Y933D01*
X25400Y915D01*
X25490Y933D01*
X25566Y984D01*
X25595Y1028D01*
X25691Y1124D01*
X25741Y1121D01*
Y1102D01*
X25761D01*
Y1026D01*
X26078D01*
X26394D01*
Y1102D01*
X26414D01*
Y1476D01*
Y1972D01*
D02*
G37*
G36*
X23850Y2335D02*
X23760Y2317D01*
X23684Y2266D01*
X23633Y2190D01*
X23618Y2113D01*
X23427Y1923D01*
X23390Y1866D01*
X23377Y1800D01*
Y1788D01*
X23341Y1753D01*
X23253Y1753D01*
X23211Y1733D01*
X23203Y1733D01*
X23000D01*
Y1476D01*
X22950D01*
Y1426D01*
X22673D01*
Y1244D01*
X22653Y1202D01*
X22653Y1176D01*
Y647D01*
X23247D01*
Y647D01*
X23253D01*
Y647D01*
X23847D01*
Y1198D01*
Y1753D01*
X23814D01*
X23794Y1799D01*
X23863Y1868D01*
X23940Y1883D01*
X24016Y1934D01*
X24067Y2010D01*
X24085Y2100D01*
X24067Y2190D01*
X24016Y2266D01*
X23940Y2317D01*
X23850Y2335D01*
D02*
G37*
G36*
X22900Y1733D02*
X22673D01*
Y1526D01*
X22900D01*
Y1733D01*
D02*
G37*
G36*
X26394Y926D02*
X26128D01*
Y748D01*
X26394D01*
Y926D01*
D02*
G37*
G36*
X26028D02*
X25761D01*
Y748D01*
X26028D01*
Y926D01*
D02*
G37*
G36*
X18026Y4377D02*
Y4150D01*
X18233D01*
Y4377D01*
X18026D01*
D02*
G37*
G36*
X18404Y3550D02*
X18250D01*
Y3396D01*
X18282Y3402D01*
X18351Y3449D01*
X18398Y3518D01*
X18404Y3550D01*
D02*
G37*
G36*
X28897Y1753D02*
X28303D01*
Y1700D01*
X28247D01*
Y1753D01*
X27653D01*
X27653Y1198D01*
X27673Y1156D01*
Y974D01*
X28227D01*
Y1156D01*
X28247Y1198D01*
Y1201D01*
X28251Y1220D01*
X28253Y1222D01*
X28303Y1201D01*
Y647D01*
X28897D01*
Y700D01*
X28953D01*
Y647D01*
X29210D01*
X29416Y441D01*
X29489Y393D01*
X29574Y376D01*
X30299D01*
X30350Y365D01*
X30440Y383D01*
X30516Y434D01*
X30567Y510D01*
X30585Y600D01*
X30567Y690D01*
X30516Y766D01*
X30440Y817D01*
X30350Y835D01*
X30299Y824D01*
X29667D01*
X29547Y944D01*
X29547Y1202D01*
X29527Y1244D01*
Y1426D01*
X29250D01*
X28973D01*
Y1244D01*
X28953Y1202D01*
Y1199D01*
X28949Y1180D01*
X28947Y1178D01*
X28899Y1197D01*
X28897Y1199D01*
Y1753D01*
D02*
G37*
G36*
X29527Y1733D02*
X29300D01*
Y1526D01*
X29527D01*
Y1733D01*
D02*
G37*
G36*
X29200D02*
X28973D01*
Y1526D01*
X29200D01*
Y1733D01*
D02*
G37*
G36*
X27339Y1204D02*
X27072D01*
Y1026D01*
X27339D01*
Y1204D01*
D02*
G37*
G36*
X26972D02*
X26706D01*
Y1026D01*
X26972D01*
Y1204D01*
D02*
G37*
G36*
X27339Y926D02*
X27072D01*
Y748D01*
X27339D01*
Y926D01*
D02*
G37*
G36*
X26972D02*
X26706D01*
Y748D01*
X26972D01*
Y926D01*
D02*
G37*
G36*
X28227Y874D02*
X28000D01*
Y667D01*
X28227D01*
Y874D01*
D02*
G37*
G36*
X27900D02*
X27673D01*
Y667D01*
X27900D01*
Y874D01*
D02*
G37*
G36*
X27033Y627D02*
X26826D01*
Y400D01*
X27033D01*
Y627D01*
D02*
G37*
%LPD*%
D10*
X12724Y8214D02*
D03*
X12920D02*
D03*
X13314D02*
D03*
X13117D02*
D03*
X13905D02*
D03*
X14102D02*
D03*
X13708D02*
D03*
X13511D02*
D03*
X15086D02*
D03*
X15283D02*
D03*
X15676D02*
D03*
X15480D02*
D03*
X14692D02*
D03*
X14889D02*
D03*
X14495D02*
D03*
X14298D02*
D03*
Y3686D02*
D03*
X14495D02*
D03*
X14889D02*
D03*
X14692D02*
D03*
X15480D02*
D03*
X15676D02*
D03*
X15283D02*
D03*
X15086D02*
D03*
X13511D02*
D03*
X13708D02*
D03*
X14102D02*
D03*
X13905D02*
D03*
X13117D02*
D03*
X13314D02*
D03*
X12920D02*
D03*
X12724D02*
D03*
D11*
X16464Y7426D02*
D03*
Y7230D02*
D03*
Y7033D02*
D03*
Y6836D02*
D03*
Y6048D02*
D03*
Y6245D02*
D03*
Y6442D02*
D03*
Y6639D02*
D03*
Y5064D02*
D03*
Y4867D02*
D03*
Y4670D02*
D03*
Y4474D02*
D03*
Y5261D02*
D03*
Y5458D02*
D03*
Y5655D02*
D03*
Y5852D02*
D03*
X11936D02*
D03*
Y5655D02*
D03*
Y5458D02*
D03*
Y5261D02*
D03*
Y4474D02*
D03*
Y4670D02*
D03*
Y4867D02*
D03*
Y5064D02*
D03*
Y6639D02*
D03*
Y6442D02*
D03*
Y6245D02*
D03*
Y6048D02*
D03*
Y6836D02*
D03*
Y7033D02*
D03*
Y7230D02*
D03*
Y7426D02*
D03*
D12*
X13950Y1626D02*
D03*
Y1074D02*
D03*
X13950Y2174D02*
D03*
Y2726D02*
D03*
X29250Y924D02*
D03*
Y1476D02*
D03*
X35850Y16576D02*
D03*
Y16024D02*
D03*
X34050Y16124D02*
D03*
Y16676D02*
D03*
X30900Y16676D02*
D03*
Y16124D02*
D03*
X18700Y6026D02*
D03*
Y5474D02*
D03*
X8250Y3126D02*
D03*
Y2574D02*
D03*
X22950Y924D02*
D03*
Y1476D02*
D03*
X27950Y1476D02*
D03*
Y924D02*
D03*
X28600Y1476D02*
D03*
Y924D02*
D03*
X24350Y12074D02*
D03*
Y12626D02*
D03*
X25200Y12074D02*
D03*
Y12626D02*
D03*
X18300Y7024D02*
D03*
Y7576D02*
D03*
X17650Y7024D02*
D03*
Y7576D02*
D03*
X23550Y924D02*
D03*
Y1476D02*
D03*
X24300Y924D02*
D03*
Y1476D02*
D03*
D13*
X23350Y3150D02*
D03*
X11600Y1250D02*
D03*
X12674D02*
D03*
X8679Y12332D02*
D03*
Y13332D02*
D03*
Y11332D02*
D03*
X1679Y13332D02*
D03*
Y12332D02*
D03*
Y11332D02*
D03*
X1703Y5232D02*
D03*
Y6232D02*
D03*
Y7232D02*
D03*
X8703Y5232D02*
D03*
Y7232D02*
D03*
Y6232D02*
D03*
X23600Y10950D02*
D03*
Y9250D02*
D03*
X18375Y14850D02*
D03*
D14*
X34774Y16000D02*
D03*
X35326D02*
D03*
X34774Y16600D02*
D03*
X35326D02*
D03*
X14976Y11800D02*
D03*
X14424D02*
D03*
X33476Y16650D02*
D03*
X32924D02*
D03*
X31524Y16700D02*
D03*
X32076D02*
D03*
X9524Y6350D02*
D03*
X10076D02*
D03*
X9524Y5350D02*
D03*
X10076D02*
D03*
X11226Y3900D02*
D03*
X10674D02*
D03*
X11226Y3300D02*
D03*
X10674D02*
D03*
X12674Y2750D02*
D03*
X13226D02*
D03*
X15776Y1850D02*
D03*
X15224D02*
D03*
X15224Y2500D02*
D03*
X15776D02*
D03*
X17424Y4100D02*
D03*
X17976D02*
D03*
X20374Y2900D02*
D03*
X20926D02*
D03*
X24674Y4250D02*
D03*
X25226D02*
D03*
X26224Y350D02*
D03*
X26776D02*
D03*
X27576Y2400D02*
D03*
X27024D02*
D03*
X13126Y9050D02*
D03*
X12574D02*
D03*
X25576Y5600D02*
D03*
X25024D02*
D03*
D15*
X19983Y615D02*
D03*
Y870D02*
D03*
Y1126D02*
D03*
Y1382D02*
D03*
Y1638D02*
D03*
Y1894D02*
D03*
Y2150D02*
D03*
X17700Y615D02*
D03*
Y870D02*
D03*
Y1126D02*
D03*
Y1382D02*
D03*
Y1638D02*
D03*
Y1894D02*
D03*
D16*
Y2150D02*
D03*
D17*
X13924Y14850D02*
D03*
X16876D02*
D03*
X22826D02*
D03*
X19874D02*
D03*
D18*
X26078Y1724D02*
D03*
Y1350D02*
D03*
Y976D02*
D03*
X27022D02*
D03*
Y1724D02*
D03*
D19*
X31927Y748D02*
D03*
X34073D02*
D03*
D20*
X32626Y620D02*
D03*
X33374D02*
D03*
D21*
X32488Y1762D02*
D03*
X32744D02*
D03*
X33000D02*
D03*
X33256D02*
D03*
X33512D02*
D03*
D22*
X29541Y16500D02*
D03*
X28359D02*
D03*
D23*
X28950Y15909D02*
D03*
D24*
X23650Y6191D02*
D03*
Y5009D02*
D03*
D25*
X24241Y5600D02*
D03*
D26*
X20244Y3908D02*
D03*
X21150D02*
D03*
X22056D02*
D03*
D27*
X21150Y6192D02*
D03*
D28*
X26394Y5210D02*
D03*
Y5604D02*
D03*
Y6391D02*
D03*
Y5997D02*
D03*
Y7572D02*
D03*
Y7966D02*
D03*
Y7178D02*
D03*
Y6785D02*
D03*
Y8753D02*
D03*
Y8359D02*
D03*
Y12296D02*
D03*
Y12690D02*
D03*
Y10722D02*
D03*
Y11115D02*
D03*
Y11903D02*
D03*
Y11509D02*
D03*
Y9934D02*
D03*
Y10328D02*
D03*
Y9541D02*
D03*
Y9147D02*
D03*
X38206D02*
D03*
Y9541D02*
D03*
Y10328D02*
D03*
Y9934D02*
D03*
Y11509D02*
D03*
Y11903D02*
D03*
Y11115D02*
D03*
Y10722D02*
D03*
Y12690D02*
D03*
Y12296D02*
D03*
Y8359D02*
D03*
Y8753D02*
D03*
Y6785D02*
D03*
Y7178D02*
D03*
Y7966D02*
D03*
Y7572D02*
D03*
Y5997D02*
D03*
Y6391D02*
D03*
Y5604D02*
D03*
Y5210D02*
D03*
D29*
X32103Y14856D02*
D03*
X31709D02*
D03*
X31316D02*
D03*
X30922D02*
D03*
X30528D02*
D03*
X30135D02*
D03*
X29741D02*
D03*
X29347D02*
D03*
X28954D02*
D03*
X28560D02*
D03*
X32497D02*
D03*
X32891D02*
D03*
X33284D02*
D03*
X33678D02*
D03*
X34072D02*
D03*
X34465D02*
D03*
X34859D02*
D03*
X35253D02*
D03*
X35646D02*
D03*
X36040D02*
D03*
Y3044D02*
D03*
X35646D02*
D03*
X35253D02*
D03*
X34859D02*
D03*
X34465D02*
D03*
X34072D02*
D03*
X33678D02*
D03*
X33284D02*
D03*
X32891D02*
D03*
X32497D02*
D03*
X28560D02*
D03*
X28954D02*
D03*
X29347D02*
D03*
X29741D02*
D03*
X30135D02*
D03*
X30528D02*
D03*
X30922D02*
D03*
X31316D02*
D03*
X31709D02*
D03*
X32103D02*
D03*
D30*
X18648Y6048D02*
X19250Y6650D01*
X8700Y6350D02*
X9524D01*
X7900Y5550D02*
X8700Y6350D01*
X7700Y11550D02*
X8600Y12450D01*
X8700Y5350D02*
X9524D01*
X15900Y3060D02*
X18510D01*
X14124Y900D02*
X14600D01*
X13950Y1074D02*
X14124Y900D01*
X12294Y3300D02*
X12337D01*
X12250D02*
X12294D01*
X11750Y4150D02*
X11850D01*
X11600Y4300D02*
X11750Y4150D01*
X11600Y4300D02*
Y4400D01*
X11674Y4474D01*
X11936D01*
X12337Y3300D02*
X12724Y3686D01*
X14102Y3152D02*
Y3686D01*
X13950Y3000D02*
X14102Y3152D01*
X13950Y2726D02*
Y3000D01*
Y1626D02*
Y2174D01*
X14397Y3144D02*
X14495Y3243D01*
X14397Y1650D02*
Y3144D01*
X14495Y3243D02*
Y3686D01*
X14397Y1650D02*
X14864Y1183D01*
X15717D01*
X16650Y250D01*
X16730Y870D02*
X17700D01*
X16237Y1363D02*
X16730Y870D01*
X14939Y1363D02*
X16237D01*
X14577Y1724D02*
X14939Y1363D01*
X14577Y1724D02*
Y3036D01*
X14692Y3151D01*
Y3686D01*
X17688Y1650D02*
X17700Y1638D01*
X16600Y1650D02*
X17688D01*
X16493Y1543D02*
X16600Y1650D01*
X15013Y1543D02*
X16493D01*
X14757Y1799D02*
X15013Y1543D01*
X14757Y1799D02*
Y2961D01*
X14889Y3094D01*
X14937Y2137D02*
X15224Y1850D01*
X14937Y2887D02*
X15283Y3233D01*
X14937Y2137D02*
Y2887D01*
X15224Y2500D02*
X15400Y2676D01*
Y3000D01*
X15673Y2603D02*
Y2988D01*
Y2603D02*
X15776Y2500D01*
X15660Y3019D02*
Y3199D01*
X15676Y3216D01*
Y3686D01*
X15400Y3000D02*
X15480Y3080D01*
Y3686D01*
X12674Y1250D02*
Y2750D01*
X15283Y3233D02*
Y3376D01*
X14889Y3094D02*
Y3686D01*
X14487Y3678D02*
X14495Y3686D01*
X7700Y7350D02*
X8700Y6350D01*
X35326Y16600D02*
X35826D01*
X35850Y16024D02*
X35850Y16024D01*
X35850Y15750D02*
Y16024D01*
X35646Y15546D02*
X35850Y15750D01*
X23550Y1800D02*
X23850Y2100D01*
X23550Y1476D02*
Y1800D01*
X22950Y924D02*
X23550D01*
X18000Y3600D02*
X18200D01*
X17976Y3624D02*
X18000Y3600D01*
X17976Y3624D02*
Y4100D01*
X11226Y3900D02*
Y4726D01*
X11564Y5064D01*
X11936D01*
X38891Y11509D02*
X39050Y11350D01*
X38206Y11509D02*
X38891D01*
X38790Y12690D02*
X38845Y12745D01*
X38206Y12690D02*
X38790D01*
X36300Y15600D02*
X36550D01*
X36040Y15340D02*
X36300Y15600D01*
X36040Y14856D02*
Y15340D01*
X35646Y14856D02*
Y15546D01*
X14976Y10524D02*
X15000Y10500D01*
X14976Y10524D02*
Y11800D01*
X29550Y15550D02*
X30124Y16124D01*
X30900D01*
X30924Y16700D02*
X31524D01*
X32076D02*
X32100Y16676D01*
Y16150D02*
Y16676D01*
X32900Y16626D02*
X32924Y16650D01*
X32900Y16150D02*
Y16626D01*
X34250Y17100D02*
X35500D01*
X34050Y16900D02*
X34250Y17100D01*
X34050Y16676D02*
Y16900D01*
X33676Y16124D02*
X34050D01*
X33550Y16250D02*
X33676Y16124D01*
X33550Y16250D02*
Y16576D01*
X33476Y16650D02*
X33550Y16576D01*
X10600Y15550D02*
X11850Y14300D01*
Y8250D02*
Y14300D01*
Y8250D02*
X12700Y7400D01*
X15250D01*
X15650Y7000D01*
Y5950D02*
Y7000D01*
Y5950D02*
X15945Y5655D01*
X16464D01*
X10600Y12550D02*
X11300Y11850D01*
X11936Y5655D02*
X12955D01*
X7700Y7350D02*
Y11550D01*
X7900Y4950D02*
Y5550D01*
Y4950D02*
X8600Y4250D01*
X9400D01*
X14150Y5400D02*
X14486Y5064D01*
X16464D01*
X13600Y4900D02*
X13633Y4867D01*
X16464D01*
X9524Y5350D02*
X9524Y5350D01*
X8700Y6350D02*
X8700Y6350D01*
X3850Y11450D02*
X3920Y11520D01*
X16824Y3500D02*
X17424Y4100D01*
X16650Y3500D02*
X16824D01*
X17051Y4474D02*
X17424Y4100D01*
X16464Y4474D02*
X17051D01*
X18480Y4670D02*
X18650Y4500D01*
X16464Y4670D02*
X18480D01*
X18650Y3200D02*
Y4500D01*
X18510Y3060D02*
X18650Y3200D01*
X15900Y3060D02*
Y3100D01*
X16464Y6048D02*
X18648D01*
X38950Y4150D02*
Y4550D01*
X38700Y4800D02*
X38950Y4550D01*
X37950Y2600D02*
X38200D01*
X37100Y1750D02*
X37950Y2600D01*
X36100Y1750D02*
X37100D01*
X35700Y2150D02*
X36100Y1750D01*
X34859Y1341D02*
Y2159D01*
Y1341D02*
X35550Y650D01*
X37300D01*
X37574Y924D01*
Y1626D01*
X36040Y2210D02*
X36100Y2150D01*
X29347Y14856D02*
Y15197D01*
X28560Y14856D02*
Y15190D01*
X32891Y16141D02*
X32900Y16150D01*
X32891Y14856D02*
Y16141D01*
X22070Y870D02*
X22200Y1000D01*
X19983Y870D02*
X22070D01*
X21638Y1638D02*
X21650Y1650D01*
X19983Y1638D02*
X21638D01*
X25350Y8000D02*
Y8350D01*
X25753Y8753D01*
X26394D01*
X32100Y14859D02*
X32103Y14856D01*
X32100Y14859D02*
Y16150D01*
X18194Y1894D02*
X18850Y2550D01*
X17700Y1894D02*
X18194D01*
X20300Y9000D02*
X21850D01*
X22784Y9934D01*
X26394D01*
X16450Y9000D02*
X17700D01*
X14400D02*
X15400D01*
X13905Y8505D02*
X14400Y9000D01*
X13905Y8214D02*
Y8505D01*
X14145Y6245D02*
X14650Y6750D01*
X11936Y6245D02*
X14145D01*
X8250Y3126D02*
X8676D01*
X10600Y5050D01*
Y5400D01*
X10950Y5750D01*
Y5950D01*
X13117Y2858D02*
X13226Y2750D01*
X13117Y2858D02*
Y3686D01*
X24650Y4274D02*
X24674Y4250D01*
X33600Y2350D02*
X33678Y2428D01*
X33512Y2262D02*
X33600Y2350D01*
X12797Y3197D02*
X12920Y3320D01*
X12674Y3074D02*
X12797Y3197D01*
X33678Y2428D02*
Y3044D01*
X33512Y1762D02*
Y2262D01*
X13700Y8950D02*
X13708Y8742D01*
Y8214D02*
Y8742D01*
X19100Y1450D02*
X19168Y1382D01*
X19983D01*
Y1894D02*
X20844D01*
X19983Y1126D02*
X20926D01*
X17150Y2400D02*
X17400Y2150D01*
X17700D01*
X17068Y1382D02*
X17700D01*
X16915Y615D02*
X17700D01*
X19983D02*
X20485D01*
X20600Y500D01*
Y350D02*
Y500D01*
X20500Y250D02*
X20600Y350D01*
X16650Y250D02*
X20500D01*
X10950Y5950D02*
X11442Y6442D01*
X11936D01*
X11211Y6639D02*
X11936D01*
X10674Y4624D02*
X11311Y5261D01*
X11936D01*
X10674Y3900D02*
Y4624D01*
Y3300D02*
Y3900D01*
X24641Y5009D02*
X24650Y5000D01*
X24641Y6191D02*
X24650Y6200D01*
X24241Y5600D02*
X24241Y5600D01*
X28950Y14859D02*
X28954Y14856D01*
X16000Y9650D02*
Y10500D01*
X15676Y9326D02*
X16000Y9650D01*
X15676Y8214D02*
Y9326D01*
X16917Y7033D02*
X17100Y6850D01*
X16464Y7033D02*
X16917D01*
X18300Y6400D02*
Y7024D01*
X17650D02*
X18300D01*
X17445Y7230D02*
X17650Y7024D01*
X16464Y7230D02*
X17445D01*
X13300Y9224D02*
Y9600D01*
X13126Y9050D02*
X13300Y9224D01*
X12920Y8570D02*
X13126Y8776D01*
X12920Y8214D02*
Y8570D01*
X13126Y8776D02*
Y9050D01*
X12674Y2750D02*
Y3074D01*
X12920Y3320D02*
Y3686D01*
X15776Y1850D02*
Y1949D01*
X15224Y2500D02*
X15776Y1949D01*
X15283Y3376D02*
Y3686D01*
X32103Y2803D02*
Y3044D01*
X17700Y1382D02*
X18118D01*
X18300Y1200D01*
Y843D02*
Y1200D01*
X18072Y615D02*
X18300Y843D01*
X17700Y615D02*
X18072D01*
X11300Y7463D02*
Y11850D01*
X11069Y7232D02*
X11300Y7463D01*
D31*
X29541Y15550D02*
Y16500D01*
Y15550D02*
X29741Y15350D01*
X29541Y15391D02*
Y15550D01*
X5125Y6075D02*
X5150Y6050D01*
X4850Y6350D02*
X5125Y6075D01*
X1703Y6350D02*
X4850D01*
X1700D02*
X1703D01*
X6380Y4820D02*
Y7280D01*
X1703Y5350D02*
X3389D01*
X1700D02*
X1703D01*
X3895Y4845D02*
X3920Y4820D01*
X3389Y5350D02*
X3895Y4845D01*
X27576Y2500D02*
X28400D01*
X1679Y12450D02*
X4000D01*
X1600D02*
X1679D01*
Y11450D02*
X3850D01*
X1600D02*
X1679D01*
X6330Y7280D02*
X6380D01*
X3920D02*
X6330D01*
Y4820D02*
X6380D01*
X3920D02*
X6330D01*
X4300Y12750D02*
X5150D01*
X4000Y12450D02*
X4300Y12750D01*
X3920Y13980D02*
X6380D01*
Y11520D02*
Y13980D01*
X3920Y11520D02*
X6380D01*
X28400Y2500D02*
X28560Y2660D01*
X28450Y2450D02*
X28850D01*
X36040Y2210D02*
Y3044D01*
X35646Y2204D02*
X35700Y2150D01*
X35646Y2204D02*
Y3044D01*
X34859Y2159D02*
Y3044D01*
X35250Y2150D02*
X35253Y2347D01*
Y3044D01*
X30319Y2350D02*
X30750D01*
X30135Y2535D02*
X30319Y2350D01*
X30135Y2535D02*
Y3044D01*
X29650Y2400D02*
X29741Y2491D01*
Y3044D01*
X29300Y2450D02*
X29347Y2497D01*
Y3044D01*
X28850Y2450D02*
X28954Y2554D01*
Y3044D01*
X25750Y3650D02*
Y5000D01*
X25960Y5210D01*
X26394D01*
X25650Y6200D02*
X25841Y6391D01*
X26394D01*
X25650Y6200D02*
X25853Y5997D01*
X26394D01*
X25585Y11115D02*
X26394D01*
X25500Y11200D02*
X25585Y11115D01*
X25500Y11200D02*
X25809Y11509D01*
X26394D01*
X28359Y15550D02*
Y16500D01*
Y15391D02*
Y15550D01*
X29347Y15197D02*
X29541Y15391D01*
X28359D02*
X28560Y15190D01*
X8250Y2574D02*
X8876D01*
X9200Y2250D01*
X20244Y3200D02*
Y3908D01*
Y3030D02*
Y3200D01*
X19800Y3050D02*
X19950Y3200D01*
X20244D01*
Y3030D02*
X20374Y2900D01*
X24650Y4274D02*
Y5000D01*
X27024Y2400D02*
Y2500D01*
Y1726D02*
Y2400D01*
X25400Y1150D02*
X25600Y1350D01*
X26078D01*
X25624Y1724D02*
X26078D01*
X24300Y1476D02*
X24724D01*
X24300Y924D02*
X24874Y350D01*
X26224D01*
X27022Y1724D02*
X27024Y1726D01*
X28560Y2660D02*
Y3044D01*
X29574Y600D02*
X30350D01*
X29250Y924D02*
X29574Y600D01*
X28600Y924D02*
X29250D01*
X27950Y1476D02*
X28600D01*
X35326Y16926D02*
X35500Y17100D01*
X35326Y16600D02*
Y16926D01*
Y16000D02*
Y16600D01*
Y15576D02*
Y16000D01*
X35253Y15503D02*
X35326Y15576D01*
X35253Y14856D02*
Y15503D01*
X25200Y12626D02*
X25400D01*
X24500D02*
X25200D01*
X23624D02*
X24350D01*
X25400D02*
X25465Y12690D01*
X26394D01*
X23650Y5009D02*
X24641D01*
X23650Y6191D02*
X24641D01*
X24241Y5600D02*
X25024D01*
X25579Y5604D02*
X26394D01*
X28950Y14859D02*
Y15909D01*
X29741Y14856D02*
Y15350D01*
D32*
X18375Y14850D02*
X19874D01*
X16876D02*
X18375D01*
D33*
X32891Y2576D02*
Y3044D01*
X32744Y2429D02*
X32891Y2576D01*
X32744Y1762D02*
Y2429D01*
X33284Y2576D02*
Y3044D01*
X33000Y2292D02*
X33284Y2576D01*
X33000Y1762D02*
Y2292D01*
D34*
X14600Y900D02*
D03*
X12294Y3300D02*
D03*
X11850Y4150D02*
D03*
X33250Y17100D02*
D03*
Y15850D02*
D03*
X30350Y600D02*
D03*
X23850Y2100D02*
D03*
X19250Y4000D02*
D03*
X18200Y3600D02*
D03*
X39050Y11350D02*
D03*
X38845Y12745D02*
D03*
X36550Y15600D02*
D03*
X11069Y7232D02*
D03*
X12955Y5655D02*
D03*
X9400Y4250D02*
D03*
X13600Y4900D02*
D03*
X14150Y5400D02*
D03*
X15900Y3100D02*
D03*
X16650Y3500D02*
D03*
X38950Y4150D02*
D03*
X38700Y4800D02*
D03*
X38200Y2600D02*
D03*
X37574Y1626D02*
D03*
X34859Y2159D02*
D03*
X35250Y2150D02*
D03*
X35700D02*
D03*
X36100D02*
D03*
X30750Y2350D02*
D03*
X29650Y2400D02*
D03*
X29300Y2450D02*
D03*
X25750Y3650D02*
D03*
X25650Y6200D02*
D03*
X25500Y11200D02*
D03*
X29550Y15550D02*
D03*
X28359D02*
D03*
X32900Y16150D02*
D03*
X22200Y1000D02*
D03*
X21650Y1650D02*
D03*
X25350Y8000D02*
D03*
X32100Y16150D02*
D03*
X18850Y2550D02*
D03*
X19250Y6650D02*
D03*
X20300Y9000D02*
D03*
X17700D02*
D03*
X16450D02*
D03*
X15400D02*
D03*
X14650Y6750D02*
D03*
X19800Y3050D02*
D03*
X25400Y1150D02*
D03*
X25624Y1724D02*
D03*
X24724Y1476D02*
D03*
X28100Y2500D02*
D03*
X33600Y2350D02*
D03*
X35500Y17100D02*
D03*
X23624Y12626D02*
D03*
X13700Y8950D02*
D03*
X19100Y1450D02*
D03*
X20850Y1900D02*
D03*
X20926Y1126D02*
D03*
X17150Y2400D02*
D03*
X17050Y1400D02*
D03*
X16915Y615D02*
D03*
X9200Y2250D02*
D03*
X11211Y6639D02*
D03*
X10674Y4624D02*
D03*
X24641Y6191D02*
D03*
X24650Y5000D02*
D03*
X17100Y6850D02*
D03*
X18300Y6400D02*
D03*
X13300Y9600D02*
D03*
X12797Y3197D02*
D03*
X15400Y3000D02*
D03*
X32100Y2800D02*
D03*
D35*
X9900Y2350D02*
D03*
X20500Y10500D02*
D03*
X13000D02*
D03*
X24150Y16800D02*
D03*
D36*
X10900Y2350D02*
D03*
X11900D02*
D03*
X10600Y16550D02*
D03*
Y15550D02*
D03*
Y14550D02*
D03*
Y13550D02*
D03*
Y11550D02*
D03*
Y12550D02*
D03*
X19500Y10500D02*
D03*
X18500D02*
D03*
X17000D02*
D03*
X16000D02*
D03*
X15000D02*
D03*
X14000D02*
D03*
X25150Y16800D02*
D03*
X31927Y650D02*
D03*
X34073D02*
D03*
D37*
X29781Y13453D02*
D03*
X36100Y9594D02*
D03*
D38*
X37795Y16929D02*
D03*
X1575Y1575D02*
D03*
Y16929D02*
D03*
D39*
X10600Y10550D02*
D03*
D40*
X6330Y4820D02*
D03*
X3870D02*
D03*
X6330Y7280D02*
D03*
X3870D02*
D03*
X6380Y13980D02*
D03*
Y11520D02*
D03*
X3920Y13980D02*
D03*
Y11520D02*
D03*
D41*
X5100Y6050D02*
D03*
X5150Y12750D02*
D03*
D42*
X34112Y1843D02*
D03*
X31888D02*
D03*
D43*
X33955D02*
D03*
X32045D02*
D03*
M02*
