G04 Layer_Color=32896*
%FSLAX24Y24*%
%MOIN*%
G70*
G01*
G75*
%ADD30C,0.0100*%
%ADD48C,0.0079*%
%ADD49C,0.0098*%
%ADD51C,0.0070*%
%ADD53C,0.0120*%
D30*
X8136Y6050D02*
G03*
X8136Y6050I-3036J0D01*
G01*
X8186Y12750D02*
G03*
X8186Y12750I-3036J0D01*
G01*
X18200Y13400D02*
X23000D01*
X29363Y4547D02*
Y14902D01*
Y4547D02*
X30298D01*
X29363Y14902D02*
X36617D01*
X36637Y4547D02*
Y14882D01*
X34570Y4547D02*
X36637D01*
X6972Y313D02*
Y1887D01*
Y313D02*
X7070Y214D01*
X6972Y1887D02*
X7070Y1986D01*
Y214D02*
X7563D01*
X7070Y1986D02*
X7563D01*
X9137Y214D02*
X9630D01*
X9137Y1986D02*
X9630D01*
X9728Y313D02*
Y1887D01*
X9630Y214D02*
X9728Y313D01*
X9630Y1986D02*
X9728Y1887D01*
X7956Y1100D02*
X8153D01*
X8498D02*
X8744D01*
X8498Y559D02*
Y1100D01*
X8153Y559D02*
Y1100D01*
Y559D02*
X8498D01*
X8153Y1100D02*
Y1641D01*
X8498D01*
Y1100D02*
Y1641D01*
D48*
X37318Y3506D02*
Y4294D01*
X37082Y3506D02*
Y4294D01*
X37318D01*
X37082Y3506D02*
X37318D01*
D49*
X36875Y3349D02*
G03*
X36875Y3349I-49J0D01*
G01*
D51*
X33700Y4150D02*
X33750Y4200D01*
X33850D01*
X33900Y4150D01*
Y4100D01*
X33850Y4050D01*
X33750D01*
X33700Y4000D01*
Y3950D01*
X33750Y3900D01*
X33850D01*
X33900Y3950D01*
X33600Y3900D02*
X33500D01*
X33550D01*
Y4100D01*
X33600D01*
X33350Y3900D02*
Y4100D01*
X33300D01*
X33250Y4050D01*
Y3900D01*
Y4050D01*
X33200Y4100D01*
X33150Y4050D01*
Y3900D01*
X32550Y4150D02*
X32600Y4200D01*
X32700D01*
X32750Y4150D01*
Y3950D01*
X32700Y3900D01*
X32600D01*
X32550Y3950D01*
X32400Y4100D02*
X32301D01*
X32251Y4050D01*
Y3900D01*
X32400D01*
X32450Y3950D01*
X32400Y4000D01*
X32251D01*
X32151Y4100D02*
Y3900D01*
Y4000D01*
X32101Y4050D01*
X32051Y4100D01*
X32001D01*
X31651Y4200D02*
Y3900D01*
X31801D01*
X31851Y3950D01*
Y4050D01*
X31801Y4100D01*
X31651D01*
X8200Y2500D02*
X8250D01*
X8350Y2400D01*
X8250Y2300D01*
X8200D01*
X8350Y2400D02*
X8500D01*
Y2200D02*
Y2100D01*
Y2150D01*
X8200D01*
X8250Y2200D01*
X38150Y4700D02*
Y4450D01*
X38100Y4400D01*
X38000D01*
X37950Y4450D01*
Y4700D01*
X37650D02*
X37850D01*
Y4550D01*
X37750Y4600D01*
X37700D01*
X37650Y4550D01*
Y4450D01*
X37700Y4400D01*
X37800D01*
X37850Y4450D01*
X8120Y9410D02*
Y9710D01*
X7970D01*
X7920Y9660D01*
Y9560D01*
X7970Y9510D01*
X8120D01*
X7820Y9660D02*
X7770Y9710D01*
X7670D01*
X7620Y9660D01*
Y9610D01*
X7670Y9560D01*
X7720D01*
X7670D01*
X7620Y9510D01*
Y9460D01*
X7670Y9410D01*
X7770D01*
X7820Y9460D01*
X8170Y16110D02*
Y16410D01*
X8020D01*
X7970Y16360D01*
Y16260D01*
X8020Y16210D01*
X8170D01*
X7670Y16110D02*
X7870D01*
X7670Y16310D01*
Y16360D01*
X7720Y16410D01*
X7820D01*
X7870Y16360D01*
X10450Y700D02*
X10500Y750D01*
X10600D01*
X10650Y700D01*
Y500D01*
X10600Y450D01*
X10500D01*
X10450Y500D01*
X10350D02*
X10300Y450D01*
X10200D01*
X10150Y500D01*
Y700D01*
X10200Y750D01*
X10300D01*
X10350Y700D01*
Y650D01*
X10300Y600D01*
X10150D01*
X6250Y1810D02*
X6300Y1860D01*
X6400D01*
X6450Y1810D01*
Y1610D01*
X6400Y1560D01*
X6300D01*
X6250Y1610D01*
X6150Y1810D02*
X6100Y1860D01*
X6000D01*
X5950Y1810D01*
Y1760D01*
X6000Y1710D01*
X5950Y1660D01*
Y1610D01*
X6000Y1560D01*
X6100D01*
X6150Y1610D01*
Y1660D01*
X6100Y1710D01*
X6150Y1760D01*
Y1810D01*
X6100Y1710D02*
X6000D01*
D53*
X23000Y13600D02*
Y14200D01*
X22700D01*
X22600Y14100D01*
Y13900D01*
X22700Y13800D01*
X23000D01*
X22800D02*
X22600Y13600D01*
X22000Y14200D02*
X22400D01*
Y13600D01*
X22000D01*
X22400Y13900D02*
X22200D01*
X21401Y13700D02*
Y14100D01*
X21500Y14200D01*
X21700D01*
X21800Y14100D01*
Y13700D01*
X21700Y13600D01*
X21500D01*
X21600Y13800D02*
X21401Y13600D01*
X21500D02*
X21401Y13700D01*
X21201Y14200D02*
Y13700D01*
X21101Y13600D01*
X20901D01*
X20801Y13700D01*
Y14200D01*
X20601D02*
X20401D01*
X20501D01*
Y13600D01*
X20601D01*
X20401D01*
X20101D02*
Y14200D01*
X19801D01*
X19701Y14100D01*
Y13900D01*
X19801Y13800D01*
X20101D01*
X19901D02*
X19701Y13600D01*
X19101Y14200D02*
X19501D01*
Y13600D01*
X19101D01*
X19501Y13900D02*
X19301D01*
X18501Y14100D02*
X18601Y14200D01*
X18801D01*
X18901Y14100D01*
Y14000D01*
X18801Y13900D01*
X18601D01*
X18501Y13800D01*
Y13700D01*
X18601Y13600D01*
X18801D01*
X18901Y13700D01*
X18302Y14000D02*
X18202D01*
Y13900D01*
X18302D01*
Y14000D01*
Y13700D02*
X18202D01*
Y13600D01*
X18302D01*
Y13700D01*
X23000Y11600D02*
Y11000D01*
Y11300D01*
X22600D01*
Y11600D01*
Y11000D01*
X22100Y11600D02*
X22300D01*
X22400Y11500D01*
Y11100D01*
X22300Y11000D01*
X22100D01*
X22000Y11100D01*
Y11500D01*
X22100Y11600D01*
X21800Y11000D02*
Y11600D01*
X21500D01*
X21401Y11500D01*
Y11300D01*
X21500Y11200D01*
X21800D01*
X20801Y11600D02*
X21201D01*
Y11000D01*
X20801D01*
X21201Y11300D02*
X21001D01*
X22600Y12300D02*
X22700Y12400D01*
X22900D01*
X23000Y12300D01*
Y12200D01*
X22900Y12100D01*
X22700D01*
X22600Y12000D01*
Y11900D01*
X22700Y11800D01*
X22900D01*
X23000Y11900D01*
X22400Y12400D02*
X22200D01*
X22300D01*
Y11800D01*
X22400D01*
X22200D01*
X21900D02*
Y12400D01*
X21700Y12200D01*
X21500Y12400D01*
Y11800D01*
X20901Y12300D02*
X21001Y12400D01*
X21201D01*
X21301Y12300D01*
Y11900D01*
X21201Y11800D01*
X21001D01*
X20901Y11900D01*
X20401Y12400D02*
X20601D01*
X20701Y12300D01*
Y11900D01*
X20601Y11800D01*
X20401D01*
X20301Y11900D01*
Y12300D01*
X20401Y12400D01*
X20101Y11800D02*
Y12400D01*
X19901Y12200D01*
X19701Y12400D01*
Y11800D01*
X18501Y12300D02*
X18601Y12400D01*
X18801D01*
X18901Y12300D01*
Y12200D01*
X18801Y12100D01*
X18601D01*
X18501Y12000D01*
Y11900D01*
X18601Y11800D01*
X18801D01*
X18901Y11900D01*
X18302Y12400D02*
X18102D01*
X18202D01*
Y11800D01*
X18302D01*
X18102D01*
X17802D02*
Y12400D01*
X17602Y12200D01*
X17402Y12400D01*
Y11800D01*
X16802Y12400D02*
X17202D01*
Y12100D01*
X17002Y12200D01*
X16902D01*
X16802Y12100D01*
Y11900D01*
X16902Y11800D01*
X17102D01*
X17202Y11900D01*
X16602Y12300D02*
X16502Y12400D01*
X16302D01*
X16202Y12300D01*
Y12200D01*
X16302Y12100D01*
X16402D01*
X16302D01*
X16202Y12000D01*
Y11900D01*
X16302Y11800D01*
X16502D01*
X16602Y11900D01*
X15602Y11800D02*
X16002D01*
X15602Y12200D01*
Y12300D01*
X15702Y12400D01*
X15902D01*
X16002Y12300D01*
X15402D02*
X15302Y12400D01*
X15103D01*
X15003Y12300D01*
Y11900D01*
X15103Y11800D01*
X15302D01*
X15402Y11900D01*
Y12300D01*
X14803Y11800D02*
Y12200D01*
X14603Y12400D01*
X14403Y12200D01*
Y11800D01*
Y12100D01*
X14803D01*
X22600Y13100D02*
X22700Y13200D01*
X22900D01*
X23000Y13100D01*
Y13000D01*
X22900Y12900D01*
X22700D01*
X22600Y12800D01*
Y12700D01*
X22700Y12600D01*
X22900D01*
X23000Y12700D01*
X22400Y13200D02*
X22000D01*
X22200D01*
Y12600D01*
X21800D02*
Y13200D01*
X21600Y13000D01*
X21401Y13200D01*
Y12600D01*
X20801Y13200D02*
X21201D01*
Y12900D01*
X21001D01*
X21201D01*
Y12600D01*
X20301D02*
Y13200D01*
X20601Y12900D01*
X20201D01*
X20001Y12600D02*
X19801D01*
X19901D01*
Y13200D01*
X20001Y13100D01*
X19501D02*
X19401Y13200D01*
X19201D01*
X19101Y13100D01*
Y12700D01*
X19201Y12600D01*
X19401D01*
X19501Y12700D01*
Y13100D01*
X18901Y12600D02*
Y13200D01*
X18601D01*
X18501Y13100D01*
Y12900D01*
X18601Y12800D01*
X18901D01*
X18701D02*
X18501Y12600D01*
X18302Y13200D02*
Y12600D01*
X18002D01*
X17902Y12700D01*
Y12800D01*
X18002Y12900D01*
X18302D01*
X18002D01*
X17902Y13000D01*
Y13100D01*
X18002Y13200D01*
X18302D01*
X17702D02*
X17302D01*
X17502D01*
Y12600D01*
X16702Y13100D02*
X16802Y13200D01*
X17002D01*
X17102Y13100D01*
Y12700D01*
X17002Y12600D01*
X16802D01*
X16702Y12700D01*
Y12900D01*
X16902D01*
X900Y3450D02*
X1000Y3350D01*
Y3150D01*
X900Y3050D01*
X500D01*
X400Y3150D01*
Y3350D01*
X500Y3450D01*
X400Y3750D02*
Y3950D01*
X500Y4050D01*
X700D01*
X800Y3950D01*
Y3750D01*
X700Y3650D01*
X500D01*
X400Y3750D01*
Y4250D02*
X800D01*
Y4550D01*
X700Y4649D01*
X400D01*
X1000Y5249D02*
X400D01*
Y4949D01*
X500Y4849D01*
X700D01*
X800Y4949D01*
Y5249D01*
Y5449D02*
X500D01*
X400Y5549D01*
Y5849D01*
X800D01*
Y6449D02*
Y6149D01*
X700Y6049D01*
X500D01*
X400Y6149D01*
Y6449D01*
X900Y6749D02*
X800D01*
Y6649D01*
Y6849D01*
Y6749D01*
X500D01*
X400Y6849D01*
Y7149D02*
Y7349D01*
Y7249D01*
X800D01*
Y7149D01*
Y7649D02*
X400Y7848D01*
X800Y8048D01*
X400Y8248D02*
Y8448D01*
Y8348D01*
X800D01*
Y8248D01*
X900Y8848D02*
X800D01*
Y8748D01*
Y8948D01*
Y8848D01*
X500D01*
X400Y8948D01*
X800Y9248D02*
X500D01*
X400Y9348D01*
Y9648D01*
X300D01*
X200Y9548D01*
Y9448D01*
X400Y9648D02*
X800D01*
X250Y11900D02*
X850D01*
Y12200D01*
X750Y12300D01*
X550D01*
X450Y12200D01*
Y11900D01*
X1050Y12500D02*
X450D01*
X750D01*
Y12900D01*
X1050D01*
X450D01*
M02*
