G04 Layer_Color=16711935*
%FSLAX24Y24*%
%MOIN*%
G70*
G01*
G75*
%ADD58C,0.0680*%
%ADD59R,0.0395X0.0434*%
%ADD75C,0.0300*%
%ADD76R,0.0671X0.0671*%
%ADD77C,0.0671*%
%ADD78C,0.0710*%
%ADD79C,0.2442*%
%ADD80R,0.0671X0.0671*%
%ADD81C,0.1064*%
%ADD82C,0.0867*%
%ADD83R,0.0867X0.0655*%
%ADD84C,0.0552*%
%ADD85R,0.0474X0.0986*%
%ADD86R,0.0671X0.1241*%
%ADD87R,0.0828X0.1104*%
%ADD88R,0.0277X0.0237*%
D58*
X8679Y12332D02*
D03*
Y13332D02*
D03*
Y11332D02*
D03*
X1679Y13332D02*
D03*
Y12332D02*
D03*
Y11332D02*
D03*
X1703Y5232D02*
D03*
Y6232D02*
D03*
Y7232D02*
D03*
X8703Y5232D02*
D03*
Y7232D02*
D03*
Y6232D02*
D03*
X23600Y10950D02*
D03*
Y9250D02*
D03*
X18375Y14850D02*
D03*
D59*
X10124Y1100D02*
D03*
X10676D02*
D03*
X6476Y1050D02*
D03*
X5924D02*
D03*
D75*
X14600Y900D02*
D03*
X12294Y3300D02*
D03*
X11850Y4150D02*
D03*
X33250Y17100D02*
D03*
Y15850D02*
D03*
X30350Y600D02*
D03*
X23850Y2100D02*
D03*
X19250Y4000D02*
D03*
X18200Y3600D02*
D03*
X39050Y11350D02*
D03*
X38845Y12745D02*
D03*
X36550Y15600D02*
D03*
X11069Y7232D02*
D03*
X12955Y5655D02*
D03*
X9400Y4250D02*
D03*
X13600Y4900D02*
D03*
X14150Y5400D02*
D03*
X15900Y3100D02*
D03*
X16650Y3500D02*
D03*
X38950Y4150D02*
D03*
X38700Y4800D02*
D03*
X38200Y2600D02*
D03*
X37574Y1626D02*
D03*
X34859Y2159D02*
D03*
X35250Y2150D02*
D03*
X35700D02*
D03*
X36100D02*
D03*
X30750Y2350D02*
D03*
X29650Y2400D02*
D03*
X29300Y2450D02*
D03*
X25750Y3650D02*
D03*
X25650Y6200D02*
D03*
X25500Y11200D02*
D03*
X29550Y15550D02*
D03*
X28359D02*
D03*
X32900Y16150D02*
D03*
X22200Y1000D02*
D03*
X21650Y1650D02*
D03*
X25350Y8000D02*
D03*
X32100Y16150D02*
D03*
X18850Y2550D02*
D03*
X19250Y6650D02*
D03*
X20300Y9000D02*
D03*
X17700D02*
D03*
X16450D02*
D03*
X15400D02*
D03*
X14650Y6750D02*
D03*
X19800Y3050D02*
D03*
X25400Y1150D02*
D03*
X25624Y1724D02*
D03*
X24724Y1476D02*
D03*
X28100Y2500D02*
D03*
X33600Y2350D02*
D03*
X35500Y17100D02*
D03*
X23624Y12626D02*
D03*
X13700Y8950D02*
D03*
X19100Y1450D02*
D03*
X20850Y1900D02*
D03*
X20926Y1126D02*
D03*
X17150Y2400D02*
D03*
X17050Y1400D02*
D03*
X16915Y615D02*
D03*
X9200Y2250D02*
D03*
X11211Y6639D02*
D03*
X10674Y4624D02*
D03*
X24641Y6191D02*
D03*
X24650Y5000D02*
D03*
X17100Y6850D02*
D03*
X18300Y6400D02*
D03*
X13300Y9600D02*
D03*
X12797Y3197D02*
D03*
X15400Y3000D02*
D03*
X32100Y2800D02*
D03*
D76*
X9900Y2350D02*
D03*
X20500Y10500D02*
D03*
X13000D02*
D03*
X24150Y16800D02*
D03*
D77*
X10900Y2350D02*
D03*
X11900D02*
D03*
X10600Y16550D02*
D03*
Y15550D02*
D03*
Y14550D02*
D03*
Y13550D02*
D03*
Y11550D02*
D03*
Y12550D02*
D03*
X19500Y10500D02*
D03*
X18500D02*
D03*
X17000D02*
D03*
X16000D02*
D03*
X15000D02*
D03*
X14000D02*
D03*
X25150Y16800D02*
D03*
X31927Y650D02*
D03*
X34073D02*
D03*
D78*
X29781Y13453D02*
D03*
X36100Y9594D02*
D03*
D79*
X37795Y16929D02*
D03*
X1575Y1575D02*
D03*
Y16929D02*
D03*
D80*
X10600Y10550D02*
D03*
D81*
X6330Y4820D02*
D03*
X3870D02*
D03*
X6330Y7280D02*
D03*
X3870D02*
D03*
X6380Y13980D02*
D03*
Y11520D02*
D03*
X3920Y13980D02*
D03*
Y11520D02*
D03*
D82*
X5100Y6050D02*
D03*
X5150Y12750D02*
D03*
D83*
X34112Y1843D02*
D03*
X31888D02*
D03*
D84*
X33955D02*
D03*
X32045D02*
D03*
D85*
X30670Y5000D02*
D03*
X31170D02*
D03*
X31670D02*
D03*
X32170D02*
D03*
X32670D02*
D03*
X33170D02*
D03*
X33670D02*
D03*
X34170D02*
D03*
D86*
X37041Y13150D02*
D03*
X28950D02*
D03*
D87*
X7504Y1100D02*
D03*
X9196D02*
D03*
D88*
X37574Y3644D02*
D03*
Y3900D02*
D03*
Y4156D02*
D03*
X36826D02*
D03*
Y3900D02*
D03*
Y3644D02*
D03*
M02*
