%FSTAX24Y24*%
%MOIN*%
%SFA1B1*%

%IPPOS*%
%ADD13C,0.060000*%
%ADD14R,0.031500X0.035400*%
%ADD30C,0.010000*%
%ADD31C,0.020000*%
%ADD32C,0.040000*%
%ADD34C,0.022000*%
%ADD35R,0.059100X0.059100*%
%ADD36C,0.059100*%
%ADD37C,0.063000*%
%ADD38C,0.236200*%
%ADD39R,0.059100X0.059100*%
%ADD40C,0.098400*%
%ADD41C,0.078700*%
%ADD42R,0.078700X0.057500*%
%ADD43C,0.047200*%
%ADD44R,0.039400X0.090600*%
%ADD45R,0.059100X0.116100*%
%ADD46R,0.074800X0.102400*%
%ADD47R,0.019700X0.015700*%
%LNsensorplatformv3-1*%
%LPD*%
G36*
X037636Y018317D02*
X037806Y018284D01*
X0378Y018234*
X037795*
X037591Y018218*
X037392Y01817*
X037203Y018092*
X037028Y017985*
X036872Y017852*
X036739Y017696*
X036632Y017522*
X036554Y017332*
X036506Y017133*
X03649Y016929*
X036506Y016725*
X036554Y016526*
X036632Y016337*
X036739Y016162*
X036872Y016006*
X037028Y015873*
X037203Y015766*
X037392Y015688*
X037591Y01564*
X037795Y015624*
X037999Y01564*
X038199Y015688*
X038388Y015766*
X038562Y015873*
X038718Y016006*
X038851Y016162*
X038958Y016337*
X039037Y016526*
X039084Y016725*
X0391Y016929*
Y016933*
X03915Y01694*
X039184Y01677*
X039196Y016585*
X039197Y016535*
Y016486*
Y011558*
X039153Y011534*
X039132Y011548*
X0391Y011554*
Y01135*
Y011146*
X039132Y011152*
X039153Y011166*
X039197Y011142*
Y005519*
X039147Y005498*
X039023Y005622*
Y0059*
X03901Y005966*
X038973Y006023*
X038773Y006223*
X038716Y00626*
X03865Y006273*
X03335*
X033284Y00626*
X033227Y006223*
X033048Y006043*
X03301Y005987*
X032997Y00592*
Y005573*
X030354*
Y004427*
X031497*
Y00408*
X03151Y004013*
X031548Y003957*
X031777Y003727*
X031834Y00369*
X0319Y003677*
X033096*
X034476Y002297*
X034457Y00225*
X033842*
X033804Y0023*
X033396*
X033402Y002268*
X033449Y002199*
X033518Y002152*
X033598Y002136*
Y001866*
X033595Y001843*
X033598Y00182*
Y001436*
X034626*
Y002004*
X034676Y002019*
X034693Y001993*
X034769Y001942*
X034859Y001925*
X034949Y001942*
X035025Y001993*
X035027Y001996*
X035076*
X035084Y001984*
X03516Y001933*
X035237Y001918*
X035977Y001177*
X036034Y00114*
X0361Y001127*
X03805*
X038116Y00114*
X038173Y001177*
X038773Y001777*
X03881Y001834*
X038823Y0019*
Y003929*
X038859Y003948*
X038873Y003951*
X0389Y003946*
Y00415*
X039*
Y003946*
X039032Y003952*
X039101Y003999*
X039147Y004066*
X039151Y004067*
X039197Y004058*
Y001969*
X039198Y00196*
X039184Y001734*
X039138Y001503*
X039062Y001281*
X038958Y00107*
X038828Y000874*
X038672Y000698*
X038496Y000543*
X0383Y000412*
X038089Y000308*
X037867Y000232*
X037636Y000187*
X037451Y000174*
X037402Y000173*
X037352*
X027739*
X027718Y000223*
X029663Y002168*
X02974Y002183*
X029816Y002234*
X029867Y00231*
X029885Y0024*
X029867Y00249*
X029816Y002566*
X02974Y002617*
X02965Y002635*
X02956Y002617*
X029495Y002573*
X029466Y002616*
X02939Y002667*
X0293Y002685*
X02921Y002667*
X029134Y002616*
X029083Y00254*
X029068Y002463*
X027428Y000823*
X022419*
X022392Y000873*
X022417Y00091*
X022432Y000987*
X023595Y00215*
X023641Y002125*
X023636Y0021*
X023652Y002018*
X023699Y001949*
X023768Y001902*
X0238Y001896*
Y0021*
X02385*
Y00215*
X024054*
X024048Y002182*
X024001Y002251*
X023932Y002298*
X02385Y002314*
X023825Y002309*
X0238Y002355*
X033023Y011577*
X03306Y011634*
X033073Y0117*
Y015631*
X033123Y015658*
X03316Y015633*
X03325Y015615*
X03334Y015633*
X033416Y015684*
X033467Y01576*
X033485Y01585*
X033467Y01594*
X033423Y016005*
Y016945*
X033467Y01701*
X033485Y0171*
X033467Y01719*
X033416Y017266*
X03334Y017317*
X03325Y017335*
X03316Y017317*
X033084Y017266*
X033033Y01719*
X033015Y0171*
X033033Y01701*
X033077Y016945*
Y016369*
X033027Y016342*
X03299Y016367*
X0329Y016385*
X03281Y016367*
X032734Y016316*
X032683Y01624*
X032665Y01615*
X032683Y01606*
X032727Y015995*
Y011772*
X022187Y001232*
X02211Y001217*
X022034Y001166*
X021983Y00109*
X021965Y001*
X021983Y00091*
X022008Y000873*
X021981Y000823*
X018472*
X018123Y001173*
X018066Y00121*
X018Y001223*
X017245*
X017218Y001273*
X017248Y001318*
X017254Y00135*
X016846*
X016852Y001318*
X016882Y001273*
X016855Y001223*
X016572*
X016473Y001322*
Y003078*
X016663Y003268*
X01674Y003283*
X016816Y003334*
X01685Y003385*
X016911Y003394*
X018868Y001437*
X018883Y00136*
X018934Y001284*
X01901Y001233*
X0191Y001215*
X01919Y001233*
X019266Y001284*
X019317Y00136*
X019335Y00145*
X019317Y00154*
X019266Y001616*
X01919Y001667*
X019113Y001682*
X013873Y006922*
Y008795*
X013917Y00886*
X013935Y00895*
X013917Y00904*
X013866Y009116*
X01379Y009167*
X0137Y009185*
X01361Y009167*
X013534Y009116*
X013483Y00904*
X013465Y00895*
X013483Y00886*
X013527Y008795*
Y00685*
X01354Y006784*
X013577Y006727*
X016544Y003761*
X016535Y0037*
X016484Y003666*
X016433Y00359*
X016418Y003513*
X016177Y003273*
X016149Y003231*
X016103Y003225*
X016092Y003227*
X016066Y003266*
X01599Y003317*
X0159Y003335*
X01581Y003317*
X015734Y003266*
X015683Y00319*
X015665Y0031*
X015683Y00301*
X015727Y002945*
Y002472*
X015127Y001873*
X01509Y001816*
X015077Y00175*
Y0006*
X01509Y000534*
X015127Y000477*
X015382Y000223*
X015361Y000173*
X001969*
X00196Y000172*
X001734Y000187*
X001564Y00022*
X00157Y00027*
X001575*
X001779Y000286*
X001978Y000334*
X002167Y000412*
X002342Y000519*
X002498Y000652*
X002631Y000808*
X002738Y000982*
X002816Y001172*
X002864Y001371*
X00288Y001575*
X002864Y001779*
X002816Y001978*
X002738Y002167*
X002631Y002342*
X002498Y002498*
X002342Y002631*
X002167Y002738*
X001978Y002816*
X001779Y002864*
X001575Y00288*
X001371Y002864*
X001172Y002816*
X000982Y002738*
X000808Y002631*
X000652Y002498*
X000519Y002342*
X000412Y002167*
X000334Y001978*
X000286Y001779*
X00027Y001575*
Y00157*
X00022Y001564*
X000187Y001734*
X000174Y001919*
X000173Y001969*
Y002018*
Y016535*
X000172Y016544*
X000187Y01677*
X00022Y01694*
X00027Y016933*
Y016929*
X000286Y016725*
X000334Y016526*
X000412Y016337*
X000519Y016162*
X000652Y016006*
X000808Y015873*
X000982Y015766*
X001172Y015688*
X001371Y01564*
X001575Y015624*
X001779Y01564*
X001978Y015688*
X002167Y015766*
X002342Y015873*
X002498Y016006*
X002631Y016162*
X002738Y016337*
X002816Y016526*
X002864Y016725*
X00288Y016929*
X002864Y017133*
X002816Y017332*
X002738Y017522*
X002631Y017696*
X002498Y017852*
X002342Y017985*
X002167Y018092*
X001978Y01817*
X001779Y018218*
X001575Y018234*
X00157*
X001564Y018284*
X001734Y018317*
X001919Y01833*
X001969Y018331*
X002018*
X037402*
X03741Y018332*
X037636Y018317*
G37*
G36*
X038677Y005828D02*
Y00555D01*
X03869Y005484*
X038727Y005427*
X038877Y005278*
Y004995*
X038827Y004968*
X038782Y004998*
X03875Y005004*
Y0048*
X0387*
Y00475*
X038496*
X038502Y004718*
X038549Y004649*
X038618Y004602*
X03864Y004598*
X038655Y00455*
X038434Y004329*
X037792*
Y004355*
X037356*
Y003957*
Y003701*
Y003445*
X037401*
Y001781*
X037357Y001716*
X03734Y001626*
X037357Y001536*
X03737Y001517*
X037346Y001473*
X036172*
X035762Y001883*
X035777Y001931*
X03579Y001933*
X035866Y001984*
X035875Y001998*
X035925*
X035934Y001984*
X03601Y001933*
X0361Y001915*
X03619Y001933*
X036266Y001984*
X036317Y00206*
X036332Y002137*
X036573Y002377*
X03661Y002434*
X036623Y0025*
Y003445*
X037044*
Y003843*
X037024*
Y00385*
X036826*
X036628*
Y003843*
X036608*
Y003817*
X036528*
X036373Y003972*
Y00475*
X03636Y004816*
X036323Y004873*
X036073Y005123*
X036016Y00516*
X03595Y005173*
X034487*
Y005573*
X033854*
Y005553*
X03372*
Y005*
Y004447*
X033854*
Y004427*
X034487*
Y004827*
X035878*
X036027Y004678*
Y0039*
X03604Y003834*
X036077Y003777*
X036277Y003578*
Y002572*
X036087Y002382*
X03601Y002367*
X035934Y002316*
X035885Y002332*
X035873Y002342*
Y0037*
X03586Y003766*
X035823Y003823*
X035493Y004153*
X035436Y00419*
X03537Y004203*
X032592*
X032414Y004381*
X032433Y004427*
X033487*
Y004447*
X03362*
Y005*
Y005553*
X033487*
Y005573*
X033344*
Y005849*
X033422Y005927*
X038578*
X038677Y005828*
G37*
G36*
X016127Y002876D02*
Y00125D01*
X01614Y001184*
X016177Y001127*
X016377Y000927*
X016434Y00089*
X0165Y000877*
X0169*
X016904Y000827*
X016833Y000812*
X016763Y000766*
X016717Y000697*
X01671Y000665*
X017119*
X017112Y000697*
X017066Y000766*
X016997Y000812*
X016925Y000827*
X01693Y000877*
X017928*
X018277Y000527*
X018284Y000523*
X018268Y000473*
X017126*
X017102Y000517*
X017112Y000533*
X017119Y000565*
X01671*
X016717Y000533*
X016727Y000517*
X016703Y000473*
X015622*
X015423Y000672*
Y001678*
X016023Y002277*
X01606Y002334*
X016073Y0024*
Y002899*
X016077Y002902*
X016127Y002876*
G37*
%LNsensorplatformv3-2*%
%LPC*%
G36*
X03555Y017304D02*
Y01715D01*
X035704*
X035698Y017182*
X035651Y017251*
X035582Y017298*
X03555Y017304*
G37*
G36*
X03545D02*
X035418Y017298D01*
X035349Y017251*
X035302Y017182*
X035296Y01715*
X03545*
Y017304*
G37*
G36*
X035704Y01705D02*
X03555D01*
Y016896*
X035582Y016902*
X035651Y016949*
X035698Y017018*
X035704Y01705*
G37*
G36*
X03545D02*
X035296D01*
X035302Y017018*
X035349Y016949*
X035418Y016902*
X03545Y016896*
Y01705*
G37*
G36*
X0252Y017192D02*
Y01685D01*
X025542*
X025535Y016903*
X025495Y016999*
X025432Y017082*
X025349Y017145*
X025253Y017185*
X0252Y017192*
G37*
G36*
X0251D02*
X025047Y017185D01*
X024951Y017145*
X024868Y017082*
X024805Y016999*
X024765Y016903*
X024758Y01685*
X0251*
Y017192*
G37*
G36*
X01065Y016942D02*
Y0166D01*
X010992*
X010985Y016653*
X010945Y016749*
X010882Y016832*
X010799Y016895*
X010703Y016935*
X01065Y016942*
G37*
G36*
X01055D02*
X010497Y016935D01*
X010401Y016895*
X010318Y016832*
X010255Y016749*
X010215Y016653*
X010208Y0166*
X01055*
Y016942*
G37*
G36*
X025542Y01675D02*
X0252D01*
Y016408*
X025253Y016415*
X025349Y016455*
X025432Y016518*
X025495Y016601*
X025535Y016697*
X025542Y01675*
G37*
G36*
X0251D02*
X024758D01*
X024765Y016697*
X024805Y016601*
X024868Y016518*
X024951Y016455*
X025047Y016415*
X0251Y016408*
Y01675*
G37*
G36*
X024565Y017215D02*
X023735D01*
Y016385*
X024565*
Y017215*
G37*
G36*
X010992Y0165D02*
X01065D01*
Y016158*
X010703Y016165*
X010799Y016205*
X010882Y016268*
X010945Y016351*
X010985Y016447*
X010992Y0165*
G37*
G36*
X01055D02*
X010208D01*
X010215Y016447*
X010255Y016351*
X010318Y016268*
X010401Y016205*
X010497Y016165*
X01055Y016158*
Y0165*
G37*
G36*
X0366Y015804D02*
Y01565D01*
X036754*
X036748Y015682*
X036701Y015751*
X036632Y015798*
X0366Y015804*
G37*
G36*
X0365D02*
X036468Y015798D01*
X036399Y015751*
X036352Y015682*
X036346Y01565*
X0365*
Y015804*
G37*
G36*
X0296Y015754D02*
Y0156D01*
X029754*
X029748Y015632*
X029701Y015701*
X029632Y015748*
X0296Y015754*
G37*
G36*
X0295D02*
X029468Y015748D01*
X029399Y015701*
X029352Y015632*
X029346Y0156*
X0295*
Y015754*
G37*
G36*
X028409D02*
Y0156D01*
X028564*
X028557Y015632*
X028511Y015701*
X028441Y015748*
X028409Y015754*
G37*
G36*
X028309D02*
X028278Y015748D01*
X028208Y015701*
X028162Y015632*
X028155Y0156*
X028309*
Y015754*
G37*
G36*
X036754Y01555D02*
X0366D01*
Y015396*
X036632Y015402*
X036701Y015449*
X036748Y015518*
X036754Y01555*
G37*
G36*
X0365D02*
X036346D01*
X036352Y015518*
X036399Y015449*
X036468Y015402*
X0365Y015396*
Y01555*
G37*
G36*
X029754Y0155D02*
X0296D01*
Y015346*
X029632Y015352*
X029701Y015399*
X029748Y015468*
X029754Y0155*
G37*
G36*
X0295D02*
X029346D01*
X029352Y015468*
X029399Y015399*
X029468Y015352*
X0295Y015346*
Y0155*
G37*
G36*
X028564D02*
X028409D01*
Y015346*
X028441Y015352*
X028511Y015399*
X028557Y015468*
X028564Y0155*
G37*
G36*
X028309D02*
X028155D01*
X028162Y015468*
X028208Y015399*
X028278Y015352*
X028309Y015346*
Y0155*
G37*
G36*
X0106Y015969D02*
X010492Y015955D01*
X010391Y015913*
X010304Y015846*
X010237Y015759*
X010195Y015658*
X010181Y01555*
X010195Y015442*
X010237Y015341*
X010304Y015254*
X010391Y015187*
X010492Y015145*
X0106Y015131*
X010708Y015145*
X010809Y015187*
X010896Y015254*
X010963Y015341*
X011005Y015442*
X011019Y01555*
X011005Y015658*
X010963Y015759*
X010896Y015846*
X010809Y015913*
X010708Y015955*
X0106Y015969*
G37*
G36*
X018425Y015247D02*
Y0149D01*
X018772*
X018765Y014954*
X018724Y015052*
X01866Y015135*
X018577Y015199*
X018479Y01524*
X018425Y015247*
G37*
G36*
X018325D02*
X018271Y01524D01*
X018173Y015199*
X01809Y015135*
X018026Y015052*
X017985Y014954*
X017978Y0149*
X018325*
Y015247*
G37*
G36*
X018772Y0148D02*
X018425D01*
Y014453*
X018479Y01446*
X018577Y014501*
X01866Y014565*
X018724Y014648*
X018765Y014746*
X018772Y0148*
G37*
G36*
X018325D02*
X017978D01*
X017985Y014746*
X018026Y014648*
X01809Y014565*
X018173Y014501*
X018271Y01446*
X018325Y014453*
Y0148*
G37*
G36*
X0106Y014969D02*
X010492Y014955D01*
X010391Y014913*
X010304Y014846*
X010237Y014759*
X010195Y014658*
X010181Y01455*
X010195Y014442*
X010237Y014341*
X010304Y014254*
X010391Y014187*
X010492Y014145*
X0106Y014131*
X010708Y014145*
X010809Y014187*
X010896Y014254*
X010963Y014341*
X011005Y014442*
X011019Y01455*
X011005Y014658*
X010963Y014759*
X010896Y014846*
X010809Y014913*
X010708Y014955*
X0106Y014969*
G37*
G36*
X029781Y013891D02*
X029667Y013877D01*
X029561Y013833*
X02947Y013763*
X029415Y013691*
X029365Y013708*
Y01385*
X028535*
Y012449*
X029365*
Y013198*
X029415Y013214*
X02947Y013143*
X029561Y013073*
X029667Y013029*
X029781Y013014*
X029894Y013029*
X03Y013073*
X030091Y013143*
X030161Y013233*
X030204Y013339*
X030219Y013453*
X030204Y013566*
X030161Y013672*
X030091Y013763*
X03Y013833*
X029894Y013877*
X029781Y013891*
G37*
G36*
X008729Y013729D02*
Y013382D01*
X009076*
X009068Y013436*
X009028Y013534*
X008964Y013617*
X00888Y013681*
X008783Y013722*
X008729Y013729*
G37*
G36*
X008629D02*
X008574Y013722D01*
X008477Y013681*
X008393Y013617*
X008329Y013534*
X008289Y013436*
X008282Y013382*
X008629*
Y013729*
G37*
G36*
X00638Y014595D02*
X00626Y014584D01*
X006145Y014549*
X006039Y014492*
X005945Y014415*
X005869Y014322*
X005812Y014216*
X005777Y0141*
X005765Y01398*
X005777Y01386*
X005812Y013745*
X005869Y013639*
X005945Y013545*
X006039Y013469*
X006145Y013412*
X00626Y013377*
X00638Y013365*
X0065Y013377*
X006616Y013412*
X006722Y013469*
X006815Y013545*
X006892Y013639*
X006949Y013745*
X006984Y01386*
X006995Y01398*
X006984Y0141*
X006949Y014216*
X006892Y014322*
X006815Y014415*
X006722Y014492*
X006616Y014549*
X0065Y014584*
X00638Y014595*
G37*
G36*
X00392D02*
X0038Y014584D01*
X003684Y014549*
X003578Y014492*
X003485Y014415*
X003408Y014322*
X003351Y014216*
X003316Y0141*
X003305Y01398*
X003316Y01386*
X003351Y013745*
X003408Y013639*
X003485Y013545*
X003578Y013469*
X003684Y013412*
X0038Y013377*
X00392Y013365*
X00404Y013377*
X004155Y013412*
X004261Y013469*
X004355Y013545*
X004431Y013639*
X004488Y013745*
X004523Y01386*
X004535Y01398*
X004523Y0141*
X004488Y014216*
X004431Y014322*
X004355Y014415*
X004261Y014492*
X004155Y014549*
X00404Y014584*
X00392Y014595*
G37*
G36*
X0106Y013969D02*
X010492Y013955D01*
X010391Y013913*
X010304Y013846*
X010237Y013759*
X010195Y013658*
X010181Y01355*
X010195Y013442*
X010237Y013341*
X010304Y013254*
X010391Y013187*
X010492Y013145*
X0106Y013131*
X010708Y013145*
X010809Y013187*
X010896Y013254*
X010963Y013341*
X011005Y013442*
X011019Y01355*
X011005Y013658*
X010963Y013759*
X010896Y013846*
X010809Y013913*
X010708Y013955*
X0106Y013969*
G37*
G36*
X009076Y013282D02*
X008729D01*
Y012935*
X008783Y012942*
X00888Y012982*
X008964Y013047*
X009028Y01313*
X009068Y013227*
X009076Y013282*
G37*
G36*
X008629D02*
X008282D01*
X008289Y013227*
X008329Y01313*
X008393Y013047*
X008477Y012982*
X008574Y012942*
X008629Y012935*
Y013282*
G37*
G36*
X001679Y013756D02*
X001569Y013741D01*
X001467Y013699*
X001379Y013631*
X001312Y013544*
X00127Y013442*
X001255Y013332*
X00127Y013222*
X001312Y01312*
X001379Y013032*
X001467Y012965*
X001569Y012923*
X001679Y012908*
X001788Y012923*
X001891Y012965*
X001978Y013032*
X002046Y01312*
X002088Y013222*
X002102Y013332*
X002088Y013442*
X002046Y013544*
X001978Y013631*
X001891Y013699*
X001788Y013741*
X001679Y013756*
G37*
G36*
X038895Y012949D02*
Y012795D01*
X039049*
X039043Y012827*
X038996Y012896*
X038927Y012943*
X038895Y012949*
G37*
G36*
X038795D02*
X038763Y012943D01*
X038694Y012896*
X038647Y012827*
X038641Y012795*
X038795*
Y012949*
G37*
G36*
X023674Y01283D02*
Y012676D01*
X023829*
X023822Y012708*
X023776Y012777*
X023706Y012823*
X023674Y01283*
G37*
G36*
X023574D02*
X023542Y012823D01*
X023473Y012777*
X023427Y012708*
X02342Y012676*
X023574*
Y01283*
G37*
G36*
X039049Y012695D02*
X038895D01*
Y012541*
X038927Y012547*
X038996Y012594*
X039043Y012663*
X039049Y012695*
G37*
G36*
X038795D02*
X038641D01*
X038647Y012663*
X038694Y012594*
X038763Y012547*
X038795Y012541*
Y012695*
G37*
G36*
X037456Y01385D02*
X036625D01*
Y012449*
X037456*
Y01385*
G37*
G36*
X023829Y012576D02*
X023674D01*
Y012421*
X023706Y012428*
X023776Y012474*
X023822Y012544*
X023829Y012576*
G37*
G36*
X023574D02*
X02342D01*
X023427Y012544*
X023473Y012474*
X023542Y012428*
X023574Y012421*
Y012576*
G37*
G36*
X00515Y013268D02*
X005016Y01325D01*
X004891Y013199*
X004784Y013116*
X004701Y013009*
X00465Y012884*
X004632Y01275*
X00465Y012616*
X004701Y012491*
X004784Y012384*
X004891Y012301*
X005016Y01225*
X00515Y012232*
X005284Y01225*
X005409Y012301*
X005516Y012384*
X005599Y012491*
X00565Y012616*
X005668Y01275*
X00565Y012884*
X005599Y013009*
X005516Y013116*
X005409Y013199*
X005284Y01325*
X00515Y013268*
G37*
G36*
X0106Y012969D02*
X010492Y012955D01*
X010391Y012913*
X010304Y012846*
X010237Y012759*
X010195Y012658*
X010181Y01255*
X010195Y012442*
X010237Y012341*
X010304Y012254*
X010391Y012187*
X010492Y012145*
X0106Y012131*
X010708Y012145*
X010809Y012187*
X010896Y012254*
X010963Y012341*
X011005Y012442*
X011019Y01255*
X011005Y012658*
X010963Y012759*
X010896Y012846*
X010809Y012913*
X010708Y012955*
X0106Y012969*
G37*
G36*
X008679Y012756D02*
X008569Y012741D01*
X008467Y012699*
X008379Y012631*
X008312Y012544*
X00827Y012442*
X008255Y012332*
X00827Y012222*
X008312Y01212*
X008379Y012032*
X008467Y011965*
X008569Y011923*
X008679Y011908*
X008788Y011923*
X008891Y011965*
X008978Y012032*
X009046Y01212*
X009088Y012222*
X009102Y012332*
X009088Y012442*
X009046Y012544*
X008978Y012631*
X008891Y012699*
X008788Y012741*
X008679Y012756*
G37*
G36*
X001679D02*
X001569Y012741D01*
X001467Y012699*
X001379Y012631*
X001312Y012544*
X00127Y012442*
X001255Y012332*
X00127Y012222*
X001312Y01212*
X001379Y012032*
X001467Y011965*
X001569Y011923*
X001679Y011908*
X001788Y011923*
X001891Y011965*
X001978Y012032*
X002046Y01212*
X002088Y012222*
X002102Y012332*
X002088Y012442*
X002046Y012544*
X001978Y012631*
X001891Y012699*
X001788Y012741*
X001679Y012756*
G37*
G36*
X039Y011554D02*
X038968Y011548D01*
X038899Y011501*
X038852Y011432*
X038846Y0114*
X039*
Y011554*
G37*
G36*
X02555Y011404D02*
Y01125D01*
X025704*
X025698Y011282*
X025651Y011351*
X025582Y011398*
X02555Y011404*
G37*
G36*
X02545D02*
X025418Y011398D01*
X025349Y011351*
X025302Y011282*
X025296Y01125*
X02545*
Y011404*
G37*
G36*
X039Y0113D02*
X038846D01*
X038852Y011268*
X038899Y011199*
X038968Y011152*
X039Y011146*
Y0113*
G37*
G36*
X0106Y011969D02*
X010492Y011955D01*
X010391Y011913*
X010304Y011846*
X010237Y011759*
X010195Y011658*
X010181Y01155*
X010195Y011442*
X010237Y011341*
X010304Y011254*
X010391Y011187*
X010492Y011145*
X0106Y011131*
X010708Y011145*
X010809Y011187*
X010896Y011254*
X010963Y011341*
X011005Y011442*
X011019Y01155*
X011005Y011658*
X010963Y011759*
X010896Y011846*
X010809Y011913*
X010708Y011955*
X0106Y011969*
G37*
G36*
X025704Y01115D02*
X02555D01*
Y010996*
X025582Y011002*
X025651Y011049*
X025698Y011118*
X025704Y01115*
G37*
G36*
X02545D02*
X025296D01*
X025302Y011118*
X025349Y011049*
X025418Y011002*
X02545Y010996*
Y01115*
G37*
G36*
X001679Y011756D02*
X001569Y011741D01*
X001467Y011699*
X001379Y011631*
X001312Y011544*
X00127Y011442*
X001255Y011332*
X00127Y011222*
X001312Y01112*
X001379Y011032*
X001467Y010965*
X001569Y010923*
X001679Y010908*
X001788Y010923*
X001891Y010965*
X001978Y011032*
X002046Y01112*
X002088Y011222*
X002102Y011332*
X002088Y011442*
X002046Y011544*
X001978Y011631*
X001891Y011699*
X001788Y011741*
X001679Y011756*
G37*
G36*
X00638Y012135D02*
X00626Y012123D01*
X006145Y012088*
X006039Y012031*
X005945Y011955*
X005869Y011861*
X005812Y011755*
X005777Y01164*
X005765Y01152*
X005777Y0114*
X005812Y011284*
X005869Y011178*
X005945Y011085*
X006039Y011008*
X006145Y010951*
X00626Y010916*
X00638Y010905*
X0065Y010916*
X006616Y010951*
X006722Y011008*
X006815Y011085*
X006892Y011178*
X006949Y011284*
X006984Y0114*
X006995Y01152*
X006984Y01164*
X006949Y011755*
X006892Y011861*
X006815Y011955*
X006722Y012031*
X006616Y012088*
X0065Y012123*
X00638Y012135*
G37*
G36*
X00392D02*
X0038Y012123D01*
X003684Y012088*
X003578Y012031*
X003485Y011955*
X003408Y011861*
X003351Y011755*
X003316Y01164*
X003305Y01152*
X003316Y0114*
X003351Y011284*
X003408Y011178*
X003485Y011085*
X003578Y011008*
X003684Y010951*
X0038Y010916*
X00392Y010905*
X00404Y010916*
X004155Y010951*
X004261Y011008*
X004355Y011085*
X004431Y011178*
X004488Y011284*
X004523Y0114*
X004535Y01152*
X004523Y01164*
X004488Y011755*
X004431Y011861*
X004355Y011955*
X004261Y012031*
X004155Y012088*
X00404Y012123*
X00392Y012135*
G37*
G36*
X01855Y010892D02*
Y01055D01*
X018892*
X018885Y010603*
X018845Y010699*
X018782Y010782*
X018699Y010845*
X018603Y010885*
X01855Y010892*
G37*
G36*
X01405D02*
Y01055D01*
X014392*
X014385Y010603*
X014345Y010699*
X014282Y010782*
X014199Y010845*
X014103Y010885*
X01405Y010892*
G37*
G36*
X01395D02*
X013897Y010885D01*
X013801Y010845*
X013718Y010782*
X013655Y010699*
X013615Y010603*
X013608Y01055*
X01395*
Y010892*
G37*
G36*
X01845D02*
X018397Y010885D01*
X018301Y010845*
X018218Y010782*
X018155Y010699*
X018115Y010603*
X018108Y01055*
X01845*
Y010892*
G37*
G36*
X011015Y010965D02*
X010185D01*
Y010135*
X011015*
Y010965*
G37*
G36*
X018892Y01045D02*
X01855D01*
Y010108*
X018603Y010115*
X018699Y010155*
X018782Y010218*
X018845Y010301*
X018885Y010397*
X018892Y01045*
G37*
G36*
X014392D02*
X01405D01*
Y010108*
X014103Y010115*
X014199Y010155*
X014282Y010218*
X014345Y010301*
X014385Y010397*
X014392Y01045*
G37*
G36*
X01395D02*
X013608D01*
X013615Y010397*
X013655Y010301*
X013718Y010218*
X013801Y010155*
X013897Y010115*
X01395Y010108*
Y01045*
G37*
G36*
X01845D02*
X018108D01*
X018115Y010397*
X018155Y010301*
X018218Y010218*
X018301Y010155*
X018397Y010115*
X01845Y010108*
Y01045*
G37*
G36*
X013415Y010915D02*
X012585D01*
Y010085*
X013415*
Y010915*
G37*
G36*
X016Y010919D02*
X015892Y010905D01*
X015791Y010863*
X015704Y010796*
X015637Y010709*
X015595Y010608*
X015581Y0105*
X015595Y010392*
X015637Y010291*
X015704Y010204*
X015791Y010137*
X015892Y010095*
X016Y010081*
X016108Y010095*
X016209Y010137*
X016296Y010204*
X016363Y010291*
X016405Y010392*
X016419Y0105*
X016405Y010608*
X016363Y010709*
X016296Y010796*
X016209Y010863*
X016108Y010905*
X016Y010919*
G37*
G36*
X01335Y009804D02*
Y00965D01*
X013504*
X013498Y009682*
X013451Y009751*
X013382Y009798*
X01335Y009804*
G37*
G36*
X01325D02*
X013218Y009798D01*
X013149Y009751*
X013102Y009682*
X013096Y00965*
X01325*
Y009804*
G37*
G36*
X013504Y00955D02*
X01335D01*
Y009396*
X013382Y009402*
X013451Y009449*
X013498Y009518*
X013504Y00955*
G37*
G36*
X01325D02*
X013096D01*
X013102Y009518*
X013149Y009449*
X013218Y009402*
X01325Y009396*
Y00955*
G37*
G36*
X0203Y009235D02*
X02021Y009217D01*
X020145Y009173*
X017855*
X01779Y009217*
X0177Y009235*
X01761Y009217*
X017534Y009166*
X017483Y00909*
X017465Y009*
X017483Y00891*
X017534Y008834*
X01761Y008783*
X0177Y008765*
X01779Y008783*
X017855Y008827*
X020145*
X02021Y008783*
X0203Y008765*
X02039Y008783*
X020466Y008834*
X020517Y00891*
X020535Y009*
X020517Y00909*
X020466Y009166*
X02039Y009217*
X0203Y009235*
G37*
G36*
X0361Y010033D02*
X035986Y010018D01*
X03588Y009974*
X035789Y009905*
X03572Y009814*
X035676Y009708*
X035661Y009594*
X035676Y009481*
X03572Y009375*
X035789Y009284*
X03588Y009215*
X035986Y009171*
X0361Y009156*
X036213Y009171*
X036319Y009215*
X03641Y009284*
X03648Y009375*
X036523Y009481*
X036538Y009594*
X036523Y009708*
X03648Y009814*
X03641Y009905*
X036319Y009974*
X036213Y010018*
X0361Y010033*
G37*
G36*
X0236Y011374D02*
X02349Y011359D01*
X023388Y011317*
X0233Y01125*
X023233Y011162*
X023191Y01106*
X023176Y01095*
X023191Y01084*
X023233Y010738*
X023277Y010681*
Y009519*
X023233Y009462*
X023191Y00936*
X023176Y00925*
X023191Y00914*
X023233Y009038*
X0233Y00895*
X023388Y008883*
X02349Y008841*
X0236Y008826*
X02371Y008841*
X023812Y008883*
X0239Y00895*
X023967Y009038*
X024009Y00914*
X024024Y00925*
X024009Y00936*
X023967Y009462*
X023923Y009519*
Y010681*
X023967Y010738*
X024009Y01084*
X024024Y01095*
X024009Y01106*
X023967Y011162*
X0239Y01125*
X023812Y011317*
X02371Y011359*
X0236Y011374*
G37*
G36*
X015Y010919D02*
X014892Y010905D01*
X014791Y010863*
X014704Y010796*
X014637Y010709*
X014595Y010608*
X014581Y0105*
X014595Y010392*
X014637Y010291*
X014704Y010204*
X014791Y010137*
X014827Y010122*
Y007172*
X014637Y006982*
X01456Y006967*
X014484Y006916*
X014433Y00684*
X014415Y00675*
X014433Y00666*
X014484Y006584*
X01456Y006533*
X01465Y006515*
X01474Y006533*
X014816Y006584*
X014867Y00666*
X014882Y006737*
X015123Y006977*
X01516Y007034*
X015173Y0071*
Y008835*
X015223Y00885*
X015234Y008834*
X01531Y008783*
X0154Y008765*
X01549Y008783*
X015555Y008827*
X016295*
X01636Y008783*
X01645Y008765*
X01654Y008783*
X016616Y008834*
X016667Y00891*
X016685Y009*
X016667Y00909*
X016616Y009166*
X01654Y009217*
X01645Y009235*
X01636Y009217*
X016295Y009173*
X015555*
X01549Y009217*
X0154Y009235*
X01531Y009217*
X015234Y009166*
X015223Y00915*
X015173Y009165*
Y010122*
X015209Y010137*
X015296Y010204*
X015363Y010291*
X015405Y010392*
X015419Y0105*
X015405Y010608*
X015363Y010709*
X015296Y010796*
X015209Y010863*
X015108Y010905*
X015Y010919*
G37*
G36*
X008753Y007629D02*
Y007282D01*
X0091*
X009093Y007336*
X009053Y007434*
X008988Y007517*
X008905Y007581*
X008808Y007622*
X008753Y007629*
G37*
G36*
X008653D02*
X008599Y007622D01*
X008501Y007581*
X008418Y007517*
X008354Y007434*
X008313Y007336*
X008306Y007282*
X008653*
Y007629*
G37*
G36*
X0091Y007182D02*
X008753D01*
Y006835*
X008808Y006842*
X008905Y006882*
X008988Y006947*
X009053Y00703*
X009093Y007127*
X0091Y007182*
G37*
G36*
X008653D02*
X008306D01*
X008313Y007127*
X008354Y00703*
X008418Y006947*
X008501Y006882*
X008599Y006842*
X008653Y006835*
Y007182*
G37*
G36*
X001703Y007656D02*
X001594Y007641D01*
X001491Y007599*
X001404Y007531*
X001336Y007444*
X001294Y007342*
X00128Y007232*
X001294Y007122*
X001336Y00702*
X001404Y006932*
X001491Y006865*
X001594Y006823*
X001703Y006808*
X001813Y006823*
X001915Y006865*
X002003Y006932*
X00207Y00702*
X002112Y007122*
X002127Y007232*
X002112Y007342*
X00207Y007444*
X002003Y007531*
X001915Y007599*
X001813Y007641*
X001703Y007656*
G37*
G36*
X00633Y007895D02*
X00621Y007884D01*
X006095Y007849*
X005989Y007792*
X005895Y007715*
X005819Y007622*
X005762Y007516*
X005727Y0074*
X005715Y00728*
X005727Y00716*
X005762Y007045*
X005819Y006939*
X005895Y006845*
X005989Y006769*
X006095Y006712*
X00621Y006677*
X00633Y006665*
X00645Y006677*
X006566Y006712*
X006672Y006769*
X006765Y006845*
X006842Y006939*
X006899Y007045*
X006934Y00716*
X006945Y00728*
X006934Y0074*
X006899Y007516*
X006842Y007622*
X006765Y007715*
X006672Y007792*
X006566Y007849*
X00645Y007884*
X00633Y007895*
G37*
G36*
X00387D02*
X00375Y007884D01*
X003634Y007849*
X003528Y007792*
X003435Y007715*
X003358Y007622*
X003301Y007516*
X003266Y0074*
X003255Y00728*
X003266Y00716*
X003301Y007045*
X003358Y006939*
X003435Y006845*
X003528Y006769*
X003634Y006712*
X00375Y006677*
X00387Y006665*
X00399Y006677*
X004105Y006712*
X004211Y006769*
X004305Y006845*
X004381Y006939*
X004438Y007045*
X004473Y00716*
X004485Y00728*
X004473Y0074*
X004438Y007516*
X004381Y007622*
X004305Y007715*
X004211Y007792*
X004105Y007849*
X00399Y007884*
X00387Y007895*
G37*
G36*
X017Y010919D02*
X016892Y010905D01*
X016791Y010863*
X016704Y010796*
X016637Y010709*
X016595Y010608*
X016581Y0105*
X016595Y010392*
X016637Y010291*
X016704Y010204*
X016791Y010137*
X016892Y010095*
X016927Y010091*
Y007005*
X016883Y00694*
X016865Y00685*
X016883Y00676*
X016934Y006684*
X01701Y006633*
X0171Y006615*
X01719Y006633*
X017266Y006684*
X017317Y00676*
X017335Y00685*
X017317Y00694*
X017273Y007005*
Y010186*
X017296Y010204*
X017363Y010291*
X017405Y010392*
X017419Y0105*
X017405Y010608*
X017363Y010709*
X017296Y010796*
X017209Y010863*
X017108Y010905*
X017Y010919*
G37*
G36*
X01835Y006604D02*
Y00645D01*
X018504*
X018498Y006482*
X018451Y006551*
X018382Y006598*
X01835Y006604*
G37*
G36*
X01825D02*
X018218Y006598D01*
X018149Y006551*
X018102Y006482*
X018096Y00645*
X01825*
Y006604*
G37*
G36*
X0195Y010919D02*
X019392Y010905D01*
X019291Y010863*
X019204Y010796*
X019137Y010709*
X019095Y010608*
X019081Y0105*
X019095Y010392*
X019137Y010291*
X019204Y010204*
X019291Y010137*
X019392Y010095*
X0195Y010081*
X019608Y010095*
X019645Y01011*
X020227Y009527*
X020284Y00949*
X02035Y009477*
X020828*
X020977Y009328*
Y008622*
X019237Y006882*
X01916Y006867*
X019084Y006816*
X019033Y00674*
X019015Y00665*
X019033Y00656*
X019084Y006484*
X01916Y006433*
X01925Y006415*
X01934Y006433*
X019416Y006484*
X019467Y00656*
X019482Y006637*
X021273Y008427*
X02131Y008484*
X021323Y00855*
Y0094*
X02131Y009466*
X021273Y009523*
X021023Y009773*
X020966Y00981*
X0209Y009823*
X020422*
X020207Y010039*
X020226Y010085*
X020915*
Y010915*
X020085*
Y010226*
X020039Y010207*
X01989Y010355*
X019905Y010392*
X019919Y0105*
X019905Y010608*
X019863Y010709*
X019796Y010796*
X019709Y010863*
X019608Y010905*
X0195Y010919*
G37*
G36*
X0257Y006404D02*
Y00625D01*
X025854*
X025848Y006282*
X025801Y006351*
X025732Y006398*
X0257Y006404*
G37*
G36*
X024691Y006395D02*
Y006241D01*
X024845*
X024838Y006272*
X024792Y006342*
X024722Y006388*
X024691Y006395*
G37*
G36*
X024591D02*
X024559Y006388D01*
X024489Y006342*
X024443Y006272*
X024436Y006241*
X024591*
Y006395*
G37*
G36*
X018504Y00635D02*
X01835D01*
Y006196*
X018382Y006202*
X018451Y006249*
X018498Y006318*
X018504Y00635*
G37*
G36*
X01825D02*
X018096D01*
X018102Y006318*
X018149Y006249*
X018218Y006202*
X01825Y006196*
Y00635*
G37*
G36*
X025854Y00615D02*
X0257D01*
Y005996*
X025732Y006002*
X025801Y006049*
X025848Y006118*
X025854Y00615*
G37*
G36*
X02535Y008235D02*
X02526Y008217D01*
X025184Y008166*
X025133Y00809*
X025115Y008*
X025133Y00791*
X025177Y007845*
Y005422*
X024871Y005116*
X024822Y005121*
X024801Y005151*
X024732Y005198*
X0247Y005204*
Y005*
X02465*
Y00495*
X024446*
X024452Y004918*
X024499Y004849*
X024529Y004828*
X024534Y004779*
X021637Y001882*
X02156Y001867*
X021484Y001816*
X021433Y00174*
X021415Y00165*
X021433Y00156*
X021484Y001484*
X02156Y001433*
X02165Y001415*
X02174Y001433*
X021816Y001484*
X021867Y00156*
X021882Y001637*
X025473Y005227*
X02551Y005284*
X025523Y00535*
Y005979*
X025559Y005998*
X025573Y006001*
X0256Y005996*
Y0062*
Y006404*
X025573Y006399*
X025559Y006402*
X025523Y006421*
Y007845*
X025567Y00791*
X025585Y008*
X025567Y00809*
X025516Y008166*
X02544Y008217*
X02535Y008235*
G37*
G36*
X024845Y006141D02*
X024691D01*
Y005986*
X024722Y005993*
X024792Y006039*
X024838Y006109*
X024845Y006141*
G37*
G36*
X024591D02*
X024436D01*
X024443Y006109*
X024489Y006039*
X024559Y005993*
X024591Y005986*
Y006141*
G37*
G36*
X001703Y006656D02*
X001594Y006641D01*
X001491Y006599*
X001404Y006531*
X001336Y006444*
X001294Y006342*
X00128Y006232*
X001294Y006122*
X001336Y00602*
X001404Y005932*
X001491Y005865*
X001594Y005823*
X001703Y005808*
X001813Y005823*
X001915Y005865*
X002003Y005932*
X00207Y00602*
X002112Y006122*
X002127Y006232*
X002112Y006342*
X00207Y006444*
X002003Y006531*
X001915Y006599*
X001813Y006641*
X001703Y006656*
G37*
G36*
X0051Y006568D02*
X004966Y00655D01*
X004841Y006499*
X004734Y006416*
X004651Y006309*
X0046Y006184*
X004582Y00605*
X0046Y005916*
X004651Y005791*
X004734Y005684*
X004841Y005601*
X004966Y00555*
X0051Y005532*
X005234Y00555*
X005359Y005601*
X005466Y005684*
X005549Y005791*
X0056Y005916*
X005618Y00605*
X0056Y006184*
X005549Y006309*
X005466Y006416*
X005359Y006499*
X005234Y00655*
X0051Y006568*
G37*
G36*
X008679Y011756D02*
X008569Y011741D01*
X008467Y011699*
X008379Y011631*
X008312Y011544*
X00827Y011442*
X008255Y011332*
X00827Y011222*
X008312Y01112*
X008379Y011032*
X008427Y010996*
Y01015*
X00844Y010084*
X008477Y010027*
X010805Y0077*
X009124Y006019*
X009081Y006047*
X009112Y006122*
X009127Y006232*
X009112Y006342*
X00907Y006444*
X009003Y006531*
X008915Y006599*
X008813Y006641*
X008703Y006656*
X008594Y006641*
X008491Y006599*
X008404Y006531*
X008336Y006444*
X008294Y006342*
X00828Y006232*
X008294Y006122*
X008336Y00602*
X008404Y005932*
X008491Y005865*
X008594Y005823*
X008703Y005808*
X008813Y005823*
X008888Y005854*
X008916Y005811*
X008754Y005649*
X008703Y005656*
X008594Y005641*
X008491Y005599*
X008404Y005531*
X008336Y005444*
X008294Y005342*
X00828Y005232*
X008294Y005122*
X008336Y00502*
X008404Y004932*
X008491Y004865*
X008594Y004823*
X008703Y004808*
X008813Y004823*
X008915Y004865*
X009003Y004932*
X00907Y00502*
X009112Y005122*
X009127Y005232*
X009112Y005342*
X00907Y005444*
X009056Y005461*
X010791Y007196*
X010845Y007179*
X010852Y007142*
X010903Y007066*
X010979Y007015*
X011069Y006997*
X011159Y007015*
X01123Y007062*
X01173Y007075*
X012781Y006023*
Y005809*
X012738Y005744*
X01272Y005655*
X012738Y005565*
X012789Y005489*
X012865Y005438*
X012955Y00542*
X013044Y005438*
X013121Y005489*
X013171Y005565*
X013189Y005655*
X013171Y005744*
X013128Y005809*
Y006095*
X013115Y006162*
X013077Y006218*
X011923Y007373*
X011921Y007374*
X011919Y007376*
X011893Y007393*
X011866Y00741*
X011864Y007411*
X011862Y007412*
X011831Y007417*
X0118Y007423*
X011798*
X011796*
X011218Y007409*
X011159Y007449*
X011154*
X011134Y007504*
X011152Y007527*
X012128*
X013977Y005678*
Y005555*
X013933Y00549*
X013915Y0054*
X013933Y00531*
X013984Y005234*
X01406Y005183*
X01415Y005165*
X01424Y005183*
X014316Y005234*
X014367Y00531*
X014385Y0054*
X014367Y00549*
X014323Y005555*
Y00575*
X01431Y005816*
X014273Y005873*
X012323Y007823*
X012266Y00786*
X0122Y007873*
X011122*
X008773Y010222*
Y010921*
X008788Y010923*
X008891Y010965*
X008978Y011032*
X009046Y01112*
X009088Y011222*
X009102Y011332*
X009088Y011442*
X009046Y011544*
X008978Y011631*
X008891Y011699*
X008788Y011741*
X008679Y011756*
G37*
G36*
X0246Y005204D02*
X024568Y005198D01*
X024499Y005151*
X024452Y005082*
X024446Y00505*
X0246*
Y005204*
G37*
G36*
X001703Y005656D02*
X001594Y005641D01*
X001491Y005599*
X001404Y005531*
X001336Y005444*
X001294Y005342*
X00128Y005232*
X001294Y005122*
X001336Y00502*
X001404Y004932*
X001491Y004865*
X001594Y004823*
X001703Y004808*
X001813Y004823*
X001915Y004865*
X002003Y004932*
X00207Y00502*
X002112Y005122*
X002127Y005232*
X002112Y005342*
X00207Y005444*
X002003Y005531*
X001915Y005599*
X001813Y005641*
X001703Y005656*
G37*
G36*
X011211Y006873D02*
X011121Y006856D01*
X011045Y006805*
X011016Y006761*
X006317Y002062*
X006268Y001989*
X006251Y001904*
Y001383*
X006216Y001347*
X006198*
X006156Y001327*
X005974*
Y00105*
Y000773*
X006156*
X006198Y000753*
X006224*
X006753*
Y000826*
X00701*
Y000468*
X007998*
Y001732*
X00701*
Y001274*
X006753*
Y001347*
X0067*
Y001811*
X009119Y004229*
X009173Y004213*
X009183Y00416*
X009234Y004084*
X00931Y004033*
X0094Y004015*
X00949Y004033*
X009566Y004084*
X009617Y00416*
X009632Y004237*
X010122Y004727*
X010435*
X010471Y004677*
X01047Y004674*
X010879*
X010878Y004677*
X010914Y004727*
X013445*
X01351Y004683*
X0136Y004665*
X01369Y004683*
X013766Y004734*
X013817Y00481*
X013835Y0049*
X013817Y00499*
X013766Y005066*
X01369Y005117*
X0136Y005135*
X01351Y005117*
X013445Y005073*
X01005*
X010029Y005069*
X010005Y005115*
X011333Y006444*
X011377Y006473*
X011428Y006549*
X011446Y006639*
X011428Y006729*
X011377Y006805*
X011301Y006856*
X011211Y006873*
G37*
G36*
X010879Y004574D02*
X010724D01*
Y00442*
X010756Y004427*
X010826Y004473*
X010872Y004542*
X010879Y004574*
G37*
G36*
X010624D02*
X01047D01*
X010477Y004542*
X010523Y004473*
X010592Y004427*
X010624Y00442*
Y004574*
G37*
G36*
X00633Y005435D02*
X00621Y005423D01*
X006095Y005388*
X005989Y005331*
X005895Y005255*
X005819Y005161*
X005762Y005055*
X005727Y00494*
X005715Y00482*
X005727Y0047*
X005762Y004584*
X005819Y004478*
X005895Y004385*
X005989Y004308*
X006095Y004251*
X00621Y004216*
X00633Y004205*
X00645Y004216*
X006566Y004251*
X006672Y004308*
X006765Y004385*
X006842Y004478*
X006899Y004584*
X006934Y0047*
X006945Y00482*
X006934Y00494*
X006899Y005055*
X006842Y005161*
X006765Y005255*
X006672Y005331*
X006566Y005388*
X00645Y005423*
X00633Y005435*
G37*
G36*
X00387D02*
X00375Y005423D01*
X003634Y005388*
X003528Y005331*
X003435Y005255*
X003358Y005161*
X003301Y005055*
X003266Y00494*
X003255Y00482*
X003266Y0047*
X003301Y004584*
X003358Y004478*
X003435Y004385*
X003528Y004308*
X003634Y004251*
X00375Y004216*
X00387Y004205*
X00399Y004216*
X004105Y004251*
X004211Y004308*
X004305Y004385*
X004381Y004478*
X004438Y004584*
X004473Y0047*
X004485Y00482*
X004473Y00494*
X004438Y005055*
X004381Y005161*
X004305Y005255*
X004211Y005331*
X004105Y005388*
X00399Y005423*
X00387Y005435*
G37*
G36*
X01185Y004385D02*
X01176Y004367D01*
X011695Y004323*
X01115*
X011084Y00431*
X011027Y004273*
X009777Y003023*
X00974Y002966*
X009727Y0029*
Y002765*
X009485*
Y001935*
X010315*
Y002765*
X010073*
Y002828*
X011222Y003977*
X011695*
X01176Y003933*
X01185Y003915*
X01194Y003933*
X012016Y003984*
X012067Y00406*
X012085Y00415*
X012067Y00424*
X012016Y004316*
X01194Y004367*
X01185Y004385*
G37*
G36*
X01925Y004235D02*
X01916Y004217D01*
X019084Y004166*
X019033Y00409*
X019018Y004013*
X018778Y003773*
X018355*
X01829Y003817*
X0182Y003835*
X01811Y003817*
X018034Y003766*
X017983Y00369*
X017965Y0036*
X017983Y00351*
X018034Y003434*
X01811Y003383*
X0182Y003365*
X01829Y003383*
X018355Y003427*
X01885*
X018916Y00344*
X018973Y003477*
X019263Y003768*
X01934Y003783*
X019416Y003834*
X019467Y00391*
X019485Y004*
X019467Y00409*
X019416Y004166*
X01934Y004217*
X01925Y004235*
G37*
G36*
X0258Y003854D02*
Y0037D01*
X025954*
X025948Y003732*
X025901Y003801*
X025832Y003848*
X0258Y003854*
G37*
G36*
X0257D02*
X025668Y003848D01*
X025599Y003801*
X025552Y003732*
X025546Y0037*
X0257*
Y003854*
G37*
G36*
X025954Y0036D02*
X0258D01*
Y003446*
X025832Y003452*
X025901Y003499*
X025948Y003568*
X025954Y0036*
G37*
G36*
X0257D02*
X025546D01*
X025552Y003568*
X025599Y003499*
X025668Y003452*
X0257Y003446*
Y0036*
G37*
G36*
X012847Y003402D02*
Y003247D01*
X013002*
X012995Y003279*
X012949Y003349*
X012879Y003395*
X012847Y003402*
G37*
G36*
X012747D02*
X012716Y003395D01*
X012646Y003349*
X0126Y003279*
X012593Y003247*
X012747*
Y003402*
G37*
G36*
X012294Y003535D02*
X012204Y003517D01*
X012139Y003473*
X0116*
X011534Y00346*
X011477Y003423*
X010812Y002757*
X010792Y002755*
X010691Y002713*
X010604Y002646*
X010537Y002559*
X010495Y002458*
X010481Y00235*
X010495Y002242*
X010537Y002141*
X010604Y002054*
X010691Y001987*
X010792Y001945*
X0109Y001931*
X011008Y001945*
X011109Y001987*
X011196Y002054*
X011263Y002141*
X011305Y002242*
X011319Y00235*
X011305Y002458*
X011263Y002559*
X011196Y002646*
Y002651*
X011672Y003127*
X012139*
X012204Y003083*
X012294Y003065*
X012383Y003083*
X01246Y003134*
X01251Y00321*
X012528Y0033*
X01251Y00339*
X01246Y003466*
X012383Y003517*
X012294Y003535*
G37*
G36*
X01545Y003204D02*
Y00305D01*
X015604*
X015598Y003082*
X015551Y003151*
X015482Y003198*
X01545Y003204*
G37*
G36*
X01535D02*
X015318Y003198D01*
X015249Y003151*
X015202Y003082*
X015196Y00305*
X01535*
Y003204*
G37*
G36*
X013002Y003147D02*
X012847D01*
Y002993*
X012879Y003*
X012949Y003046*
X012995Y003115*
X013002Y003147*
G37*
G36*
X012747D02*
X012593D01*
X0126Y003115*
X012646Y003046*
X012716Y003*
X012747Y002993*
Y003147*
G37*
G36*
X03215Y003004D02*
Y00285D01*
X032304*
X032298Y002882*
X032251Y002951*
X032182Y002998*
X03215Y003004*
G37*
G36*
X03205D02*
X032018Y002998D01*
X031949Y002951*
X031902Y002882*
X031896Y00285*
X03205*
Y003004*
G37*
G36*
X020004Y003D02*
X01985D01*
Y002846*
X019882Y002852*
X019951Y002899*
X019998Y002968*
X020004Y003*
G37*
G36*
X0321Y016385D02*
X03201Y016367D01*
X031934Y016316*
X031883Y01624*
X031865Y01615*
X031883Y01606*
X031927Y015995*
Y012872*
X029778Y010723*
X02685*
X026784Y01071*
X026727Y010673*
X018837Y002782*
X01876Y002767*
X018684Y002716*
X018633Y00264*
X018615Y00255*
X018633Y00246*
X018684Y002384*
X01876Y002333*
X01885Y002315*
X01894Y002333*
X019016Y002384*
X019067Y00246*
X019082Y002537*
X01955Y003005*
X019598Y00299*
X019602Y002968*
X019649Y002899*
X019718Y002852*
X01975Y002846*
Y00305*
X0198*
Y0031*
X020004*
X019998Y003132*
X019951Y003201*
X019882Y003248*
X01986Y003252*
X019845Y0033*
X026922Y010377*
X02985*
X029916Y01039*
X029973Y010427*
X032223Y012677*
X03226Y012734*
X032273Y0128*
Y015995*
X032317Y01606*
X032335Y01615*
X032317Y01624*
X032266Y016316*
X03219Y016367*
X0321Y016385*
G37*
G36*
X015604Y00295D02*
X01545D01*
Y002796*
X015482Y002802*
X015551Y002849*
X015598Y002918*
X015604Y00295*
G37*
G36*
X01535D02*
X015196D01*
X015202Y002918*
X015249Y002849*
X015318Y002802*
X01535Y002796*
Y00295*
G37*
G36*
X032304Y00275D02*
X03215D01*
Y002596*
X032182Y002602*
X032251Y002649*
X032298Y002718*
X032304Y00275*
G37*
G36*
X03205D02*
X031896D01*
X031902Y002718*
X031949Y002649*
X032018Y002602*
X03205Y002596*
Y00275*
G37*
G36*
X02815Y002704D02*
Y00255D01*
X028304*
X028298Y002582*
X028251Y002651*
X028182Y002698*
X02815Y002704*
G37*
G36*
X02805D02*
X028018Y002698D01*
X027949Y002651*
X027902Y002582*
X027896Y00255*
X02805*
Y002704*
G37*
G36*
X0172Y002604D02*
Y00245D01*
X017354*
X017348Y002482*
X017301Y002551*
X017232Y002598*
X0172Y002604*
G37*
G36*
X0171D02*
X017068Y002598D01*
X016999Y002551*
X016952Y002482*
X016946Y00245*
X0171*
Y002604*
G37*
G36*
X03365Y002554D02*
Y0024D01*
X033804*
X033798Y002432*
X033751Y002501*
X033682Y002548*
X03365Y002554*
G37*
G36*
X03355D02*
X033518Y002548D01*
X033449Y002501*
X033402Y002432*
X033396Y0024*
X03355*
Y002554*
G37*
G36*
X0308D02*
Y0024D01*
X030954*
X030948Y002432*
X030901Y002501*
X030832Y002548*
X0308Y002554*
G37*
G36*
X0307D02*
X030668Y002548D01*
X030599Y002501*
X030552Y002432*
X030546Y0024*
X0307*
Y002554*
G37*
G36*
X01195Y002742D02*
Y0024D01*
X012292*
X012285Y002453*
X012245Y002549*
X012182Y002632*
X012099Y002695*
X012003Y002735*
X01195Y002742*
G37*
G36*
X01185D02*
X011797Y002735D01*
X011701Y002695*
X011618Y002632*
X011555Y002549*
X011515Y002453*
X011508Y0024*
X01185*
Y002742*
G37*
G36*
X028304Y00245D02*
X02815D01*
Y002296*
X028182Y002302*
X028251Y002349*
X028298Y002418*
X028304Y00245*
G37*
G36*
X02805D02*
X027896D01*
X027902Y002418*
X027949Y002349*
X028018Y002302*
X02805Y002296*
Y00245*
G37*
G36*
X017354Y00235D02*
X0172D01*
Y002196*
X017232Y002202*
X017301Y002249*
X017348Y002318*
X017354Y00235*
G37*
G36*
X0171D02*
X016946D01*
X016952Y002318*
X016999Y002249*
X017068Y002202*
X0171Y002196*
Y00235*
G37*
G36*
X030954Y0023D02*
X0308D01*
Y002146*
X030832Y002152*
X030901Y002199*
X030948Y002268*
X030954Y0023*
G37*
G36*
X0307D02*
X030546D01*
X030552Y002268*
X030599Y002199*
X030668Y002152*
X0307Y002146*
Y0023*
G37*
G36*
X012292D02*
X01195D01*
Y001958*
X012003Y001965*
X012099Y002005*
X012182Y002068*
X012245Y002151*
X012285Y002247*
X012292Y0023*
G37*
G36*
X01185D02*
X011508D01*
X011515Y002247*
X011555Y002151*
X011618Y002068*
X011701Y002005*
X011797Y001965*
X01185Y001958*
Y0023*
G37*
G36*
X0209Y002104D02*
Y00195D01*
X021054*
X021048Y001982*
X021001Y002051*
X020932Y002098*
X0209Y002104*
G37*
G36*
X0208D02*
X020768Y002098D01*
X020699Y002051*
X020652Y001982*
X020646Y00195*
X0208*
Y002104*
G37*
G36*
X024054Y00205D02*
X0239D01*
Y001896*
X023932Y001902*
X024001Y001949*
X024048Y002018*
X024054Y00205*
G37*
G36*
X021054Y00185D02*
X0209D01*
Y001696*
X020932Y001702*
X021001Y001749*
X021048Y001818*
X021054Y00185*
G37*
G36*
X0208D02*
X020646D01*
X020652Y001818*
X020699Y001749*
X020768Y001702*
X0208Y001696*
Y00185*
G37*
G36*
X025448Y002073D02*
X024914D01*
X024848Y00206*
X024792Y002023*
X024602Y001833*
X024564Y001776*
X024551Y00171*
Y00163*
X024508Y001565*
X02449Y001476*
X024508Y001386*
X024559Y00131*
X024635Y001259*
X024724Y001241*
X024814Y001259*
X02489Y00131*
X024941Y001386*
X024959Y001476*
X024941Y001565*
X024898Y00163*
Y001638*
X024986Y001727*
X025376*
X025392Y001711*
X025407Y001634*
X025458Y001558*
X025534Y001507*
X025624Y00149*
X025714Y001507*
X02579Y001558*
X025841Y001634*
X025859Y001724*
X025841Y001814*
X02579Y00189*
X025714Y001941*
X025637Y001956*
X025571Y002023*
X025514Y00206*
X025448Y002073*
G37*
G36*
X0171Y001604D02*
Y00145D01*
X017254*
X017248Y001482*
X017201Y001551*
X017132Y001598*
X0171Y001604*
G37*
G36*
X017D02*
X016968Y001598D01*
X016899Y001551*
X016852Y001482*
X016846Y00145*
X017*
Y001604*
G37*
G36*
X032401Y00225D02*
X031374D01*
Y001436*
X032401*
Y00182*
X032405Y001843*
X032401Y001866*
Y00225*
G37*
G36*
X02545Y001354D02*
Y0012D01*
X025604*
X025598Y001232*
X025551Y001301*
X025482Y001348*
X02545Y001354*
G37*
G36*
X02535D02*
X025318Y001348D01*
X025249Y001301*
X025202Y001232*
X025196Y0012*
X02535*
Y001354*
G37*
G36*
X020976Y001331D02*
Y001176D01*
X021131*
X021124Y001208*
X021078Y001278*
X021008Y001324*
X020976Y001331*
G37*
G36*
X020876D02*
X020844Y001324D01*
X020775Y001278*
X020729Y001208*
X020722Y001176*
X020876*
Y001331*
G37*
G36*
X010726Y001377D02*
Y00115D01*
X010933*
Y001377*
X010726*
G37*
G36*
X005874Y001327D02*
X005667D01*
Y0011*
X005874*
Y001327*
G37*
G36*
X01465Y001104D02*
Y00095D01*
X014804*
X014798Y000982*
X014751Y001051*
X014682Y001098*
X01465Y001104*
G37*
G36*
X01455D02*
X014518Y001098D01*
X014449Y001051*
X014402Y000982*
X014396Y00095*
X01455*
Y001104*
G37*
G36*
X025604Y0011D02*
X02545D01*
Y000946*
X025482Y000952*
X025551Y000999*
X025598Y001068*
X025604Y0011*
G37*
G36*
X02535D02*
X025196D01*
X025202Y001068*
X025249Y000999*
X025318Y000952*
X02535Y000946*
Y0011*
G37*
G36*
X021131Y001076D02*
X020976D01*
Y000922*
X021008Y000929*
X021078Y000975*
X021124Y001044*
X021131Y001076*
G37*
G36*
X020876D02*
X020722D01*
X020729Y001044*
X020775Y000975*
X020844Y000929*
X020876Y000922*
Y001076*
G37*
G36*
X010933Y00105D02*
X010726D01*
Y000823*
X010933*
Y00105*
G37*
G36*
X0092Y002485D02*
X00911Y002467D01*
X009034Y002416*
X008983Y00234*
X008965Y00225*
X008976Y002199*
Y001732*
X008702*
Y000468*
X00969*
Y000876*
X009847*
Y000803*
X010402*
X010444Y000823*
X010626*
Y0011*
Y001377*
X010444*
X010402Y001397*
X010376*
X009847*
Y001324*
X00969*
Y001732*
X009424*
Y002199*
X009435Y00225*
X009417Y00234*
X009366Y002416*
X00929Y002467*
X0092Y002485*
G37*
G36*
X005874Y001D02*
X005667D01*
Y000773*
X005874*
Y001*
G37*
G36*
X014804Y00085D02*
X01465D01*
Y000696*
X014682Y000702*
X014751Y000749*
X014798Y000818*
X014804Y00085*
G37*
G36*
X01455D02*
X014396D01*
X014402Y000818*
X014449Y000749*
X014518Y000702*
X01455Y000696*
Y00085*
G37*
G36*
X0304Y000804D02*
Y00065D01*
X030554*
X030548Y000682*
X030501Y000751*
X030432Y000798*
X0304Y000804*
G37*
G36*
X0303D02*
X030268Y000798D01*
X030199Y000751*
X030152Y000682*
X030146Y00065*
X0303*
Y000804*
G37*
G36*
X030554Y00055D02*
X0304D01*
Y000396*
X030432Y000402*
X030501Y000449*
X030548Y000518*
X030554Y00055*
G37*
G36*
X0303D02*
X030146D01*
X030152Y000518*
X030199Y000449*
X030268Y000402*
X0303Y000396*
Y00055*
G37*
G36*
X034073Y001069D02*
X033964Y001055D01*
X033863Y001013*
X033777Y000946*
X03371Y000859*
X033668Y000758*
X033654Y00065*
X033668Y000542*
X03371Y000441*
X033777Y000354*
X033863Y000287*
X033964Y000245*
X034073Y000231*
X034181Y000245*
X034282Y000287*
X034369Y000354*
X034436Y000441*
X034477Y000542*
X034492Y00065*
X034477Y000758*
X034436Y000859*
X034369Y000946*
X034282Y001013*
X034181Y001055*
X034073Y001069*
G37*
G36*
X031927D02*
X031819Y001055D01*
X031718Y001013*
X031631Y000946*
X031564Y000859*
X031523Y000758*
X031508Y00065*
X031523Y000542*
X031564Y000441*
X031631Y000354*
X031718Y000287*
X031819Y000245*
X031927Y000231*
X032036Y000245*
X032137Y000287*
X032223Y000354*
X03229Y000441*
X032332Y000542*
X032346Y00065*
X032332Y000758*
X03229Y000859*
X032223Y000946*
X032137Y001013*
X032036Y001055*
X031927Y001069*
G37*
G36*
X03865Y005004D02*
X038618Y004998D01*
X038549Y004951*
X038502Y004882*
X038496Y00485*
X03865*
Y005004*
G37*
G36*
X037044Y004355D02*
X036608D01*
Y003957*
X036628*
Y00395*
X036826*
X037024*
Y003957*
X037044*
Y004355*
G37*
%LNsensorplatformv3-3*%
%LPD*%
G54D13*
X008679Y012332D03*
Y013332D03*
Y011332D03*
X001679Y013332D03*
Y012332D03*
Y011332D03*
X001703Y005232D03*
Y006232D03*
Y007232D03*
X008703Y005232D03*
Y007232D03*
Y006232D03*
X0236Y01095D03*
Y00925D03*
X018375Y01485D03*
G54D14*
X010124Y0011D03*
X010676D03*
X006476Y00105D03*
X005924D03*
G54D30*
X0086Y01015D02*
Y01145D01*
X0109Y00235D02*
Y0026D01*
X0116Y0033*
X012294*
X0099Y00235D02*
Y0029D01*
X01115Y00415*
X01185*
X03325Y01585D02*
Y0171D01*
X025448Y0019D02*
X025624Y001724D01*
X024914Y0019D02*
X025448D01*
X024724Y00171D02*
X024914Y0019D01*
X024724Y001476D02*
Y00171D01*
X01885Y0036D02*
X01925Y004D01*
X0182Y0036D02*
X01885D01*
X011069Y007232D02*
X0118Y00725D01*
X012955Y006095*
Y005655D02*
Y006095D01*
X01415Y0054D02*
Y00575D01*
X0122Y0077D02*
X01415Y00575D01*
X01105Y0077D02*
X0122D01*
X0137Y00685D02*
X0191Y00145D01*
X0137Y00685D02*
Y00895D01*
X0086Y01015D02*
X01105Y0077D01*
X0087Y00535D02*
X01105Y0077D01*
X0094Y00425D02*
X01005Y0049D01*
X0136*
X0163Y00315D02*
X01665Y0035D01*
X0163Y00125D02*
Y00315D01*
X0159Y0024D02*
Y0031D01*
X01525Y00175D02*
X0159Y0024D01*
X01525Y0006D02*
Y00175D01*
Y0006D02*
X01555Y0003D01*
X02755*
X02965Y0024*
X0163Y00125D02*
X0165Y00105D01*
X018*
X0184Y00065*
X0275*
X0293Y00245*
X03905Y0047D02*
Y00535D01*
X038506Y004156D02*
X03905Y0047D01*
X03885Y00555D02*
Y0059D01*
Y00555D02*
X03905Y00535D01*
X03645Y00365D02*
X036456Y003644D01*
X0362Y0039D02*
X03645Y00365D01*
X03595Y005D02*
X0362Y00475D01*
Y0039D02*
Y00475D01*
X037574Y0039D02*
X03785D01*
X0382Y00355*
Y0026D02*
Y00355D01*
X037574Y001626D02*
Y003644D01*
X0361Y00215D02*
X03645Y0025D01*
Y00365*
X036456Y003644D02*
X036826D01*
X03417Y005D02*
X03595D01*
X03525Y00215D02*
X0361Y0013D01*
X03805*
X038506Y004144D02*
Y004156D01*
X037574D02*
X038506D01*
X03865Y0061D02*
X03885Y0059D01*
X03335Y0061D02*
X03865D01*
X03317Y00592D02*
X03335Y0061D01*
X03317Y005D02*
Y00592D01*
X0357Y00215D02*
Y0037D01*
X03217Y00438D02*
Y005D01*
X03167Y00408D02*
Y005D01*
X0329Y0117D02*
Y01615D01*
X0222Y001D02*
X0329Y0117D01*
X02165Y00165D02*
X02535Y00535D01*
Y008*
X0321Y0128D02*
Y01615D01*
X02985Y01055D02*
X0321Y0128D01*
X02685Y01055D02*
X02985D01*
X01885Y00255D02*
X02685Y01055D01*
X0195Y0105D02*
X02035Y00965D01*
X0209*
X02115Y0094*
Y00855D02*
Y0094D01*
X01925Y00665D02*
X02115Y00855D01*
X0203Y009D02*
X02035D01*
X0177D02*
X0203D01*
X0154D02*
X01645D01*
X01465Y00675D02*
X015Y0071D01*
Y0105*
X009196Y0011D02*
X0092Y001104D01*
X007454Y00105D02*
X007504Y0011D01*
X010124D02*
D01*
X017Y0105D02*
X0171Y0104D01*
Y00685D02*
Y0104D01*
X03805Y0013D02*
X03865Y0019D01*
Y004*
X038506Y004144D02*
X03865Y004D01*
X03167Y00408D02*
X0319Y00385D01*
X033168*
X034859Y002159*
X03217Y00438D02*
X03252Y00403D01*
X03537*
X0357Y0037*
G54D31*
X006476Y001904D02*
X011211Y006639D01*
X006476Y00105D02*
Y001904D01*
X0092Y001104D02*
Y00225D01*
X006476Y00105D02*
X007454D01*
X009196Y0011D02*
X010124D01*
G54D32*
X0236Y00925D02*
Y01095D01*
G54D34*
X0146Y0009D03*
X012294Y0033D03*
X01185Y00415D03*
X03325Y0171D03*
Y01585D03*
X03035Y0006D03*
X02385Y0021D03*
X01925Y004D03*
X0182Y0036D03*
X03905Y01135D03*
X038845Y012745D03*
X03655Y0156D03*
X011069Y007232D03*
X012955Y005655D03*
X0094Y00425D03*
X0136Y0049D03*
X01415Y0054D03*
X0159Y0031D03*
X01665Y0035D03*
X03895Y00415D03*
X0387Y0048D03*
X0382Y0026D03*
X037574Y001626D03*
X034859Y002159D03*
X03525Y00215D03*
X0357D03*
X0361D03*
X03075Y00235D03*
X02965Y0024D03*
X0293Y00245D03*
X02575Y00365D03*
X02565Y0062D03*
X0255Y0112D03*
X02955Y01555D03*
X028359D03*
X0329Y01615D03*
X0222Y001D03*
X02165Y00165D03*
X02535Y008D03*
X0321Y01615D03*
X01885Y00255D03*
X01925Y00665D03*
X0203Y009D03*
X0177D03*
X01645D03*
X0154D03*
X01465Y00675D03*
X0198Y00305D03*
X0254Y00115D03*
X025624Y001724D03*
X024724Y001476D03*
X0281Y0025D03*
X0336Y00235D03*
X0355Y0171D03*
X023624Y012626D03*
X0137Y00895D03*
X0191Y00145D03*
X02085Y0019D03*
X020926Y001126D03*
X01715Y0024D03*
X01705Y0014D03*
X016915Y000615D03*
X0092Y00225D03*
X011211Y006639D03*
X010674Y004624D03*
X024641Y006191D03*
X02465Y005D03*
X0171Y00685D03*
X0183Y0064D03*
X0133Y0096D03*
X012797Y003197D03*
X0154Y003D03*
X0321Y0028D03*
G54D35*
X0099Y00235D03*
X0205Y0105D03*
X013D03*
X02415Y0168D03*
G54D36*
X0109Y00235D03*
X0119D03*
X0106Y01655D03*
Y01555D03*
Y01455D03*
Y01355D03*
Y01155D03*
Y01255D03*
X0195Y0105D03*
X0185D03*
X017D03*
X016D03*
X015D03*
X014D03*
X02515Y0168D03*
X031927Y00065D03*
X034073D03*
G54D37*
X029781Y013453D03*
X0361Y009594D03*
G54D38*
X037795Y016929D03*
X001575Y001575D03*
Y016929D03*
G54D39*
X0106Y01055D03*
G54D40*
X00633Y00482D03*
X00387D03*
X00633Y00728D03*
X00387D03*
X00638Y01398D03*
Y01152D03*
X00392Y01398D03*
Y01152D03*
G54D41*
X0051Y00605D03*
X00515Y01275D03*
G54D42*
X034112Y001843D03*
X031888D03*
G54D43*
X033955Y001843D03*
X032045D03*
G54D44*
X03067Y005D03*
X03117D03*
X03167D03*
X03217D03*
X03267D03*
X03317D03*
X03367D03*
X03417D03*
G54D45*
X037041Y01315D03*
X02895D03*
G54D46*
X007504Y0011D03*
X009196D03*
G54D47*
X037574Y003644D03*
Y0039D03*
Y004156D03*
X036826D03*
Y0039D03*
Y003644D03*
M02*